Chivo-Italic.ufo
<glyph name="exclam" format="1">
  <advance width="269"/>
  <unicode hex="0021"/>
  <outline>
    <contour>
      <point x="133" y="686" type="curve"/>
      <point x="248" y="686" type="line"/>
      <point x="232" y="630"/>
      <point x="183" y="354"/>
      <point x="151" y="174" type="curve"/>
      <point x="85" y="174" type="line"/>
      <point x="101" y="346"/>
      <point x="118" y="514"/>
    </contour>
    <contour>
      <point x="144" y="0" type="line"/>
      <point x="43" y="0" type="line"/>
      <point x="59" y="111" type="line"/>
      <point x="160" y="111" type="line"/>
    </contour>
  </outline>
</glyph>
<glyph name="quotedbl" format="1">
  <advance width="363"/>
  <unicode hex="0022"/>
  <outline>
    <contour>
      <point x="201" y="686" type="line"/>
      <point x="180" y="539" type="line"/>
      <point x="167" y="494"/>
      <point x="152" y="451"/>
      <point x="139" y="407" type="curve"/>
      <point x="98" y="407" type="line"/>
      <point x="98" y="539" type="line"/>
      <point x="119" y="686" type="line"/>
    </contour>
    <contour>
      <point x="355" y="686" type="line"/>
      <point x="334" y="539" type="line"/>
      <point x="319" y="494"/>
      <point x="305" y="451"/>
      <point x="292" y="407" type="curve"/>
      <point x="252" y="407" type="line"/>
      <point x="252" y="539" type="line"/>
      <point x="273" y="686" type="line"/>
    </contour>
  </outline>
</glyph>
<glyph name="numbersign" format="1">
  <advance width="644"/>
  <unicode hex="0023"/>
  <outline>
    <contour>
      <point x="536" y="486" type="line"/>
      <point x="641" y="486" type="line"/>
      <point x="630" y="410" type="line"/>
      <point x="508" y="410" type="line"/>
      <point x="452" y="255" type="line"/>
      <point x="568" y="255" type="line"/>
      <point x="558" y="179" type="line"/>
      <point x="425" y="179" type="line"/>
      <point x="360" y="0" type="line"/>
      <point x="284" y="0" type="line"/>
      <point x="349" y="179" type="line"/>
      <point x="199" y="179" type="line"/>
      <point x="134" y="0" type="line"/>
      <point x="58" y="0" type="line"/>
      <point x="123" y="179" type="line"/>
      <point x="14" y="179" type="line"/>
      <point x="24" y="255" type="line"/>
      <point x="150" y="255" type="line"/>
      <point x="206" y="410" type="line"/>
      <point x="85" y="410" type="line"/>
      <point x="96" y="486" type="line"/>
      <point x="234" y="486" type="line"/>
      <point x="310" y="696" type="line"/>
      <point x="386" y="696" type="line"/>
      <point x="310" y="486" type="line"/>
      <point x="460" y="486" type="line"/>
      <point x="536" y="696" type="line"/>
      <point x="612" y="696" type="line"/>
    </contour>
    <contour>
      <point x="282" y="410" type="line"/>
      <point x="226" y="255" type="line"/>
      <point x="376" y="255" type="line"/>
      <point x="432" y="410" type="line"/>
    </contour>
  </outline>
</glyph>
<glyph name="percent" format="1">
  <advance width="700"/>
  <unicode hex="0025"/>
  <outline>
    <contour>
      <point x="136" y="0" type="line"/>
      <point x="66" y="0" type="line"/>
      <point x="581" y="686" type="line"/>
      <point x="649" y="686" type="line"/>
    </contour>
    <contour>
      <point x="207" y="685" type="curve" smooth="yes"/>
      <point x="214" y="685" type="line" smooth="yes"/>
      <point x="281" y="685"/>
      <point x="319" y="641"/>
      <point x="319" y="582" type="curve" smooth="yes"/>
      <point x="318" y="577"/>
      <point x="320" y="569"/>
      <point x="303" y="457" type="curve" smooth="yes"/>
      <point x="293" y="390"/>
      <point x="249" y="336"/>
      <point x="165" y="336" type="curve" smooth="yes"/>
      <point x="158" y="336" type="line" smooth="yes"/>
      <point x="91" y="336"/>
      <point x="52" y="380"/>
      <point x="52" y="437" type="curve" smooth="yes"/>
      <point x="51" y="448"/>
      <point x="54" y="450"/>
      <point x="69" y="564" type="curve" smooth="yes"/>
      <point x="78" y="631"/>
      <point x="123" y="685"/>
    </contour>
    <contour>
      <point x="203" y="630" type="curve" smooth="yes"/>
      <point x="162" y="630"/>
      <point x="139" y="604"/>
      <point x="134" y="571" type="curve" smooth="yes"/>
      <point x="115" y="446"/>
      <point x="116" y="445"/>
      <point x="116" y="440" type="curve" smooth="yes"/>
      <point x="116" y="412"/>
      <point x="134" y="391"/>
      <point x="169" y="391" type="curve" smooth="yes"/>
      <point x="207" y="391"/>
      <point x="233" y="417"/>
      <point x="238" y="450" type="curve" smooth="yes"/>
      <point x="254" y="573"/>
      <point x="256" y="569"/>
      <point x="256" y="580" type="curve" smooth="yes"/>
      <point x="256" y="608"/>
      <point x="238" y="630"/>
    </contour>
    <contour>
      <point x="549" y="348" type="curve" smooth="yes"/>
      <point x="556" y="348" type="line" smooth="yes"/>
      <point x="623" y="348"/>
      <point x="661" y="304"/>
      <point x="661" y="245" type="curve" smooth="yes"/>
      <point x="660" y="240"/>
      <point x="662" y="232"/>
      <point x="645" y="120" type="curve" smooth="yes"/>
      <point x="635" y="53"/>
      <point x="591" y="-1"/>
      <point x="507" y="-1" type="curve" smooth="yes"/>
      <point x="500" y="-1" type="line" smooth="yes"/>
      <point x="433" y="-1"/>
      <point x="394" y="43"/>
      <point x="394" y="100" type="curve" smooth="yes"/>
      <point x="393" y="111"/>
      <point x="396" y="113"/>
      <point x="411" y="227" type="curve" smooth="yes"/>
      <point x="420" y="294"/>
      <point x="465" y="348"/>
    </contour>
    <contour>
      <point x="545" y="293" type="curve" smooth="yes"/>
      <point x="504" y="293"/>
      <point x="481" y="267"/>
      <point x="476" y="234" type="curve" smooth="yes"/>
      <point x="457" y="109"/>
      <point x="458" y="108"/>
      <point x="458" y="103" type="curve" smooth="yes"/>
      <point x="458" y="75"/>
      <point x="476" y="54"/>
      <point x="511" y="54" type="curve" smooth="yes"/>
      <point x="549" y="54"/>
      <point x="575" y="80"/>
      <point x="580" y="113" type="curve" smooth="yes"/>
      <point x="596" y="236"/>
      <point x="598" y="232"/>
      <point x="598" y="243" type="curve" smooth="yes"/>
      <point x="598" y="271"/>
      <point x="580" y="293"/>
    </contour>
  </outline>
</glyph>
<glyph name="ampersand" format="1">
  <advance width="661"/>
  <unicode hex="0026"/>
  <outline>
    <contour>
      <point x="356" y="696" type="curve" smooth="yes"/>
      <point x="379" y="696"/>
      <point x="398" y="693"/>
      <point x="417" y="689" type="curve"/>
      <point x="405" y="598" type="line"/>
      <point x="388" y="603"/>
      <point x="370" y="607"/>
      <point x="350" y="607" type="curve" smooth="yes"/>
      <point x="265" y="607"/>
      <point x="200" y="573"/>
      <point x="200" y="500" type="curve" smooth="yes"/>
      <point x="200" y="440"/>
      <point x="246" y="395"/>
      <point x="321" y="395" type="curve" smooth="yes"/>
      <point x="444" y="395" type="line"/>
      <point x="492" y="538" type="line"/>
      <point x="560" y="538" type="line"/>
      <point x="540" y="395" type="line"/>
      <point x="648" y="395" type="line"/>
      <point x="636" y="306" type="line"/>
      <point x="528" y="306" type="line"/>
      <point x="485" y="0" type="line"/>
      <point x="260" y="0" type="line" smooth="yes"/>
      <point x="140" y="0"/>
      <point x="43" y="51"/>
      <point x="43" y="163" type="curve" smooth="yes"/>
      <point x="43" y="272"/>
      <point x="110" y="330"/>
      <point x="193" y="354" type="curve"/>
      <point x="197" y="356" type="line"/>
      <point x="142" y="383"/>
      <point x="103" y="423"/>
      <point x="103" y="494" type="curve" smooth="yes"/>
      <point x="103" y="626"/>
      <point x="209" y="696"/>
    </contour>
    <contour>
      <point x="430" y="306" type="line"/>
      <point x="316" y="306" type="line" smooth="yes"/>
      <point x="211" y="306"/>
      <point x="142" y="265"/>
      <point x="142" y="182" type="curve" smooth="yes"/>
      <point x="142" y="115"/>
      <point x="205" y="89"/>
      <point x="286" y="89" type="curve" smooth="yes"/>
      <point x="399" y="89" type="line"/>
    </contour>
  </outline>
</glyph>
<glyph name="quotesingle" format="1">
  <advance width="209"/>
  <unicode hex="0027"/>
  <outline>
    <contour>
      <point x="201" y="686" type="line"/>
      <point x="180" y="539" type="line"/>
      <point x="165" y="494"/>
      <point x="153" y="451"/>
      <point x="138" y="407" type="curve"/>
      <point x="98" y="407" type="line"/>
      <point x="98" y="539" type="line"/>
      <point x="119" y="686" type="line"/>
    </contour>
  </outline>
</glyph>
<glyph name="parenleft" format="1">
  <advance width="289"/>
  <unicode hex="0028"/>
  <outline>
    <contour>
      <point x="264" y="686" type="curve"/>
      <point x="316" y="686" type="line"/>
      <point x="205" y="543"/>
      <point x="121" y="360"/>
      <point x="121" y="170" type="curve" smooth="yes"/>
      <point x="121" y="50"/>
      <point x="152" y="-65"/>
      <point x="197" y="-157" type="curve"/>
      <point x="145" y="-157" type="line"/>
      <point x="76" y="-62"/>
      <point x="39" y="53"/>
      <point x="39" y="178" type="curve" smooth="yes"/>
      <point x="39" y="377"/>
      <point x="125" y="545"/>
    </contour>
  </outline>
</glyph>
<glyph name="parenright" format="1">
  <advance width="289"/>
  <unicode hex="0029"/>
  <outline>
    <contour>
      <point x="86" y="686" type="curve"/>
      <point x="137" y="686" type="line"/>
      <point x="206" y="591"/>
      <point x="243" y="475"/>
      <point x="243" y="351" type="curve" smooth="yes"/>
      <point x="243" y="162"/>
      <point x="157" y="-16"/>
      <point x="18" y="-157" type="curve"/>
      <point x="-33" y="-157" type="line"/>
      <point x="74" y="-18"/>
      <point x="160" y="165"/>
      <point x="160" y="355" type="curve" smooth="yes"/>
      <point x="160" y="475"/>
      <point x="130" y="594"/>
    </contour>
  </outline>
</glyph>
<glyph name="asterisk" format="1">
  <advance width="469"/>
  <unicode hex="002A"/>
  <outline>
    <contour>
      <point x="291" y="519" type="line"/>
      <point x="458" y="584" type="line"/>
      <point x="470" y="506" type="line"/>
      <point x="299" y="468" type="line"/>
      <point x="391" y="343" type="line"/>
      <point x="320" y="294" type="line"/>
      <point x="252" y="438" type="line"/>
      <point x="145" y="296" type="line"/>
      <point x="88" y="344" type="line"/>
      <point x="217" y="469" type="line"/>
      <point x="59" y="509" type="line"/>
      <point x="95" y="586" type="line"/>
      <point x="241" y="520" type="line"/>
      <point x="251" y="686" type="line"/>
      <point x="330" y="686" type="line"/>
    </contour>
  </outline>
</glyph>
<glyph name="plus" format="1">
  <advance width="615"/>
  <unicode hex="002B"/>
  <outline>
    <contour>
      <point x="349" y="297" type="line"/>
      <point x="564" y="297" type="line"/>
      <point x="553" y="213" type="line"/>
      <point x="338" y="213" type="line"/>
      <point x="308" y="0" type="line"/>
      <point x="225" y="0" type="line"/>
      <point x="255" y="213" type="line"/>
      <point x="41" y="213" type="line"/>
      <point x="52" y="297" type="line"/>
      <point x="266" y="297" type="line"/>
      <point x="296" y="511" type="line"/>
      <point x="379" y="511" type="line"/>
    </contour>
  </outline>
</glyph>
<glyph name="comma" format="1">
  <advance width="237"/>
  <unicode hex="002C"/>
  <outline>
    <contour>
      <point x="132" y="26" type="line"/>
      <point x="76" y="-124" type="line"/>
      <point x="24" y="-124" type="line"/>
      <point x="68" y="0" type="line"/>
      <point x="27" y="0" type="line"/>
      <point x="43" y="111" type="line"/>
      <point x="144" y="111" type="line"/>
    </contour>
  </outline>
</glyph>
<glyph name="hyphen" format="1">
  <advance width="390"/>
  <unicode hex="002D"/>
  <outline>
    <contour>
      <point x="311" y="221" type="line"/>
      <point x="60" y="221" type="line"/>
      <point x="72" y="319" type="line"/>
      <point x="324" y="319" type="line"/>
    </contour>
  </outline>
</glyph>
<glyph name="slash" format="1">
  <advance width="489"/>
  <unicode hex="002F"/>
  <outline>
    <contour>
      <point x="36" y="-171" type="line"/>
      <point x="-45" y="-171" type="line"/>
      <point x="445" y="686" type="line"/>
      <point x="525" y="686" type="line"/>
    </contour>
  </outline>
</glyph>
<glyph name="zero" format="1">
  <advance width="615"/>
  <unicode hex="0030"/>
  <outline>
    <contour>
      <point x="357" y="696" type="curve" smooth="yes"/>
      <point x="370" y="696" type="line" smooth="yes"/>
      <point x="488" y="696"/>
      <point x="570" y="615"/>
      <point x="570" y="499" type="curve" smooth="yes"/>
      <point x="570" y="484" type="line" smooth="yes"/>
      <point x="570" y="460"/>
      <point x="563" y="434"/>
      <point x="533" y="221" type="curve" smooth="yes"/>
      <point x="514" y="86"/>
      <point x="415" y="-10"/>
      <point x="271" y="-10" type="curve" smooth="yes"/>
      <point x="258" y="-10" type="line" smooth="yes"/>
      <point x="140" y="-10"/>
      <point x="58" y="68"/>
      <point x="58" y="184" type="curve" smooth="yes"/>
      <point x="58" y="195"/>
      <point x="58" y="209"/>
      <point x="95" y="464" type="curve" smooth="yes"/>
      <point x="114" y="599"/>
      <point x="214" y="696"/>
    </contour>
    <contour>
      <point x="352" y="607" type="curve" smooth="yes"/>
      <point x="263" y="607"/>
      <point x="206" y="549"/>
      <point x="195" y="472" type="curve" smooth="yes"/>
      <point x="158" y="214"/>
      <point x="157" y="210"/>
      <point x="157" y="194" type="curve" smooth="yes"/>
      <point x="157" y="126"/>
      <point x="202" y="79"/>
      <point x="277" y="79" type="curve" smooth="yes"/>
      <point x="368" y="79"/>
      <point x="423" y="137"/>
      <point x="434" y="214" type="curve" smooth="yes"/>
      <point x="471" y="472"/>
      <point x="472" y="476"/>
      <point x="472" y="491" type="curve" smooth="yes"/>
      <point x="472" y="559"/>
      <point x="425" y="607"/>
    </contour>
  </outline>
</glyph>
<glyph name="one" format="1">
  <advance width="615"/>
  <unicode hex="0031"/>
  <outline>
    <contour>
      <point x="349" y="89" type="line"/>
      <point x="529" y="89" type="line"/>
      <point x="516" y="0" type="line"/>
      <point x="58" y="0" type="line"/>
      <point x="71" y="89" type="line"/>
      <point x="251" y="89" type="line"/>
      <point x="316" y="555" type="line"/>
      <point x="134" y="555" type="line"/>
      <point x="143" y="619" type="line"/>
      <point x="210" y="626"/>
      <point x="300" y="647"/>
      <point x="395" y="686" type="curve"/>
      <point x="433" y="686" type="line"/>
    </contour>
  </outline>
</glyph>
<glyph name="two" format="1">
  <advance width="615"/>
  <unicode hex="0032"/>
  <outline>
    <contour>
      <point x="362" y="696" type="curve" smooth="yes"/>
      <point x="513" y="696"/>
      <point x="570" y="600"/>
      <point x="570" y="522" type="curve" smooth="yes"/>
      <point x="570" y="438"/>
      <point x="538" y="361"/>
      <point x="416" y="279" type="curve" smooth="yes"/>
      <point x="205" y="136" type="line" smooth="yes"/>
      <point x="184" y="122"/>
      <point x="157" y="100"/>
      <point x="156" y="89" type="curve"/>
      <point x="514" y="89" type="line"/>
      <point x="502" y="0" type="line"/>
      <point x="31" y="0" type="line"/>
      <point x="34" y="24" type="line" smooth="yes"/>
      <point x="46" y="120"/>
      <point x="121" y="181"/>
      <point x="152" y="201" type="curve" smooth="yes"/>
      <point x="372" y="351" type="line" smooth="yes"/>
      <point x="449" y="404"/>
      <point x="471" y="458"/>
      <point x="471" y="507" type="curve" smooth="yes"/>
      <point x="471" y="547"/>
      <point x="450" y="607"/>
      <point x="351" y="607" type="curve" smooth="yes"/>
      <point x="265" y="607"/>
      <point x="193" y="540"/>
      <point x="193" y="449" type="curve"/>
      <point x="95" y="449" type="line"/>
      <point x="95" y="572"/>
      <point x="197" y="696"/>
    </contour>
  </outline>
</glyph>
<glyph name="three" format="1">
  <advance width="615"/>
  <unicode hex="0033"/>
  <outline>
    <contour>
      <point x="356" y="696" type="curve" smooth="yes"/>
      <point x="365" y="696" type="line" smooth="yes"/>
      <point x="481" y="696"/>
      <point x="564" y="635"/>
      <point x="564" y="536" type="curve" smooth="yes"/>
      <point x="564" y="439"/>
      <point x="502" y="388"/>
      <point x="431" y="356" type="curve"/>
      <point x="432" y="353" type="line"/>
      <point x="493" y="333"/>
      <point x="534" y="288"/>
      <point x="534" y="215" type="curve" smooth="yes"/>
      <point x="534" y="82"/>
      <point x="415" y="-10"/>
      <point x="266" y="-10" type="curve" smooth="yes"/>
      <point x="254" y="-10" type="line" smooth="yes"/>
      <point x="114" y="-10"/>
      <point x="42" y="57"/>
      <point x="42" y="160" type="curve" smooth="yes"/>
      <point x="42" y="171"/>
      <point x="43" y="182"/>
      <point x="46" y="202" type="curve"/>
      <point x="144" y="202" type="line"/>
      <point x="141" y="183"/>
      <point x="141" y="179"/>
      <point x="141" y="172" type="curve" smooth="yes"/>
      <point x="141" y="111"/>
      <point x="185" y="79"/>
      <point x="268" y="79" type="curve" smooth="yes"/>
      <point x="364" y="79"/>
      <point x="437" y="121"/>
      <point x="437" y="212" type="curve" smooth="yes"/>
      <point x="437" y="283"/>
      <point x="371" y="304"/>
      <point x="297" y="304" type="curve" smooth="yes"/>
      <point x="222" y="304" type="line"/>
      <point x="235" y="394" type="line"/>
      <point x="312" y="394" type="line" smooth="yes"/>
      <point x="389" y="394"/>
      <point x="464" y="436"/>
      <point x="464" y="519" type="curve" smooth="yes"/>
      <point x="464" y="582"/>
      <point x="409" y="607"/>
      <point x="344" y="607" type="curve" smooth="yes"/>
      <point x="274" y="607"/>
      <point x="211" y="571"/>
      <point x="200" y="492" type="curve"/>
      <point x="102" y="492" type="line"/>
      <point x="118" y="625"/>
      <point x="225" y="696"/>
    </contour>
  </outline>
</glyph>
<glyph name="five" format="1">
  <advance width="615"/>
  <unicode hex="0035"/>
  <outline>
    <contour>
      <point x="551" y="597" type="line"/>
      <point x="247" y="597" type="line"/>
      <point x="204" y="396" type="line"/>
      <point x="247" y="427"/>
      <point x="296" y="447"/>
      <point x="349" y="447" type="curve" smooth="yes"/>
      <point x="481" y="447"/>
      <point x="537" y="364"/>
      <point x="537" y="265" type="curve" smooth="yes"/>
      <point x="537" y="105"/>
      <point x="439" y="-10"/>
      <point x="265" y="-10" type="curve" smooth="yes"/>
      <point x="134" y="-10"/>
      <point x="57" y="75"/>
      <point x="57" y="184" type="curve" smooth="yes"/>
      <point x="57" y="195"/>
      <point x="58" y="203"/>
      <point x="59" y="214" type="curve"/>
      <point x="157" y="214" type="line" smooth="yes"/>
      <point x="156" y="211"/>
      <point x="156" y="208"/>
      <point x="156" y="206" type="curve" smooth="yes"/>
      <point x="156" y="198" type="line" smooth="yes"/>
      <point x="156" y="125"/>
      <point x="206" y="79"/>
      <point x="277" y="79" type="curve" smooth="yes"/>
      <point x="368" y="79"/>
      <point x="438" y="136"/>
      <point x="438" y="246" type="curve" smooth="yes"/>
      <point x="438" y="313"/>
      <point x="394" y="363"/>
      <point x="321" y="363" type="curve" smooth="yes"/>
      <point x="264" y="363"/>
      <point x="215" y="337"/>
      <point x="182" y="294" type="curve"/>
      <point x="96" y="307" type="line"/>
      <point x="177" y="686" type="line"/>
      <point x="563" y="686" type="line"/>
    </contour>
  </outline>
</glyph>
<glyph name="six" format="1">
  <advance width="615"/>
  <unicode hex="0036"/>
  <outline>
    <contour>
      <point x="366" y="696" type="curve" smooth="yes"/>
      <point x="487" y="696"/>
      <point x="568" y="625"/>
      <point x="568" y="510" type="curve" smooth="yes"/>
      <point x="568" y="492" type="line" smooth="yes"/>
      <point x="568" y="486"/>
      <point x="567" y="480"/>
      <point x="566" y="473" type="curve"/>
      <point x="468" y="473" type="line"/>
      <point x="469" y="477"/>
      <point x="469" y="481"/>
      <point x="469" y="485" type="curve" smooth="yes"/>
      <point x="469" y="496" type="line" smooth="yes"/>
      <point x="469" y="565"/>
      <point x="426" y="607"/>
      <point x="354" y="607" type="curve" smooth="yes"/>
      <point x="282" y="607"/>
      <point x="212" y="547"/>
      <point x="202" y="474" type="curve" smooth="yes"/>
      <point x="187" y="366" type="line"/>
      <point x="230" y="407"/>
      <point x="287" y="432"/>
      <point x="351" y="432" type="curve" smooth="yes"/>
      <point x="461" y="432"/>
      <point x="543" y="359"/>
      <point x="543" y="254" type="curve" smooth="yes"/>
      <point x="543" y="89"/>
      <point x="428" y="-10"/>
      <point x="273" y="-10" type="curve" smooth="yes"/>
      <point x="154" y="-10"/>
      <point x="66" y="64"/>
      <point x="66" y="184" type="curve" smooth="yes"/>
      <point x="66" y="191" type="line" smooth="yes"/>
      <point x="66" y="207"/>
      <point x="72" y="252"/>
      <point x="103" y="465" type="curve" smooth="yes"/>
      <point x="121" y="593"/>
      <point x="238" y="696"/>
    </contour>
    <contour>
      <point x="324" y="343" type="curve" smooth="yes"/>
      <point x="241" y="343"/>
      <point x="163" y="282"/>
      <point x="163" y="191" type="curve" smooth="yes"/>
      <point x="163" y="122"/>
      <point x="214" y="79"/>
      <point x="285" y="79" type="curve" smooth="yes"/>
      <point x="382" y="79"/>
      <point x="443" y="140"/>
      <point x="443" y="232" type="curve" smooth="yes"/>
      <point x="443" y="300"/>
      <point x="395" y="343"/>
    </contour>
  </outline>
</glyph>
<glyph name="seven" format="1">
  <advance width="615"/>
  <unicode hex="0037"/>
  <outline>
    <contour>
      <point x="610" y="686" type="line"/>
      <point x="602" y="633" type="line"/>
      <point x="463" y="491"/>
      <point x="290" y="273"/>
      <point x="258" y="51" type="curve" smooth="yes"/>
      <point x="255" y="32"/>
      <point x="255" y="24"/>
      <point x="252" y="0" type="curve"/>
      <point x="138" y="0" type="line"/>
      <point x="170" y="236"/>
      <point x="339" y="453"/>
      <point x="472" y="597" type="curve"/>
      <point x="115" y="597" type="line"/>
      <point x="128" y="686" type="line"/>
    </contour>
  </outline>
</glyph>
<glyph name="eight" format="1">
  <advance width="615"/>
  <unicode hex="0038"/>
  <outline>
    <contour>
      <point x="364" y="696" type="curve" smooth="yes"/>
      <point x="480" y="696"/>
      <point x="556" y="639"/>
      <point x="556" y="536" type="curve" smooth="yes"/>
      <point x="556" y="432"/>
      <point x="503" y="388"/>
      <point x="440" y="354" type="curve"/>
      <point x="439" y="350" type="line"/>
      <point x="496" y="322"/>
      <point x="534" y="285"/>
      <point x="534" y="216" type="curve" smooth="yes"/>
      <point x="534" y="77"/>
      <point x="429" y="-10"/>
      <point x="265" y="-10" type="curve" smooth="yes"/>
      <point x="136" y="-10"/>
      <point x="50" y="46"/>
      <point x="50" y="153" type="curve" smooth="yes"/>
      <point x="50" y="260"/>
      <point x="112" y="318"/>
      <point x="191" y="350" type="curve"/>
      <point x="192" y="354" type="line"/>
      <point x="148" y="381"/>
      <point x="118" y="412"/>
      <point x="118" y="475" type="curve" smooth="yes"/>
      <point x="118" y="614"/>
      <point x="229" y="696"/>
    </contour>
    <contour>
      <point x="352" y="607" type="curve" smooth="yes"/>
      <point x="287" y="607"/>
      <point x="217" y="566"/>
      <point x="217" y="485" type="curve" smooth="yes"/>
      <point x="217" y="433"/>
      <point x="255" y="395"/>
      <point x="322" y="395" type="curve" smooth="yes"/>
      <point x="400" y="395"/>
      <point x="457" y="449"/>
      <point x="457" y="516" type="curve" smooth="yes"/>
      <point x="457" y="568"/>
      <point x="420" y="607"/>
    </contour>
    <contour>
      <point x="309" y="306" type="curve" smooth="yes"/>
      <point x="237" y="306"/>
      <point x="150" y="267"/>
      <point x="150" y="175" type="curve" smooth="yes"/>
      <point x="150" y="111"/>
      <point x="205" y="79"/>
      <point x="277" y="79" type="curve" smooth="yes"/>
      <point x="361" y="79"/>
      <point x="436" y="122"/>
      <point x="436" y="210" type="curve" smooth="yes"/>
      <point x="436" y="274"/>
      <point x="381" y="306"/>
    </contour>
  </outline>
</glyph>
<glyph name="semicolon" format="1">
  <advance width="238"/>
  <unicode hex="003B"/>
  <outline>
    <contour>
      <point x="184" y="399" type="line"/>
      <point x="83" y="399" type="line"/>
      <point x="99" y="511" type="line"/>
      <point x="200" y="511" type="line"/>
    </contour>
    <contour>
      <point x="132" y="26" type="line"/>
      <point x="76" y="-124" type="line"/>
      <point x="24" y="-124" type="line"/>
      <point x="68" y="0" type="line"/>
      <point x="27" y="0" type="line"/>
      <point x="43" y="111" type="line"/>
      <point x="144" y="111" type="line"/>
    </contour>
  </outline>
</glyph>
<glyph name="less" format="1">
  <advance width="615"/>
  <unicode hex="003C"/>
  <outline>
    <contour>
      <point x="570" y="414" type="line"/>
      <point x="120" y="254" type="line"/>
      <point x="525" y="94" type="line"/>
      <point x="512" y="4" type="line"/>
      <point x="31" y="200" type="line"/>
      <point x="46" y="307" type="line"/>
      <point x="583" y="504" type="line"/>
    </contour>
  </outline>
</glyph>
<glyph name="equal" format="1">
  <advance width="615"/>
  <unicode hex="003D"/>
  <outline>
    <contour>
      <point x="563" y="318" type="line"/>
      <point x="59" y="318" type="line"/>
      <point x="71" y="402" type="line"/>
      <point x="575" y="402" type="line"/>
    </contour>
    <contour>
      <point x="534" y="106" type="line"/>
      <point x="30" y="106" type="line"/>
      <point x="41" y="189" type="line"/>
      <point x="545" y="189" type="line"/>
    </contour>
  </outline>
</glyph>
<glyph name="greater" format="1">
  <advance width="615"/>
  <unicode hex="003E"/>
  <outline>
    <contour>
      <point x="573" y="307" type="line"/>
      <point x="558" y="200" type="line"/>
      <point x="21" y="4" type="line"/>
      <point x="34" y="94" type="line"/>
      <point x="486" y="254" type="line"/>
      <point x="349" y="307"/>
      <point x="214" y="359"/>
      <point x="79" y="414" type="curve"/>
      <point x="92" y="504" type="line"/>
    </contour>
  </outline>
</glyph>
<glyph name="question" format="1">
  <advance width="502"/>
  <unicode hex="003F"/>
  <outline>
    <contour>
      <point x="303" y="696" type="curve" smooth="yes"/>
      <point x="309" y="696" type="line" smooth="yes"/>
      <point x="460" y="696"/>
      <point x="493" y="589"/>
      <point x="493" y="524" type="curve" smooth="yes"/>
      <point x="493" y="346"/>
      <point x="310" y="327"/>
      <point x="299" y="234" type="curve" smooth="yes"/>
      <point x="293" y="185" type="line"/>
      <point x="193" y="185" type="line"/>
      <point x="202" y="249" type="line" smooth="yes"/>
      <point x="218" y="365"/>
      <point x="394" y="382"/>
      <point x="394" y="510" type="curve" smooth="yes"/>
      <point x="394" y="552"/>
      <point x="370" y="607"/>
      <point x="290" y="607" type="curve" smooth="yes"/>
      <point x="186" y="607"/>
      <point x="151" y="534"/>
      <point x="151" y="458" type="curve"/>
      <point x="53" y="458" type="line"/>
      <point x="53" y="600"/>
      <point x="148" y="696"/>
    </contour>
    <contour>
      <point x="269" y="0" type="line"/>
      <point x="165" y="0" type="line"/>
      <point x="180" y="111" type="line"/>
      <point x="284" y="111" type="line"/>
    </contour>
  </outline>
</glyph>
<glyph name="at" format="1">
  <advance width="887"/>
  <unicode hex="0040"/>
  <outline>
    <contour>
      <point x="517" y="697" type="curve" smooth="yes"/>
      <point x="721" y="697"/>
      <point x="866" y="609"/>
      <point x="866" y="397" type="curve" smooth="yes"/>
      <point x="866" y="249"/>
      <point x="810" y="22"/>
      <point x="631" y="22" type="curve" smooth="yes"/>
      <point x="586" y="22"/>
      <point x="543" y="37"/>
      <point x="543" y="109" type="curve"/>
      <point x="537" y="106" type="line"/>
      <point x="494" y="51"/>
      <point x="438" y="22"/>
      <point x="361" y="22" type="curve" smooth="yes"/>
      <point x="286" y="22"/>
      <point x="221" y="43"/>
      <point x="221" y="146" type="curve" smooth="yes"/>
      <point x="221" y="299"/>
      <point x="375" y="320"/>
      <point x="567" y="320" type="curve"/>
      <point x="574" y="369"/>
      <point x="575" y="377"/>
      <point x="575" y="384" type="curve" smooth="yes"/>
      <point x="575" y="416"/>
      <point x="560" y="451"/>
      <point x="476" y="451" type="curve" smooth="yes"/>
      <point x="374" y="451"/>
      <point x="361" y="388"/>
      <point x="358" y="375" type="curve" smooth="yes"/>
      <point x="356" y="364" type="line"/>
      <point x="270" y="364" type="line"/>
      <point x="270" y="457"/>
      <point x="363" y="521"/>
      <point x="487" y="521" type="curve" smooth="yes"/>
      <point x="496" y="521" type="line" smooth="yes"/>
      <point x="612" y="521"/>
      <point x="666" y="477"/>
      <point x="666" y="400" type="curve" smooth="yes"/>
      <point x="666" y="377"/>
      <point x="649" y="272"/>
      <point x="638" y="197" type="curve" smooth="yes"/>
      <point x="631" y="148" type="line" smooth="yes"/>
      <point x="629" y="134"/>
      <point x="628" y="125"/>
      <point x="628" y="121" type="curve" smooth="yes"/>
      <point x="628" y="101"/>
      <point x="639" y="91"/>
      <point x="661" y="91" type="curve" smooth="yes"/>
      <point x="774" y="91"/>
      <point x="806" y="300"/>
      <point x="806" y="388" type="curve" smooth="yes"/>
      <point x="806" y="567"/>
      <point x="687" y="642"/>
      <point x="509" y="642" type="curve" smooth="yes"/>
      <point x="268" y="642"/>
      <point x="87" y="477"/>
      <point x="87" y="168" type="curve" smooth="yes"/>
      <point x="87" y="-11"/>
      <point x="177" y="-98"/>
      <point x="370" y="-98" type="curve" smooth="yes"/>
      <point x="416" y="-98"/>
      <point x="502" y="-84"/>
      <point x="540" y="-66" type="curve"/>
      <point x="532" y="-126" type="line"/>
      <point x="487" y="-142"/>
      <point x="406" y="-153"/>
      <point x="363" y="-153" type="curve" smooth="yes"/>
      <point x="154" y="-153"/>
      <point x="27" y="-56"/>
      <point x="27" y="163" type="curve" smooth="yes"/>
      <point x="27" y="447"/>
      <point x="178" y="697"/>
    </contour>
    <contour>
      <point x="555" y="233" type="curve" smooth="yes"/>
      <point x="558" y="251" type="line"/>
      <point x="414" y="251"/>
      <point x="310" y="236"/>
      <point x="310" y="161" type="curve" smooth="yes"/>
      <point x="310" y="109"/>
      <point x="338" y="92"/>
      <point x="401" y="92" type="curve" smooth="yes"/>
      <point x="471" y="92"/>
      <point x="540" y="144"/>
    </contour>
  </outline>
</glyph>
<glyph name="B" format="1">
  <advance width="652"/>
  <unicode hex="0042"/>
  <outline>
    <contour>
      <point x="148" y="686" type="line"/>
      <point x="440" y="686" type="line" smooth="yes"/>
      <point x="536" y="686"/>
      <point x="609" y="631"/>
      <point x="609" y="540" type="curve" smooth="yes"/>
      <point x="609" y="422"/>
      <point x="525" y="374"/>
      <point x="466" y="358" type="curve"/>
      <point x="465" y="353" type="line"/>
      <point x="507" y="345"/>
      <point x="579" y="314"/>
      <point x="579" y="214" type="curve" smooth="yes"/>
      <point x="579" y="81"/>
      <point x="478" y="0"/>
      <point x="361" y="0" type="curve" smooth="yes"/>
      <point x="51" y="0" type="line"/>
    </contour>
    <contour>
      <point x="233" y="597" type="line"/>
      <point x="205" y="394" type="line"/>
      <point x="391" y="394" type="line" smooth="yes"/>
      <point x="451" y="394"/>
      <point x="508" y="447"/>
      <point x="508" y="509" type="curve" smooth="yes"/>
      <point x="508" y="573"/>
      <point x="470" y="597"/>
      <point x="419" y="597" type="curve" smooth="yes"/>
    </contour>
    <contour>
      <point x="192" y="305" type="line"/>
      <point x="162" y="89" type="line"/>
      <point x="358" y="89" type="line" smooth="yes"/>
      <point x="423" y="89"/>
      <point x="482" y="129"/>
      <point x="482" y="212" type="curve" smooth="yes"/>
      <point x="482" y="265"/>
      <point x="444" y="305"/>
      <point x="388" y="305" type="curve" smooth="yes"/>
    </contour>
  </outline>
</glyph>
<glyph name="E" format="1">
  <advance width="592"/>
  <unicode hex="0045"/>
  <outline>
    <contour>
      <point x="572" y="597" type="line"/>
      <point x="233" y="597" type="line"/>
      <point x="205" y="395" type="line"/>
      <point x="512" y="395" type="line"/>
      <point x="499" y="306" type="line"/>
      <point x="192" y="306" type="line"/>
      <point x="162" y="89" type="line"/>
      <point x="507" y="89" type="line"/>
      <point x="507" y="0" type="line"/>
      <point x="51" y="0" type="line"/>
      <point x="148" y="686" type="line"/>
      <point x="598" y="686" type="line"/>
    </contour>
    <contour>
      <point x="296" y="0" type="move" name="Bottom"/>
    </contour>
  </outline>
</glyph>
<glyph name="F" format="1">
  <advance width="552"/>
  <unicode hex="0046"/>
  <outline>
    <contour>
      <point x="554" y="597" type="line"/>
      <point x="233" y="597" type="line"/>
      <point x="204" y="388" type="line"/>
      <point x="484" y="388" type="line"/>
      <point x="471" y="299" type="line"/>
      <point x="191" y="299" type="line"/>
      <point x="149" y="0" type="line"/>
      <point x="51" y="0" type="line"/>
      <point x="148" y="686" type="line"/>
      <point x="580" y="686" type="line"/>
    </contour>
  </outline>
</glyph>
<glyph name="G" format="1">
  <advance width="675"/>
  <unicode hex="0047"/>
  <outline>
    <contour>
      <point x="400" y="696" type="curve" smooth="yes"/>
      <point x="530" y="696"/>
      <point x="631" y="627"/>
      <point x="631" y="489" type="curve" smooth="yes"/>
      <point x="631" y="474"/>
      <point x="630" y="460"/>
      <point x="628" y="445" type="curve"/>
      <point x="530" y="445" type="line"/>
      <point x="531" y="456"/>
      <point x="532" y="467"/>
      <point x="532" y="478" type="curve" smooth="yes"/>
      <point x="532" y="569"/>
      <point x="471" y="607"/>
      <point x="388" y="607" type="curve" smooth="yes"/>
      <point x="279" y="607"/>
      <point x="195" y="544"/>
      <point x="173" y="388" type="curve" smooth="yes"/>
      <point x="157" y="279"/>
      <point x="156" y="258"/>
      <point x="156" y="241" type="curve" smooth="yes"/>
      <point x="156" y="126"/>
      <point x="217" y="79"/>
      <point x="313" y="79" type="curve" smooth="yes"/>
      <point x="429" y="79"/>
      <point x="486" y="133"/>
      <point x="506" y="261" type="curve" smooth="yes"/>
      <point x="508" y="274" type="line"/>
      <point x="314" y="274" type="line"/>
      <point x="326" y="362" type="line"/>
      <point x="616" y="362" type="line"/>
      <point x="583" y="128" type="line" smooth="yes"/>
      <point x="572" y="66"/>
      <point x="571" y="25"/>
      <point x="571" y="0" type="curve"/>
      <point x="513" y="0" type="line"/>
      <point x="510" y="8"/>
      <point x="506" y="35"/>
      <point x="505" y="82" type="curve"/>
      <point x="453" y="21"/>
      <point x="382" y="-10"/>
      <point x="301" y="-10" type="curve" smooth="yes"/>
      <point x="156" y="-10"/>
      <point x="57" y="69"/>
      <point x="57" y="232" type="curve" smooth="yes"/>
      <point x="57" y="253"/>
      <point x="58" y="275"/>
      <point x="75" y="388" type="curve" smooth="yes"/>
      <point x="105" y="597"/>
      <point x="221" y="696"/>
    </contour>
    <contour>
      <point x="338" y="0" type="move" name="Bottom"/>
    </contour>
  </outline>
</glyph>
<glyph name="H" format="1">
  <advance width="693"/>
  <unicode hex="0048"/>
  <outline>
    <contour>
      <point x="560" y="0" type="line"/>
      <point x="462" y="0" type="line"/>
      <point x="505" y="306" type="line"/>
      <point x="192" y="306" type="line"/>
      <point x="149" y="0" type="line"/>
      <point x="51" y="0" type="line"/>
      <point x="148" y="686" type="line"/>
      <point x="246" y="686" type="line"/>
      <point x="205" y="395" type="line"/>
      <point x="518" y="395" type="line"/>
      <point x="559" y="686" type="line"/>
      <point x="657" y="686" type="line"/>
    </contour>
  </outline>
</glyph>
<glyph name="I" format="1">
  <advance width="365"/>
  <unicode hex="0049"/>
  <outline>
    <contour>
      <point x="354" y="597" type="line"/>
      <point x="274" y="597" type="line"/>
      <point x="203" y="89" type="line"/>
      <point x="283" y="89" type="line"/>
      <point x="270" y="0" type="line"/>
      <point x="12" y="0" type="line"/>
      <point x="25" y="89" type="line"/>
      <point x="105" y="89" type="line"/>
      <point x="176" y="597" type="line"/>
      <point x="96" y="597" type="line"/>
      <point x="109" y="686" type="line"/>
      <point x="367" y="686" type="line"/>
    </contour>
  </outline>
</glyph>
<glyph name="J" format="1">
  <advance width="525"/>
  <unicode hex="004A"/>
  <outline>
    <contour>
      <point x="492" y="686" type="line"/>
      <point x="422" y="187" type="line" smooth="yes"/>
      <point x="403" y="55"/>
      <point x="320" y="-10"/>
      <point x="192" y="-10" type="curve" smooth="yes"/>
      <point x="183" y="-10" type="line" smooth="yes"/>
      <point x="93" y="-10"/>
      <point x="10" y="43"/>
      <point x="10" y="149" type="curve" smooth="yes"/>
      <point x="10" y="161"/>
      <point x="9" y="176"/>
      <point x="16" y="208" type="curve"/>
      <point x="113" y="208" type="line"/>
      <point x="108" y="185"/>
      <point x="108" y="171"/>
      <point x="108" y="166" type="curve" smooth="yes"/>
      <point x="108" y="114"/>
      <point x="147" y="79"/>
      <point x="199" y="79" type="curve" smooth="yes"/>
      <point x="266" y="79"/>
      <point x="314" y="118"/>
      <point x="323" y="181" type="curve" smooth="yes"/>
      <point x="394" y="686" type="line"/>
    </contour>
  </outline>
</glyph>
<glyph name="L" format="1">
  <advance width="532"/>
  <unicode hex="004C"/>
  <outline>
    <contour>
      <point x="162" y="89" type="line"/>
      <point x="477" y="89" type="line"/>
      <point x="477" y="0" type="line"/>
      <point x="51" y="0" type="line"/>
      <point x="148" y="686" type="line"/>
      <point x="246" y="686" type="line"/>
    </contour>
    <contour>
      <point x="266" y="0" type="move" name="Bottom"/>
    </contour>
  </outline>
</glyph>
<glyph name="M" format="1">
  <advance width="938"/>
  <unicode hex="004D"/>
  <outline>
    <contour>
      <point x="805" y="0" type="line"/>
      <point x="707" y="0" type="line"/>
      <point x="788" y="571" type="line"/>
      <point x="782" y="571" type="line"/>
      <point x="464" y="0" type="line"/>
      <point x="381" y="0" type="line"/>
      <point x="226" y="571" type="line"/>
      <point x="221" y="571" type="line"/>
      <point x="140" y="0" type="line"/>
      <point x="51" y="0" type="line"/>
      <point x="148" y="686" type="line"/>
      <point x="302" y="686" type="line"/>
      <point x="447" y="146" type="line"/>
      <point x="451" y="146" type="line"/>
      <point x="749" y="686" type="line"/>
      <point x="902" y="686" type="line"/>
    </contour>
  </outline>
</glyph>
<glyph name="P" format="1">
  <advance width="626"/>
  <unicode hex="0050"/>
  <outline>
    <contour>
      <point x="148" y="686" type="line"/>
      <point x="444" y="686" type="line" smooth="yes"/>
      <point x="547" y="686"/>
      <point x="623" y="620"/>
      <point x="623" y="517" type="curve" smooth="yes"/>
      <point x="623" y="378"/>
      <point x="527" y="286"/>
      <point x="387" y="286" type="curve" smooth="yes"/>
      <point x="189" y="286" type="line"/>
      <point x="149" y="0" type="line"/>
      <point x="51" y="0" type="line"/>
    </contour>
    <contour>
      <point x="233" y="597" type="line"/>
      <point x="202" y="375" type="line"/>
      <point x="391" y="375" type="line" smooth="yes"/>
      <point x="459" y="375"/>
      <point x="524" y="433"/>
      <point x="524" y="500" type="curve" smooth="yes"/>
      <point x="524" y="556"/>
      <point x="482" y="597"/>
      <point x="422" y="597" type="curve" smooth="yes"/>
    </contour>
  </outline>
</glyph>
<glyph name="Q" format="1">
  <advance width="690"/>
  <unicode hex="0051"/>
  <outline>
    <contour>
      <point x="402" y="696" type="curve" smooth="yes"/>
      <point x="542" y="696"/>
      <point x="647" y="616"/>
      <point x="647" y="450" type="curve" smooth="yes"/>
      <point x="647" y="431"/>
      <point x="646" y="410"/>
      <point x="630" y="298" type="curve" smooth="yes"/>
      <point x="603" y="114"/>
      <point x="501" y="14"/>
      <point x="360" y="-6" type="curve"/>
      <point x="363" y="-35"/>
      <point x="387" y="-70"/>
      <point x="450" y="-70" type="curve" smooth="yes"/>
      <point x="487" y="-70"/>
      <point x="534" y="-54"/>
      <point x="558" y="-46" type="curve" smooth="yes"/>
      <point x="571" y="-42" type="line"/>
      <point x="561" y="-112" type="line"/>
      <point x="534" y="-128"/>
      <point x="487" y="-145"/>
      <point x="424" y="-145" type="curve" smooth="yes"/>
      <point x="340" y="-145"/>
      <point x="263" y="-102"/>
      <point x="263" y="-8" type="curve"/>
      <point x="140" y="5"/>
      <point x="57" y="85"/>
      <point x="57" y="235" type="curve" smooth="yes"/>
      <point x="56" y="264"/>
      <point x="60" y="276"/>
      <point x="75" y="388" type="curve" smooth="yes"/>
      <point x="103" y="596"/>
      <point x="233" y="696"/>
    </contour>
    <contour>
      <point x="390" y="607" type="curve" smooth="yes"/>
      <point x="280" y="607"/>
      <point x="195" y="544"/>
      <point x="173" y="388" type="curve" smooth="yes"/>
      <point x="158" y="278"/>
      <point x="156" y="260"/>
      <point x="156" y="244" type="curve" smooth="yes"/>
      <point x="156" y="127"/>
      <point x="220" y="79"/>
      <point x="315" y="79" type="curve" smooth="yes"/>
      <point x="423" y="79"/>
      <point x="508" y="142"/>
      <point x="532" y="298" type="curve" smooth="yes"/>
      <point x="548" y="406"/>
      <point x="549" y="426"/>
      <point x="549" y="442" type="curve" smooth="yes"/>
      <point x="549" y="558"/>
      <point x="484" y="607"/>
    </contour>
  </outline>
</glyph>
<glyph name="R" format="1">
  <advance width="670"/>
  <unicode hex="0052"/>
  <outline>
    <contour>
      <point x="147" y="686" type="line"/>
      <point x="439" y="686" type="line" smooth="yes"/>
      <point x="539" y="686"/>
      <point x="625" y="642"/>
      <point x="625" y="543" type="curve" smooth="yes"/>
      <point x="625" y="461"/>
      <point x="573" y="370"/>
      <point x="477" y="354" type="curve"/>
      <point x="477" y="349" type="line"/>
      <point x="495" y="341"/>
      <point x="563" y="309"/>
      <point x="563" y="202" type="curve" smooth="yes"/>
      <point x="563" y="171"/>
      <point x="555" y="128"/>
      <point x="555" y="104" type="curve" smooth="yes"/>
      <point x="555" y="56"/>
      <point x="570" y="40"/>
      <point x="593" y="31" type="curve"/>
      <point x="589" y="3" type="line"/>
      <point x="578" y="-1"/>
      <point x="557" y="-5"/>
      <point x="536" y="-5" type="curve" smooth="yes"/>
      <point x="493" y="-5"/>
      <point x="454" y="10"/>
      <point x="454" y="85" type="curve" smooth="yes"/>
      <point x="454" y="110"/>
      <point x="461" y="157"/>
      <point x="461" y="173" type="curve" smooth="yes"/>
      <point x="461" y="273"/>
      <point x="408" y="302"/>
      <point x="365" y="302" type="curve" smooth="yes"/>
      <point x="191" y="302" type="line"/>
      <point x="149" y="0" type="line"/>
      <point x="51" y="0" type="line"/>
    </contour>
    <contour>
      <point x="233" y="597" type="line"/>
      <point x="204" y="391" type="line"/>
      <point x="399" y="391" type="line" smooth="yes"/>
      <point x="459" y="391"/>
      <point x="523" y="442"/>
      <point x="523" y="511" type="curve" smooth="yes"/>
      <point x="523" y="562"/>
      <point x="488" y="597"/>
      <point x="428" y="597" type="curve" smooth="yes"/>
    </contour>
    <contour>
      <point x="335" y="0" type="move" name="Bottom"/>
    </contour>
  </outline>
</glyph>
<glyph name="S" format="1">
  <advance width="629"/>
  <unicode hex="0053"/>
  <outline>
    <contour>
      <point x="371" y="696" type="curve" smooth="yes"/>
      <point x="493" y="696"/>
      <point x="588" y="649"/>
      <point x="588" y="536" type="curve" smooth="yes"/>
      <point x="588" y="525"/>
      <point x="588" y="515"/>
      <point x="584" y="492" type="curve"/>
      <point x="486" y="492" type="line"/>
      <point x="490" y="512"/>
      <point x="490" y="516"/>
      <point x="490" y="520" type="curve" smooth="yes"/>
      <point x="490" y="577"/>
      <point x="437" y="607"/>
      <point x="361" y="607" type="curve" smooth="yes"/>
      <point x="271" y="607"/>
      <point x="197" y="575"/>
      <point x="197" y="504" type="curve" smooth="yes"/>
      <point x="197" y="357"/>
      <point x="564" y="446"/>
      <point x="564" y="211" type="curve" smooth="yes"/>
      <point x="564" y="48"/>
      <point x="440" y="-10"/>
      <point x="271" y="-10" type="curve" smooth="yes"/>
      <point x="141" y="-10"/>
      <point x="36" y="36"/>
      <point x="36" y="160" type="curve" smooth="yes"/>
      <point x="36" y="177"/>
      <point x="39" y="203"/>
      <point x="43" y="215" type="curve"/>
      <point x="141" y="215" type="line"/>
      <point x="136" y="210"/>
      <point x="135" y="183"/>
      <point x="135" y="175" type="curve" smooth="yes"/>
      <point x="135" y="108"/>
      <point x="194" y="79"/>
      <point x="278" y="79" type="curve" smooth="yes"/>
      <point x="390" y="79"/>
      <point x="463" y="120"/>
      <point x="463" y="201" type="curve" smooth="yes"/>
      <point x="463" y="354"/>
      <point x="97" y="261"/>
      <point x="97" y="499" type="curve" smooth="yes"/>
      <point x="97" y="634"/>
      <point x="216" y="696"/>
    </contour>
    <contour>
      <point x="285" y="0" type="move" name="Bottom"/>
    </contour>
  </outline>
</glyph>
<glyph name="T" format="1">
  <advance width="575"/>
  <unicode hex="0054"/>
  <outline>
    <contour>
      <point x="594" y="597" type="line"/>
      <point x="379" y="597" type="line"/>
      <point x="295" y="0" type="line"/>
      <point x="197" y="0" type="line"/>
      <point x="281" y="597" type="line"/>
      <point x="67" y="597" type="line"/>
      <point x="80" y="686" type="line"/>
      <point x="607" y="686" type="line"/>
    </contour>
    <contour>
      <point x="246" y="0" type="move" name="Bottom"/>
    </contour>
  </outline>
</glyph>
<glyph name="V" format="1">
  <advance width="602"/>
  <unicode hex="0056"/>
  <outline>
    <contour>
      <point x="310" y="0" type="line"/>
      <point x="205" y="0" type="line"/>
      <point x="59" y="686" type="line"/>
      <point x="163" y="686" type="line"/>
      <point x="278" y="133" type="line"/>
      <point x="284" y="133" type="line"/>
      <point x="556" y="686" type="line"/>
      <point x="651" y="686" type="line"/>
    </contour>
  </outline>
</glyph>
<glyph name="W" format="1">
  <advance width="914"/>
  <unicode hex="0057"/>
  <outline>
    <contour>
      <point x="657" y="0" type="line"/>
      <point x="557" y="0" type="line"/>
      <point x="487" y="496" type="line"/>
      <point x="480" y="496" type="line"/>
      <point x="265" y="0" type="line"/>
      <point x="165" y="0" type="line"/>
      <point x="67" y="686" type="line"/>
      <point x="171" y="686" type="line"/>
      <point x="243" y="169" type="line"/>
      <point x="249" y="169" type="line"/>
      <point x="468" y="686" type="line"/>
      <point x="563" y="686" type="line"/>
      <point x="635" y="169" type="line"/>
      <point x="641" y="169" type="line"/>
      <point x="860" y="686" type="line"/>
      <point x="955" y="686" type="line"/>
    </contour>
  </outline>
</glyph>
<glyph name="X" format="1">
  <advance width="628"/>
  <unicode hex="0058"/>
  <outline>
    <contour>
      <point x="654" y="685" type="line"/>
      <point x="630" y="658" type="line" smooth="yes"/>
      <point x="583" y="605"/>
      <point x="486" y="484"/>
      <point x="381" y="361" type="curve"/>
      <point x="579" y="0" type="line"/>
      <point x="461" y="0" type="line"/>
      <point x="310" y="276" type="line"/>
      <point x="207" y="157"/>
      <point x="135" y="67"/>
      <point x="76" y="0" type="curve"/>
      <point x="-32" y="0" type="line"/>
      <point x="267" y="355" type="line"/>
      <point x="88" y="685" type="line"/>
      <point x="205" y="685" type="line"/>
      <point x="338" y="440" type="line"/>
      <point x="422" y="538"/>
      <point x="495" y="627"/>
      <point x="528" y="665" type="curve" smooth="yes"/>
      <point x="545" y="685" type="line"/>
    </contour>
  </outline>
</glyph>
<glyph name="bracketleft" format="1">
  <advance width="294"/>
  <unicode hex="005B"/>
  <outline>
    <contour>
      <point x="302" y="631" type="line"/>
      <point x="214" y="631" type="line"/>
      <point x="111" y="-106" type="line"/>
      <point x="199" y="-106" type="line"/>
      <point x="191" y="-161" type="line"/>
      <point x="22" y="-161" type="line"/>
      <point x="141" y="686" type="line"/>
      <point x="310" y="686" type="line"/>
    </contour>
  </outline>
</glyph>
<glyph name="backslash" format="1">
  <advance width="593"/>
  <unicode hex="005C"/>
  <outline>
    <contour>
      <point x="515" y="-171" type="line"/>
      <point x="434" y="-171" type="line"/>
      <point x="68" y="686" type="line"/>
      <point x="147" y="686" type="line"/>
    </contour>
  </outline>
</glyph>
<glyph name="bracketright" format="1">
  <advance width="294"/>
  <unicode hex="005D"/>
  <outline>
    <contour>
      <point x="145" y="-161" type="line"/>
      <point x="-24" y="-161" type="line"/>
      <point x="-16" y="-106" type="line"/>
      <point x="72" y="-106" type="line"/>
      <point x="175" y="631" type="line"/>
      <point x="87" y="631" type="line"/>
      <point x="95" y="686" type="line"/>
      <point x="264" y="686" type="line"/>
    </contour>
  </outline>
</glyph>
<glyph name="underscore" format="1">
  <advance width="687"/>
  <unicode hex="005F"/>
  <outline>
    <contour>
      <point x="533" y="-124" type="line"/>
      <point x="35" y="-124" type="line"/>
      <point x="43" y="-64" type="line"/>
      <point x="542" y="-64" type="line"/>
    </contour>
  </outline>
</glyph>
<glyph name="grave" format="1">
  <advance width="333"/>
  <unicode hex="0060"/>
  <outline>
    <contour>
      <point x="241" y="575" type="line"/>
      <point x="171" y="575" type="line"/>
      <point x="76" y="717" type="line"/>
      <point x="78" y="720" type="line"/>
      <point x="167" y="720" type="line"/>
    </contour>
  </outline>
</glyph>
<glyph name="b" format="1">
  <advance width="582"/>
  <unicode hex="0062"/>
  <outline>
    <contour>
      <point x="237" y="720" type="line"/>
      <point x="198" y="446" type="line"/>
      <point x="233" y="487"/>
      <point x="291" y="521"/>
      <point x="363" y="521" type="curve" smooth="yes"/>
      <point x="460" y="521"/>
      <point x="531" y="454"/>
      <point x="531" y="325" type="curve" smooth="yes"/>
      <point x="531" y="184"/>
      <point x="466" y="-10"/>
      <point x="281" y="-10" type="curve" smooth="yes"/>
      <point x="205" y="-10"/>
      <point x="152" y="20"/>
      <point x="122" y="81" type="curve"/>
      <point x="78" y="0" type="line"/>
      <point x="42" y="0" type="line"/>
      <point x="143" y="720" type="line"/>
    </contour>
    <contour>
      <point x="327" y="446" type="curve" smooth="yes"/>
      <point x="204" y="446"/>
      <point x="165" y="313"/>
      <point x="165" y="193" type="curve" smooth="yes"/>
      <point x="165" y="97"/>
      <point x="207" y="65"/>
      <point x="274" y="65" type="curve" smooth="yes"/>
      <point x="374" y="65"/>
      <point x="436" y="151"/>
      <point x="436" y="318" type="curve" smooth="yes"/>
      <point x="436" y="414"/>
      <point x="392" y="446"/>
    </contour>
  </outline>
</glyph>
<glyph name="h" format="1">
  <advance width="593"/>
  <unicode hex="0068"/>
  <outline>
    <contour>
      <point x="237" y="720" type="line"/>
      <point x="199" y="447" type="line"/>
      <point x="251" y="500"/>
      <point x="310" y="521"/>
      <point x="367" y="521" type="curve" smooth="yes"/>
      <point x="458" y="521"/>
      <point x="525" y="478"/>
      <point x="525" y="380" type="curve" smooth="yes"/>
      <point x="525" y="362"/>
      <point x="512" y="268"/>
      <point x="499" y="177" type="curve" smooth="yes"/>
      <point x="474" y="0" type="line"/>
      <point x="380" y="0" type="line"/>
      <point x="404" y="167" type="line" smooth="yes"/>
      <point x="416" y="252"/>
      <point x="427" y="342"/>
      <point x="428" y="356" type="curve" smooth="yes"/>
      <point x="428" y="420"/>
      <point x="391" y="446"/>
      <point x="335" y="446" type="curve" smooth="yes"/>
      <point x="264" y="446"/>
      <point x="190" y="384"/>
      <point x="179" y="304" type="curve" smooth="yes"/>
      <point x="136" y="0" type="line"/>
      <point x="42" y="0" type="line"/>
      <point x="143" y="720" type="line"/>
    </contour>
  </outline>
</glyph>
<glyph name="i" format="1">
  <advance width="260"/>
  <unicode hex="0069"/>
  <outline>
    <contour>
      <point x="227" y="633" type="line"/>
      <point x="129" y="633" type="line"/>
      <point x="141" y="720" type="line"/>
      <point x="239" y="720" type="line"/>
    </contour>
    <contour>
      <point x="136" y="0" type="line"/>
      <point x="42" y="0" type="line"/>
      <point x="114" y="511" type="line"/>
      <point x="208" y="511" type="line"/>
    </contour>
  </outline>
</glyph>
<glyph name="j" format="1">
  <advance width="260"/>
  <unicode hex="006A"/>
  <outline>
    <contour>
      <point x="227" y="633" type="line"/>
      <point x="129" y="633" type="line"/>
      <point x="141" y="720" type="line"/>
      <point x="239" y="720" type="line"/>
    </contour>
    <contour>
      <point x="208" y="511" type="line"/>
      <point x="134" y="-15" type="line" smooth="yes"/>
      <point x="117" y="-134"/>
      <point x="78" y="-186"/>
      <point x="-14" y="-186" type="curve" smooth="yes"/>
      <point x="-42" y="-186"/>
      <point x="-77" y="-179"/>
      <point x="-96" y="-167" type="curve"/>
      <point x="-87" y="-97" type="line"/>
      <point x="-72" y="-104"/>
      <point x="-44" y="-112"/>
      <point x="-29" y="-112" type="curve" smooth="yes"/>
      <point x="-3" y="-112"/>
      <point x="28" y="-103"/>
      <point x="36" y="-44" type="curve" smooth="yes"/>
      <point x="114" y="511" type="line"/>
    </contour>
  </outline>
</glyph>
<glyph name="k" format="1">
  <advance width="534"/>
  <unicode hex="006B"/>
  <outline>
    <contour>
      <point x="168" y="226" type="line"/>
      <point x="436" y="511" type="line"/>
      <point x="539" y="511" type="line"/>
      <point x="307" y="263" type="line"/>
      <point x="480" y="0" type="line"/>
      <point x="366" y="0" type="line"/>
      <point x="240" y="190" type="line"/>
      <point x="151" y="110" type="line"/>
      <point x="136" y="0" type="line"/>
      <point x="42" y="0" type="line"/>
      <point x="143" y="720" type="line"/>
      <point x="237" y="720" type="line"/>
    </contour>
    <contour>
      <point x="267" y="0" type="move" name="Bottom"/>
    </contour>
  </outline>
</glyph>
<glyph name="l" format="1">
  <advance width="268"/>
  <unicode hex="006C"/>
  <outline>
    <contour>
      <point x="140" y="0" type="line"/>
      <point x="46" y="0" type="line"/>
      <point x="147" y="720" type="line"/>
      <point x="241" y="720" type="line"/>
    </contour>
    <contour>
      <point x="93" y="0" type="move" name="Bottom"/>
    </contour>
  </outline>
</glyph>
<glyph name="m" format="1">
  <advance width="867"/>
  <unicode hex="006D"/>
  <outline>
    <contour>
      <point x="657" y="521" type="curve" smooth="yes"/>
      <point x="740" y="521"/>
      <point x="799" y="479"/>
      <point x="799" y="384" type="curve" smooth="yes"/>
      <point x="799" y="364"/>
      <point x="786" y="268"/>
      <point x="773" y="177" type="curve" smooth="yes"/>
      <point x="748" y="0" type="line"/>
      <point x="654" y="0" type="line"/>
      <point x="678" y="170" type="line" smooth="yes"/>
      <point x="689" y="258"/>
      <point x="702" y="346"/>
      <point x="702" y="361" type="curve" smooth="yes"/>
      <point x="702" y="428"/>
      <point x="673" y="446"/>
      <point x="625" y="446" type="curve" smooth="yes"/>
      <point x="561" y="446"/>
      <point x="496" y="384"/>
      <point x="485" y="304" type="curve" smooth="yes"/>
      <point x="442" y="0" type="line"/>
      <point x="348" y="0" type="line"/>
      <point x="372" y="171" type="line" smooth="yes"/>
      <point x="384" y="258"/>
      <point x="396" y="348"/>
      <point x="397" y="361" type="curve" smooth="yes"/>
      <point x="397" y="422"/>
      <point x="367" y="446"/>
      <point x="319" y="446" type="curve" smooth="yes"/>
      <point x="255" y="446"/>
      <point x="190" y="384"/>
      <point x="179" y="304" type="curve" smooth="yes"/>
      <point x="136" y="0" type="line"/>
      <point x="42" y="0" type="line"/>
      <point x="114" y="511" type="line"/>
      <point x="184" y="511" type="line"/>
      <point x="184" y="436" type="line"/>
      <point x="236" y="497"/>
      <point x="294" y="521"/>
      <point x="351" y="521" type="curve" smooth="yes"/>
      <point x="418" y="521"/>
      <point x="466" y="495"/>
      <point x="485" y="436" type="curve"/>
      <point x="544" y="505"/>
      <point x="601" y="521"/>
    </contour>
  </outline>
</glyph>
<glyph name="n" format="1">
  <advance width="593"/>
  <unicode hex="006E"/>
  <outline>
    <contour>
      <point x="367" y="521" type="curve" smooth="yes"/>
      <point x="458" y="521"/>
      <point x="525" y="478"/>
      <point x="525" y="380" type="curve" smooth="yes"/>
      <point x="525" y="364"/>
      <point x="512" y="268"/>
      <point x="499" y="178" type="curve" smooth="yes"/>
      <point x="474" y="0" type="line"/>
      <point x="380" y="0" type="line"/>
      <point x="404" y="167" type="line" smooth="yes"/>
      <point x="415" y="253"/>
      <point x="428" y="340"/>
      <point x="428" y="356" type="curve" smooth="yes"/>
      <point x="428" y="420"/>
      <point x="391" y="446"/>
      <point x="335" y="446" type="curve" smooth="yes"/>
      <point x="264" y="446"/>
      <point x="190" y="384"/>
      <point x="179" y="304" type="curve" smooth="yes"/>
      <point x="136" y="0" type="line"/>
      <point x="42" y="0" type="line"/>
      <point x="114" y="511" type="line"/>
      <point x="184" y="511" type="line"/>
      <point x="184" y="436" type="line"/>
      <point x="240" y="497"/>
      <point x="304" y="521"/>
    </contour>
    <contour>
      <point x="258" y="0" type="move" name="Bottom"/>
    </contour>
  </outline>
</glyph>
<glyph name="q" format="1">
  <advance width="582"/>
  <unicode hex="0071"/>
  <outline>
    <contour>
      <point x="291" y="521" type="curve" smooth="yes"/>
      <point x="366" y="521"/>
      <point x="419" y="491"/>
      <point x="450" y="430" type="curve"/>
      <point x="494" y="511" type="line"/>
      <point x="530" y="511" type="line"/>
      <point x="433" y="-180" type="line"/>
      <point x="339" y="-180" type="line"/>
      <point x="374" y="65" type="line"/>
      <point x="339" y="24"/>
      <point x="281" y="-10"/>
      <point x="209" y="-10" type="curve" smooth="yes"/>
      <point x="113" y="-10"/>
      <point x="40" y="57"/>
      <point x="40" y="185" type="curve" smooth="yes"/>
      <point x="40" y="328"/>
      <point x="104" y="521"/>
    </contour>
    <contour>
      <point x="298" y="446" type="curve" smooth="yes"/>
      <point x="203" y="446"/>
      <point x="136" y="364"/>
      <point x="136" y="193" type="curve" smooth="yes"/>
      <point x="136" y="97"/>
      <point x="178" y="65"/>
      <point x="245" y="65" type="curve" smooth="yes"/>
      <point x="374" y="65"/>
      <point x="407" y="210"/>
      <point x="407" y="317" type="curve" smooth="yes"/>
      <point x="407" y="414"/>
      <point x="363" y="446"/>
    </contour>
  </outline>
</glyph>
<glyph name="s" format="1">
  <advance width="536"/>
  <unicode hex="0073"/>
  <outline>
    <contour>
      <point x="302" y="521" type="curve" smooth="yes"/>
      <point x="311" y="521" type="line" smooth="yes"/>
      <point x="423" y="521"/>
      <point x="487" y="466"/>
      <point x="487" y="398" type="curve" smooth="yes"/>
      <point x="487" y="387"/>
      <point x="486" y="373"/>
      <point x="483" y="364" type="curve"/>
      <point x="390" y="364" type="line"/>
      <point x="390" y="370"/>
      <point x="392" y="378"/>
      <point x="392" y="383" type="curve" smooth="yes"/>
      <point x="392" y="416"/>
      <point x="367" y="446"/>
      <point x="288" y="446" type="curve" smooth="yes"/>
      <point x="186" y="446"/>
      <point x="166" y="398"/>
      <point x="166" y="371" type="curve" smooth="yes"/>
      <point x="166" y="269"/>
      <point x="468" y="343"/>
      <point x="468" y="168" type="curve" smooth="yes"/>
      <point x="468" y="35"/>
      <point x="359" y="-10"/>
      <point x="226" y="-10" type="curve" smooth="yes"/>
      <point x="211" y="-10" type="line" smooth="yes"/>
      <point x="79" y="-10"/>
      <point x="23" y="53"/>
      <point x="23" y="121" type="curve" smooth="yes"/>
      <point x="23" y="144"/>
      <point x="28" y="157"/>
      <point x="28" y="160" type="curve" smooth="yes"/>
      <point x="121" y="160" type="line"/>
      <point x="120" y="152"/>
      <point x="119" y="147"/>
      <point x="119" y="144" type="curve" smooth="yes"/>
      <point x="119" y="137" type="line" smooth="yes"/>
      <point x="119" y="86"/>
      <point x="171" y="65"/>
      <point x="239" y="65" type="curve" smooth="yes"/>
      <point x="311" y="65"/>
      <point x="371" y="93"/>
      <point x="371" y="147" type="curve" smooth="yes"/>
      <point x="371" y="261"/>
      <point x="69" y="180"/>
      <point x="69" y="355" type="curve" smooth="yes"/>
      <point x="69" y="458"/>
      <point x="153" y="521"/>
    </contour>
    <contour>
      <point x="268" y="0" type="move" name="Bottom"/>
    </contour>
  </outline>
</glyph>
<glyph name="v" format="1">
  <advance width="512"/>
  <unicode hex="0076"/>
  <outline>
    <contour>
      <point x="265" y="0" type="line"/>
      <point x="165" y="0" type="line"/>
      <point x="43" y="511" type="line"/>
      <point x="142" y="511" type="line"/>
      <point x="233" y="120" type="line"/>
      <point x="237" y="120" type="line"/>
      <point x="438" y="511" type="line"/>
      <point x="530" y="511" type="line"/>
    </contour>
  </outline>
</glyph>
<glyph name="w" format="1">
  <advance width="809"/>
  <unicode hex="0077"/>
  <outline>
    <contour>
      <point x="580" y="0" type="line"/>
      <point x="482" y="0" type="line"/>
      <point x="414" y="357" type="line"/>
      <point x="410" y="357" type="line"/>
      <point x="244" y="0" type="line"/>
      <point x="146" y="0" type="line"/>
      <point x="50" y="511" type="line"/>
      <point x="146" y="511" type="line"/>
      <point x="213" y="137" type="line"/>
      <point x="217" y="137" type="line"/>
      <point x="390" y="511" type="line"/>
      <point x="482" y="511" type="line"/>
      <point x="549" y="137" type="line"/>
      <point x="553" y="137" type="line"/>
      <point x="726" y="511" type="line"/>
      <point x="818" y="511" type="line"/>
    </contour>
  </outline>
</glyph>
<glyph name="x" format="1">
  <advance width="517"/>
  <unicode hex="0078"/>
  <outline>
    <contour>
      <point x="308" y="265" type="line"/>
      <point x="459" y="0" type="line"/>
      <point x="347" y="0" type="line"/>
      <point x="240" y="187" type="line"/>
      <point x="79" y="0" type="line"/>
      <point x="-23" y="0" type="line"/>
      <point x="200" y="259" type="line"/>
      <point x="58" y="511" type="line"/>
      <point x="169" y="511" type="line"/>
      <point x="268" y="337" type="line"/>
      <point x="418" y="511" type="line"/>
      <point x="521" y="511" type="line"/>
    </contour>
  </outline>
</glyph>
<glyph name="z" format="1">
  <advance width="463"/>
  <unicode hex="007A"/>
  <outline>
    <contour>
      <point x="441" y="474" type="line"/>
      <point x="135" y="75" type="line"/>
      <point x="393" y="75" type="line"/>
      <point x="383" y="0" type="line"/>
      <point x="-4" y="0" type="line"/>
      <point x="1" y="38" type="line"/>
      <point x="306" y="436" type="line"/>
      <point x="72" y="436" type="line"/>
      <point x="82" y="511" type="line"/>
      <point x="446" y="511" type="line"/>
    </contour>
  </outline>
</glyph>
<glyph name="braceleft" format="1">
  <advance width="314"/>
  <unicode hex="007B"/>
  <outline>
    <contour>
      <point x="330" y="686" type="curve"/>
      <point x="323" y="636" type="line"/>
      <point x="287" y="636"/>
      <point x="242" y="623"/>
      <point x="234" y="565" type="curve" smooth="yes"/>
      <point x="225" y="500"/>
      <point x="212" y="436"/>
      <point x="200" y="371" type="curve" smooth="yes"/>
      <point x="188" y="306"/>
      <point x="160" y="268"/>
      <point x="96" y="268" type="curve"/>
      <point x="95" y="259" type="line"/>
      <point x="151" y="259"/>
      <point x="170" y="231"/>
      <point x="170" y="182" type="curve" smooth="yes"/>
      <point x="170" y="143"/>
      <point x="164" y="98"/>
      <point x="159" y="55" type="curve" smooth="yes"/>
      <point x="152" y="-5" type="line" smooth="yes"/>
      <point x="150" y="-24"/>
      <point x="147" y="-39"/>
      <point x="148" y="-52" type="curve" smooth="yes"/>
      <point x="148" y="-97"/>
      <point x="186" y="-109"/>
      <point x="218" y="-109" type="curve"/>
      <point x="211" y="-159" type="line"/>
      <point x="136" y="-159"/>
      <point x="70" y="-143"/>
      <point x="70" y="-52" type="curve" smooth="yes"/>
      <point x="70" y="11"/>
      <point x="99" y="128"/>
      <point x="99" y="175" type="curve" smooth="yes"/>
      <point x="99" y="211"/>
      <point x="63" y="224"/>
      <point x="30" y="224" type="curve"/>
      <point x="41" y="303" type="line"/>
      <point x="78" y="303"/>
      <point x="120" y="317"/>
      <point x="126" y="360" type="curve" smooth="yes"/>
      <point x="152" y="546" type="line" smooth="yes"/>
      <point x="169" y="666"/>
      <point x="246" y="686"/>
    </contour>
  </outline>
</glyph>
<glyph name="bar" format="1">
  <advance width="290"/>
  <unicode hex="007C"/>
  <outline>
    <contour>
      <point x="182" y="-199" type="line"/>
      <point x="102" y="-199" type="line"/>
      <point x="102" y="721" type="line"/>
      <point x="182" y="721" type="line"/>
    </contour>
  </outline>
</glyph>
<glyph name="braceright" format="1">
  <advance width="314"/>
  <unicode hex="007D"/>
  <outline>
    <contour>
      <point x="89" y="636" type="curve"/>
      <point x="96" y="686" type="line"/>
      <point x="170" y="686"/>
      <point x="235" y="670"/>
      <point x="235" y="579" type="curve" smooth="yes"/>
      <point x="235" y="568"/>
      <point x="235" y="558"/>
      <point x="206" y="352" type="curve"/>
      <point x="206" y="316"/>
      <point x="241" y="303"/>
      <point x="276" y="303" type="curve"/>
      <point x="265" y="224" type="line"/>
      <point x="228" y="224"/>
      <point x="186" y="209"/>
      <point x="180" y="167" type="curve" smooth="yes"/>
      <point x="154" y="-19" type="line" smooth="yes"/>
      <point x="137" y="-139"/>
      <point x="59" y="-159"/>
      <point x="-23" y="-159" type="curve"/>
      <point x="-16" y="-109" type="line"/>
      <point x="19" y="-109"/>
      <point x="62" y="-96"/>
      <point x="72" y="-38" type="curve" smooth="yes"/>
      <point x="83" y="29"/>
      <point x="94" y="91"/>
      <point x="106" y="156" type="curve" smooth="yes"/>
      <point x="118" y="221"/>
      <point x="146" y="259"/>
      <point x="210" y="259" type="curve"/>
      <point x="211" y="268" type="line"/>
      <point x="155" y="268"/>
      <point x="135" y="296"/>
      <point x="135" y="345" type="curve" smooth="yes"/>
      <point x="135" y="386"/>
      <point x="158" y="565"/>
      <point x="158" y="579" type="curve" smooth="yes"/>
      <point x="158" y="624"/>
      <point x="121" y="636"/>
    </contour>
  </outline>
</glyph>
<glyph name="exclamdown" format="1">
  <advance width="254"/>
  <unicode hex="00A1"/>
  <outline>
    <contour>
      <point x="192" y="399" type="line"/>
      <point x="91" y="399" type="line"/>
      <point x="107" y="510" type="line"/>
      <point x="208" y="510" type="line"/>
    </contour>
    <contour>
      <point x="100" y="335" type="line"/>
      <point x="166" y="335" type="line"/>
      <point x="151" y="163"/>
      <point x="134" y="-4"/>
      <point x="118" y="-176" type="curve"/>
      <point x="3" y="-176" type="line"/>
    </contour>
  </outline>
</glyph>
<glyph name="currency" format="1">
  <advance width="624"/>
  <unicode hex="00A4"/>
  <outline>
    <contour>
      <point x="600" y="539" type="line"/>
      <point x="538" y="485" type="line"/>
      <point x="559" y="450"/>
      <point x="569" y="411"/>
      <point x="569" y="369" type="curve" smooth="yes"/>
      <point x="569" y="301"/>
      <point x="539" y="238"/>
      <point x="495" y="187" type="curve"/>
      <point x="542" y="133" type="line"/>
      <point x="487" y="85" type="line"/>
      <point x="440" y="139" type="line"/>
      <point x="393" y="108"/>
      <point x="340" y="89"/>
      <point x="284" y="89" type="curve" smooth="yes"/>
      <point x="228" y="89"/>
      <point x="179" y="107"/>
      <point x="142" y="138" type="curve"/>
      <point x="81" y="85" type="line"/>
      <point x="40" y="133" type="line"/>
      <point x="100" y="186" type="line"/>
      <point x="79" y="219"/>
      <point x="68" y="258"/>
      <point x="68" y="301" type="curve" smooth="yes"/>
      <point x="68" y="390"/>
      <point x="109" y="452"/>
      <point x="142" y="487" type="curve"/>
      <point x="98" y="539" type="line"/>
      <point x="153" y="587" type="line"/>
      <point x="196" y="535" type="line"/>
      <point x="243" y="566"/>
      <point x="297" y="585"/>
      <point x="353" y="585" type="curve" smooth="yes"/>
      <point x="410" y="585"/>
      <point x="460" y="565"/>
      <point x="497" y="533" type="curve"/>
      <point x="559" y="587" type="line"/>
    </contour>
    <contour>
      <point x="344" y="516" type="curve" smooth="yes"/>
      <point x="246" y="516"/>
      <point x="138" y="428"/>
      <point x="138" y="311" type="curve" smooth="yes"/>
      <point x="138" y="226"/>
      <point x="202" y="158"/>
      <point x="293" y="158" type="curve" smooth="yes"/>
      <point x="400" y="158"/>
      <point x="500" y="253"/>
      <point x="500" y="362" type="curve" smooth="yes"/>
      <point x="500" y="449"/>
      <point x="435" y="516"/>
    </contour>
  </outline>
</glyph>
<glyph name="brokenbar" format="1">
  <advance width="269"/>
  <unicode hex="00A6"/>
  <outline>
    <contour>
      <point x="197" y="419" type="line"/>
      <point x="108" y="419" type="line"/>
      <point x="146" y="686" type="line"/>
      <point x="235" y="686" type="line"/>
    </contour>
    <contour>
      <point x="138" y="0" type="line"/>
      <point x="49" y="0" type="line"/>
      <point x="87" y="266" type="line"/>
      <point x="176" y="266" type="line"/>
    </contour>
  </outline>
</glyph>
<glyph name="section" format="1">
  <advance width="516"/>
  <unicode hex="00A7"/>
  <outline>
    <contour>
      <point x="317" y="696" type="curve" smooth="yes"/>
      <point x="326" y="696" type="line" smooth="yes"/>
      <point x="438" y="696"/>
      <point x="503" y="640"/>
      <point x="503" y="572" type="curve" smooth="yes"/>
      <point x="503" y="561"/>
      <point x="501" y="546"/>
      <point x="498" y="539" type="curve"/>
      <point x="405" y="539" type="line"/>
      <point x="407" y="548"/>
      <point x="408" y="554"/>
      <point x="408" y="558" type="curve" smooth="yes"/>
      <point x="408" y="591"/>
      <point x="383" y="621"/>
      <point x="304" y="621" type="curve" smooth="yes"/>
      <point x="194" y="621"/>
      <point x="182" y="566"/>
      <point x="182" y="542" type="curve" smooth="yes"/>
      <point x="182" y="421"/>
      <point x="472" y="421"/>
      <point x="472" y="260" type="curve" smooth="yes"/>
      <point x="472" y="174"/>
      <point x="410" y="116"/>
      <point x="363" y="98" type="curve"/>
      <point x="398" y="71"/>
      <point x="420" y="37"/>
      <point x="420" y="-12" type="curve" smooth="yes"/>
      <point x="420" y="-120"/>
      <point x="348" y="-186"/>
      <point x="189" y="-186" type="curve" smooth="yes"/>
      <point x="180" y="-186" type="line" smooth="yes"/>
      <point x="68" y="-186"/>
      <point x="3" y="-130"/>
      <point x="3" y="-62" type="curve" smooth="yes"/>
      <point x="3" y="-51"/>
      <point x="5" y="-36"/>
      <point x="8" y="-29" type="curve"/>
      <point x="101" y="-29" type="line"/>
      <point x="98" y="-41"/>
      <point x="98" y="-45"/>
      <point x="98" y="-48" type="curve" smooth="yes"/>
      <point x="98" y="-81"/>
      <point x="123" y="-111"/>
      <point x="202" y="-111" type="curve" smooth="yes"/>
      <point x="311" y="-111"/>
      <point x="324" y="-59"/>
      <point x="324" y="-32" type="curve" smooth="yes"/>
      <point x="324" y="89"/>
      <point x="33" y="85"/>
      <point x="33" y="253" type="curve" smooth="yes"/>
      <point x="33" y="349"/>
      <point x="103" y="399"/>
      <point x="142" y="412" type="curve"/>
      <point x="107" y="439"/>
      <point x="85" y="471"/>
      <point x="85" y="519" type="curve" smooth="yes"/>
      <point x="85" y="644"/>
      <point x="181" y="696"/>
    </contour>
    <contour>
      <point x="202" y="375" type="curve"/>
      <point x="173" y="359"/>
      <point x="131" y="325"/>
      <point x="131" y="274" type="curve" smooth="yes"/>
      <point x="131" y="202"/>
      <point x="224" y="174"/>
      <point x="303" y="134" type="curve"/>
      <point x="339" y="154"/>
      <point x="375" y="187"/>
      <point x="375" y="234" type="curve" smooth="yes"/>
      <point x="375" y="306"/>
      <point x="282" y="335"/>
    </contour>
  </outline>
</glyph>
<glyph name="dieresis" format="1">
  <advance width="440"/>
  <unicode hex="00A8"/>
  <outline>
    <contour>
      <point x="163" y="633" type="line"/>
      <point x="73" y="633" type="line"/>
      <point x="86" y="731" type="line"/>
      <point x="176" y="731" type="line"/>
    </contour>
    <contour>
      <point x="352" y="633" type="line"/>
      <point x="261" y="633" type="line"/>
      <point x="274" y="731" type="line"/>
      <point x="365" y="731" type="line"/>
    </contour>
  </outline>
</glyph>
<glyph name="copyright" format="1">
  <advance width="785"/>
  <unicode hex="00A9"/>
  <outline>
    <contour>
      <point x="400" y="696" type="curve" smooth="yes"/>
      <point x="595" y="696"/>
      <point x="754" y="539"/>
      <point x="754" y="344" type="curve" smooth="yes"/>
      <point x="754" y="147"/>
      <point x="595" y="-10"/>
      <point x="400" y="-10" type="curve" smooth="yes"/>
      <point x="203" y="-10"/>
      <point x="46" y="147"/>
      <point x="46" y="344" type="curve" smooth="yes"/>
      <point x="46" y="539"/>
      <point x="203" y="696"/>
    </contour>
    <contour>
      <point x="400" y="655" type="curve" smooth="yes"/>
      <point x="221" y="655"/>
      <point x="86" y="521"/>
      <point x="86" y="344" type="curve" smooth="yes"/>
      <point x="86" y="163"/>
      <point x="221" y="30"/>
      <point x="400" y="30" type="curve" smooth="yes"/>
      <point x="576" y="30"/>
      <point x="713" y="163"/>
      <point x="713" y="344" type="curve" smooth="yes"/>
      <point x="713" y="521"/>
      <point x="576" y="655"/>
    </contour>
    <contour>
      <point x="400" y="556" type="curve" smooth="yes"/>
      <point x="405" y="556" type="line" smooth="yes"/>
      <point x="497" y="556"/>
      <point x="568" y="504"/>
      <point x="568" y="388" type="curve"/>
      <point x="501" y="388" type="line"/>
      <point x="501" y="401" type="line" smooth="yes"/>
      <point x="501" y="468"/>
      <point x="453" y="499"/>
      <point x="403" y="499" type="curve" smooth="yes"/>
      <point x="347" y="499"/>
      <point x="298" y="468"/>
      <point x="298" y="401" type="curve" smooth="yes"/>
      <point x="298" y="286" type="line" smooth="yes"/>
      <point x="298" y="216"/>
      <point x="350" y="187"/>
      <point x="406" y="187" type="curve" smooth="yes"/>
      <point x="461" y="187"/>
      <point x="503" y="225"/>
      <point x="503" y="296" type="curve"/>
      <point x="568" y="296" type="line"/>
      <point x="568" y="184"/>
      <point x="497" y="129"/>
      <point x="406" y="129" type="curve" smooth="yes"/>
      <point x="401" y="129" type="line" smooth="yes"/>
      <point x="308" y="129"/>
      <point x="231" y="184"/>
      <point x="231" y="300" type="curve" smooth="yes"/>
      <point x="231" y="386" type="line" smooth="yes"/>
      <point x="231" y="501"/>
      <point x="308" y="556"/>
    </contour>
  </outline>
</glyph>
<glyph name="ordfeminine" format="1">
  <advance width="419"/>
  <unicode hex="00AA"/>
  <outline>
    <contour>
      <point x="230" y="696" type="curve" smooth="yes"/>
      <point x="273" y="696"/>
      <point x="302" y="677"/>
      <point x="317" y="650" type="curve"/>
      <point x="322" y="650" type="line"/>
      <point x="341" y="690" type="line"/>
      <point x="380" y="690" type="line"/>
      <point x="364" y="581"/>
      <point x="345" y="437"/>
      <point x="345" y="435" type="curve" smooth="yes"/>
      <point x="345" y="424"/>
      <point x="350" y="418"/>
      <point x="359" y="418" type="curve" smooth="yes"/>
      <point x="368" y="418"/>
      <point x="381" y="423"/>
      <point x="388" y="427" type="curve"/>
      <point x="383" y="385" type="line"/>
      <point x="375" y="380"/>
      <point x="359" y="373"/>
      <point x="336" y="373" type="curve" smooth="yes"/>
      <point x="300" y="373"/>
      <point x="289" y="393"/>
      <point x="289" y="418" type="curve"/>
      <point x="262" y="390"/>
      <point x="232" y="373"/>
      <point x="189" y="373" type="curve" smooth="yes"/>
      <point x="128" y="373"/>
      <point x="83" y="410"/>
      <point x="83" y="494" type="curve" smooth="yes"/>
      <point x="83" y="626"/>
      <point x="151" y="696"/>
    </contour>
    <contour>
      <point x="238" y="650" type="curve" smooth="yes"/>
      <point x="158" y="650"/>
      <point x="140" y="557"/>
      <point x="140" y="496" type="curve" smooth="yes"/>
      <point x="140" y="437"/>
      <point x="166" y="418"/>
      <point x="206" y="418" type="curve" smooth="yes"/>
      <point x="274" y="418"/>
      <point x="305" y="487"/>
      <point x="305" y="572" type="curve" smooth="yes"/>
      <point x="305" y="632"/>
      <point x="278" y="650"/>
    </contour>
  </outline>
</glyph>
<glyph name="guillemetleft" format="1">
  <advance width="458"/>
  <unicode hex="00AB"/>
  <outline>
    <contour>
      <point x="134" y="337" type="line"/>
      <point x="202" y="163" type="line"/>
      <point x="151" y="163" type="line"/>
      <point x="55" y="337" type="line"/>
      <point x="200" y="511" type="line"/>
      <point x="251" y="511" type="line"/>
    </contour>
    <contour>
      <point x="317" y="337" type="line"/>
      <point x="384" y="163" type="line"/>
      <point x="334" y="163" type="line"/>
      <point x="237" y="337" type="line"/>
      <point x="383" y="511" type="line"/>
      <point x="433" y="511" type="line"/>
    </contour>
  </outline>
</glyph>
<glyph name="logicalnot" format="1">
  <advance width="615"/>
  <unicode hex="00AC"/>
  <outline>
    <contour>
      <point x="537" y="174" type="line"/>
      <point x="453" y="174" type="line"/>
      <point x="479" y="360" type="line"/>
      <point x="44" y="360" type="line"/>
      <point x="57" y="453" type="line"/>
      <point x="576" y="453" type="line"/>
    </contour>
  </outline>
</glyph>
<glyph name="registered" format="1">
  <advance width="785"/>
  <unicode hex="00AE"/>
  <outline>
    <contour>
      <point x="400" y="696" type="curve" smooth="yes"/>
      <point x="595" y="696"/>
      <point x="754" y="539"/>
      <point x="754" y="344" type="curve" smooth="yes"/>
      <point x="754" y="147"/>
      <point x="595" y="-10"/>
      <point x="400" y="-10" type="curve" smooth="yes"/>
      <point x="203" y="-10"/>
      <point x="46" y="147"/>
      <point x="46" y="344" type="curve" smooth="yes"/>
      <point x="46" y="539"/>
      <point x="203" y="696"/>
    </contour>
    <contour>
      <point x="400" y="656" type="curve" smooth="yes"/>
      <point x="221" y="656"/>
      <point x="86" y="523"/>
      <point x="86" y="344" type="curve" smooth="yes"/>
      <point x="86" y="163"/>
      <point x="221" y="30"/>
      <point x="400" y="30" type="curve" smooth="yes"/>
      <point x="577" y="30"/>
      <point x="714" y="163"/>
      <point x="714" y="344" type="curve" smooth="yes"/>
      <point x="714" y="523"/>
      <point x="577" y="656"/>
    </contour>
    <contour>
      <point x="256" y="547" type="line"/>
      <point x="443" y="547" type="line" smooth="yes"/>
      <point x="502" y="547"/>
      <point x="557" y="505"/>
      <point x="557" y="444" type="curve" smooth="yes"/>
      <point x="557" y="397"/>
      <point x="525" y="360"/>
      <point x="490" y="347" type="curve"/>
      <point x="516" y="336"/>
      <point x="550" y="303"/>
      <point x="550" y="227" type="curve" smooth="yes"/>
      <point x="550" y="192"/>
      <point x="550" y="167"/>
      <point x="581" y="156" type="curve"/>
      <point x="581" y="138" type="line"/>
      <point x="574" y="135"/>
      <point x="559" y="132"/>
      <point x="546" y="132" type="curve" smooth="yes"/>
      <point x="516" y="132"/>
      <point x="486" y="145"/>
      <point x="486" y="212" type="curve" smooth="yes"/>
      <point x="486" y="292"/>
      <point x="448" y="319"/>
      <point x="419" y="319" type="curve" smooth="yes"/>
      <point x="320" y="319" type="line"/>
      <point x="320" y="135" type="line"/>
      <point x="256" y="135" type="line"/>
    </contour>
    <contour>
      <point x="320" y="492" type="line"/>
      <point x="320" y="373" type="line"/>
      <point x="431" y="373" type="line" smooth="yes"/>
      <point x="466" y="373"/>
      <point x="494" y="399"/>
      <point x="494" y="431" type="curve" smooth="yes"/>
      <point x="494" y="435" type="line" smooth="yes"/>
      <point x="494" y="467"/>
      <point x="466" y="492"/>
      <point x="431" y="492" type="curve" smooth="yes"/>
    </contour>
  </outline>
</glyph>
<glyph name="degree" format="1">
  <advance width="404"/>
  <unicode hex="00B0"/>
  <outline>
    <contour>
      <point x="245" y="696" type="curve" smooth="yes"/>
      <point x="340" y="696"/>
      <point x="391" y="636"/>
      <point x="391" y="557" type="curve" smooth="yes"/>
      <point x="391" y="453"/>
      <point x="310" y="396"/>
      <point x="227" y="396" type="curve" smooth="yes"/>
      <point x="135" y="396"/>
      <point x="83" y="454"/>
      <point x="83" y="535" type="curve" smooth="yes"/>
      <point x="83" y="639"/>
      <point x="165" y="696"/>
    </contour>
    <contour>
      <point x="240" y="640" type="curve" smooth="yes"/>
      <point x="191" y="640"/>
      <point x="150" y="603"/>
      <point x="150" y="540" type="curve" smooth="yes"/>
      <point x="150" y="487"/>
      <point x="181" y="451"/>
      <point x="234" y="451" type="curve" smooth="yes"/>
      <point x="283" y="451"/>
      <point x="324" y="488"/>
      <point x="324" y="552" type="curve" smooth="yes"/>
      <point x="324" y="587"/>
      <point x="308" y="640"/>
    </contour>
  </outline>
</glyph>
<glyph name="plusminus" format="1">
  <advance width="615"/>
  <unicode hex="00B1"/>
  <outline>
    <contour>
      <point x="360" y="364" type="line"/>
      <point x="575" y="364" type="line"/>
      <point x="563" y="280" type="line"/>
      <point x="348" y="280" type="line"/>
      <point x="327" y="134" type="line"/>
      <point x="244" y="134" type="line"/>
      <point x="265" y="280" type="line"/>
      <point x="51" y="280" type="line"/>
      <point x="63" y="364" type="line"/>
      <point x="277" y="364" type="line"/>
      <point x="297" y="511" type="line"/>
      <point x="380" y="511" type="line"/>
    </contour>
    <contour>
      <point x="519" y="0" type="line"/>
      <point x="16" y="0" type="line"/>
      <point x="27" y="83" type="line"/>
      <point x="530" y="83" type="line"/>
    </contour>
  </outline>
</glyph>
<glyph name="twosuperior" format="1">
  <advance width="381"/>
  <unicode hex="00B2"/>
  <outline>
    <contour>
      <point x="258" y="800" type="curve" smooth="yes"/>
      <point x="342" y="800"/>
      <point x="372" y="747"/>
      <point x="372" y="704" type="curve" smooth="yes"/>
      <point x="372" y="656"/>
      <point x="353" y="617"/>
      <point x="287" y="571" type="curve" smooth="yes"/>
      <point x="159" y="482" type="line" smooth="yes"/>
      <point x="152" y="477"/>
      <point x="145" y="470"/>
      <point x="145" y="467" type="curve" smooth="yes"/>
      <point x="341" y="467" type="line"/>
      <point x="335" y="418" type="line"/>
      <point x="76" y="418" type="line"/>
      <point x="78" y="431" type="line" smooth="yes"/>
      <point x="86" y="483"/>
      <point x="122" y="514"/>
      <point x="142" y="528" type="curve" smooth="yes"/>
      <point x="263" y="611" type="line" smooth="yes"/>
      <point x="306" y="640"/>
      <point x="318" y="669"/>
      <point x="318" y="696" type="curve" smooth="yes"/>
      <point x="318" y="717"/>
      <point x="306" y="751"/>
      <point x="252" y="751" type="curve" smooth="yes"/>
      <point x="205" y="751"/>
      <point x="165" y="715"/>
      <point x="165" y="664" type="curve"/>
      <point x="111" y="664" type="line"/>
      <point x="111" y="732"/>
      <point x="166" y="800"/>
    </contour>
  </outline>
</glyph>
<glyph name="threesuperior" format="1">
  <advance width="361"/>
  <unicode hex="00B3"/>
  <outline>
    <contour>
      <point x="245" y="800" type="curve" smooth="yes"/>
      <point x="250" y="800" type="line" smooth="yes"/>
      <point x="314" y="800"/>
      <point x="359" y="767"/>
      <point x="359" y="712" type="curve" smooth="yes"/>
      <point x="359" y="659"/>
      <point x="325" y="631"/>
      <point x="286" y="614" type="curve"/>
      <point x="286" y="610" type="line"/>
      <point x="321" y="599"/>
      <point x="342" y="576"/>
      <point x="342" y="536" type="curve" smooth="yes"/>
      <point x="342" y="462"/>
      <point x="277" y="412"/>
      <point x="195" y="412" type="curve" smooth="yes"/>
      <point x="189" y="412" type="line" smooth="yes"/>
      <point x="112" y="412"/>
      <point x="72" y="449"/>
      <point x="72" y="505" type="curve" smooth="yes"/>
      <point x="72" y="512"/>
      <point x="73" y="518"/>
      <point x="74" y="529" type="curve"/>
      <point x="128" y="529" type="line"/>
      <point x="127" y="524"/>
      <point x="126" y="520"/>
      <point x="126" y="518" type="curve" smooth="yes"/>
      <point x="126" y="512" type="line" smooth="yes"/>
      <point x="126" y="478"/>
      <point x="149" y="461"/>
      <point x="196" y="461" type="curve" smooth="yes"/>
      <point x="249" y="461"/>
      <point x="289" y="485"/>
      <point x="289" y="534" type="curve" smooth="yes"/>
      <point x="289" y="573"/>
      <point x="253" y="585"/>
      <point x="212" y="585" type="curve" smooth="yes"/>
      <point x="171" y="585" type="line"/>
      <point x="178" y="634" type="line"/>
      <point x="220" y="634" type="line" smooth="yes"/>
      <point x="263" y="634"/>
      <point x="304" y="656"/>
      <point x="304" y="703" type="curve" smooth="yes"/>
      <point x="304" y="738"/>
      <point x="274" y="751"/>
      <point x="238" y="751" type="curve" smooth="yes"/>
      <point x="199" y="751"/>
      <point x="166" y="731"/>
      <point x="159" y="688" type="curve"/>
      <point x="105" y="688" type="line"/>
      <point x="113" y="761"/>
      <point x="173" y="800"/>
    </contour>
  </outline>
</glyph>
<glyph name="acute" format="1">
  <advance width="333"/>
  <unicode hex="00B4"/>
  <outline>
    <contour>
      <point x="261" y="716" type="line"/>
      <point x="125" y="575" type="line"/>
      <point x="56" y="575" type="line"/>
      <point x="171" y="720" type="line"/>
      <point x="261" y="720" type="line"/>
    </contour>
  </outline>
</glyph>
<glyph name="paragraph" format="1">
  <advance width="524"/>
  <unicode hex="00B6"/>
  <outline>
    <contour>
      <point x="528" y="625" type="line"/>
      <point x="462" y="625" type="line"/>
      <point x="350" y="-169" type="line"/>
      <point x="287" y="-169" type="line"/>
      <point x="399" y="625" type="line"/>
      <point x="327" y="625" type="line"/>
      <point x="215" y="-169" type="line"/>
      <point x="152" y="-169" type="line"/>
      <point x="211" y="250" type="line"/>
      <point x="115" y="261"/>
      <point x="48" y="338"/>
      <point x="48" y="435" type="curve" smooth="yes"/>
      <point x="48" y="571"/>
      <point x="155" y="686"/>
      <point x="299" y="686" type="curve" smooth="yes"/>
      <point x="537" y="686" type="line"/>
    </contour>
  </outline>
</glyph>
<glyph name="periodcentered" format="1">
  <advance width="238"/>
  <unicode hex="00B7"/>
  <outline>
    <contour>
      <point x="161" y="232" type="line"/>
      <point x="60" y="232" type="line"/>
      <point x="75" y="344" type="line"/>
      <point x="176" y="344" type="line"/>
    </contour>
  </outline>
</glyph>
<glyph name="cedilla" format="1">
  <advance width="350"/>
  <unicode hex="00B8"/>
  <outline>
    <contour>
      <point x="156" y="-17" type="line"/>
      <point x="180" y="-17" type="line" smooth="yes"/>
      <point x="231" y="-17"/>
      <point x="280" y="-32"/>
      <point x="280" y="-90" type="curve" smooth="yes"/>
      <point x="280" y="-176"/>
      <point x="197" y="-197"/>
      <point x="151" y="-197" type="curve" smooth="yes"/>
      <point x="119" y="-197"/>
      <point x="84" y="-190"/>
      <point x="59" y="-175" type="curve"/>
      <point x="75" y="-126" type="line"/>
      <point x="84" y="-131"/>
      <point x="111" y="-146"/>
      <point x="154" y="-146" type="curve" smooth="yes"/>
      <point x="186" y="-146"/>
      <point x="217" y="-131"/>
      <point x="217" y="-95" type="curve" smooth="yes"/>
      <point x="217" y="-72"/>
      <point x="198" y="-60"/>
      <point x="171" y="-60" type="curve" smooth="yes"/>
      <point x="150" y="-60" type="line"/>
    </contour>
  </outline>
</glyph>
<glyph name="onesuperior" format="1">
  <advance width="332"/>
  <unicode hex="00B9"/>
  <outline>
    <contour>
      <point x="228" y="471" type="line"/>
      <point x="309" y="471" type="line"/>
      <point x="302" y="422" type="line"/>
      <point x="68" y="422" type="line"/>
      <point x="75" y="471" type="line"/>
      <point x="174" y="471" type="line"/>
      <point x="210" y="724" type="line"/>
      <point x="111" y="724" type="line"/>
      <point x="116" y="759" type="line"/>
      <point x="152" y="762"/>
      <point x="201" y="775"/>
      <point x="253" y="796" type="curve"/>
      <point x="274" y="796" type="line"/>
    </contour>
  </outline>
</glyph>
<glyph name="ordmasculine" format="1">
  <advance width="392"/>
  <unicode hex="00BA"/>
  <outline>
    <contour>
      <point x="252" y="696" type="curve" smooth="yes"/>
      <point x="322" y="696"/>
      <point x="376" y="659"/>
      <point x="376" y="576" type="curve" smooth="yes"/>
      <point x="376" y="476"/>
      <point x="334" y="373"/>
      <point x="206" y="373" type="curve" smooth="yes"/>
      <point x="136" y="373"/>
      <point x="82" y="410"/>
      <point x="82" y="493" type="curve" smooth="yes"/>
      <point x="82" y="593"/>
      <point x="124" y="696"/>
    </contour>
    <contour>
      <point x="245" y="650" type="curve" smooth="yes"/>
      <point x="162" y="650"/>
      <point x="143" y="567"/>
      <point x="140" y="501" type="curve" smooth="yes"/>
      <point x="140" y="442"/>
      <point x="170" y="419"/>
      <point x="213" y="419" type="curve" smooth="yes"/>
      <point x="293" y="419"/>
      <point x="317" y="501"/>
      <point x="317" y="568" type="curve" smooth="yes"/>
      <point x="317" y="627"/>
      <point x="286" y="650"/>
    </contour>
  </outline>
</glyph>
<glyph name="onequarter" format="1">
  <advance width="701"/>
  <unicode hex="00BC"/>
  <outline>
    <contour>
      <point x="156" y="0" type="line"/>
      <point x="101" y="0" type="line"/>
      <point x="618" y="686" type="line"/>
      <point x="670" y="686" type="line"/>
    </contour>
    <contour>
      <point x="198" y="359" type="line"/>
      <point x="279" y="359" type="line"/>
      <point x="272" y="310" type="line"/>
      <point x="38" y="310" type="line"/>
      <point x="45" y="359" type="line"/>
      <point x="144" y="359" type="line"/>
      <point x="179" y="612" type="line"/>
      <point x="80" y="612" type="line"/>
      <point x="86" y="647" type="line"/>
      <point x="123" y="650"/>
      <point x="169" y="663"/>
      <point x="222" y="684" type="curve"/>
      <point x="243" y="684" type="line"/>
    </contour>
    <contour>
      <point x="528" y="374" type="curve"/>
      <point x="583" y="374" type="line"/>
      <point x="543" y="276"/>
      <point x="459" y="169"/>
      <point x="430" y="140" type="curve"/>
      <point x="553" y="140" type="line"/>
      <point x="568" y="245" type="line"/>
      <point x="585" y="272"/>
      <point x="595" y="291"/>
      <point x="607" y="319" type="curve"/>
      <point x="632" y="319" type="line"/>
      <point x="607" y="140" type="line"/>
      <point x="653" y="140" type="line"/>
      <point x="646" y="91" type="line"/>
      <point x="600" y="91" type="line"/>
      <point x="587" y="0" type="line"/>
      <point x="533" y="0" type="line"/>
      <point x="546" y="91" type="line"/>
      <point x="373" y="91" type="line"/>
      <point x="380" y="141" type="line"/>
      <point x="437" y="212"/>
      <point x="488" y="290"/>
    </contour>
  </outline>
</glyph>
<glyph name="onehalf" format="1">
  <advance width="727"/>
  <unicode hex="00BD"/>
  <outline>
    <contour>
      <point x="137" y="0" type="line"/>
      <point x="82" y="0" type="line"/>
      <point x="599" y="686" type="line"/>
      <point x="651" y="686" type="line"/>
    </contour>
    <contour>
      <point x="196" y="359" type="line"/>
      <point x="277" y="359" type="line"/>
      <point x="270" y="310" type="line"/>
      <point x="36" y="310" type="line"/>
      <point x="43" y="359" type="line"/>
      <point x="142" y="359" type="line"/>
      <point x="177" y="612" type="line"/>
      <point x="78" y="612" type="line"/>
      <point x="84" y="647" type="line"/>
      <point x="121" y="650"/>
      <point x="167" y="663"/>
      <point x="220" y="684" type="curve"/>
      <point x="241" y="684" type="line"/>
    </contour>
    <contour>
      <point x="579" y="382" type="curve" smooth="yes"/>
      <point x="663" y="382"/>
      <point x="693" y="329"/>
      <point x="693" y="286" type="curve" smooth="yes"/>
      <point x="693" y="238"/>
      <point x="674" y="199"/>
      <point x="608" y="153" type="curve" smooth="yes"/>
      <point x="480" y="64" type="line" smooth="yes"/>
      <point x="473" y="59"/>
      <point x="466" y="52"/>
      <point x="466" y="49" type="curve" smooth="yes"/>
      <point x="662" y="49" type="line"/>
      <point x="656" y="0" type="line"/>
      <point x="397" y="0" type="line"/>
      <point x="399" y="13" type="line" smooth="yes"/>
      <point x="407" y="65"/>
      <point x="443" y="96"/>
      <point x="463" y="110" type="curve" smooth="yes"/>
      <point x="584" y="193" type="line" smooth="yes"/>
      <point x="627" y="222"/>
      <point x="639" y="251"/>
      <point x="639" y="278" type="curve" smooth="yes"/>
      <point x="639" y="299"/>
      <point x="627" y="333"/>
      <point x="573" y="333" type="curve" smooth="yes"/>
      <point x="526" y="333"/>
      <point x="486" y="297"/>
      <point x="486" y="246" type="curve"/>
      <point x="432" y="246" type="line"/>
      <point x="432" y="314"/>
      <point x="487" y="382"/>
    </contour>
  </outline>
</glyph>
<glyph name="questiondown" format="1">
  <advance width="494"/>
  <unicode hex="00BF"/>
  <outline>
    <contour>
      <point x="307" y="400" type="line"/>
      <point x="203" y="400" type="line"/>
      <point x="218" y="511" type="line"/>
      <point x="322" y="511" type="line"/>
    </contour>
    <contour>
      <point x="294" y="326" type="line"/>
      <point x="285" y="262" type="line" smooth="yes"/>
      <point x="269" y="146"/>
      <point x="93" y="129"/>
      <point x="93" y="1" type="curve" smooth="yes"/>
      <point x="93" y="-42"/>
      <point x="117" y="-96"/>
      <point x="197" y="-96" type="curve" smooth="yes"/>
      <point x="301" y="-96"/>
      <point x="327" y="-16"/>
      <point x="333" y="16" type="curve" smooth="yes"/>
      <point x="335" y="29"/>
      <point x="335" y="46"/>
      <point x="336" y="53" type="curve"/>
      <point x="434" y="53" type="line"/>
      <point x="434" y="-74"/>
      <point x="346" y="-185"/>
      <point x="184" y="-185" type="curve" smooth="yes"/>
      <point x="178" y="-185" type="line" smooth="yes"/>
      <point x="26" y="-185"/>
      <point x="-7" y="-78"/>
      <point x="-7" y="-13" type="curve" smooth="yes"/>
      <point x="-8" y="164"/>
      <point x="177" y="186"/>
      <point x="188" y="277" type="curve" smooth="yes"/>
      <point x="194" y="326" type="line"/>
    </contour>
  </outline>
</glyph>
<glyph name="Atilde" format="1">
  <advance width="650"/>
  <unicode hex="00C3"/>
  <outline>
    <contour>
      <point x="536" y="854" type="curve"/>
      <point x="586" y="854" type="line"/>
      <point x="578" y="806"/>
      <point x="537" y="750"/>
      <point x="459" y="750" type="curve" smooth="yes"/>
      <point x="395" y="750"/>
      <point x="349" y="784"/>
      <point x="295" y="784" type="curve" smooth="yes"/>
      <point x="265" y="784"/>
      <point x="245" y="773"/>
      <point x="235" y="750" type="curve"/>
      <point x="187" y="750" type="line"/>
      <point x="195" y="795"/>
      <point x="235" y="854"/>
      <point x="313" y="854" type="curve" smooth="yes"/>
      <point x="377" y="854"/>
      <point x="423" y="819"/>
      <point x="476" y="819" type="curve" smooth="yes"/>
      <point x="506" y="819"/>
      <point x="526" y="831"/>
    </contour>
    <contour>
      <point x="607" y="0" type="line"/>
      <point x="501" y="0" type="line"/>
      <point x="464" y="149" type="line"/>
      <point x="136" y="149" type="line"/>
      <point x="58" y="0" type="line"/>
      <point x="-36" y="0" type="line"/>
      <point x="328" y="686" type="line"/>
      <point x="436" y="686" type="line"/>
    </contour>
    <contour>
      <point x="357" y="568" type="line"/>
      <point x="184" y="238" type="line"/>
      <point x="443" y="238" type="line"/>
      <point x="363" y="568" type="line"/>
    </contour>
  </outline>
</glyph>
<glyph name="AE" format="1">
  <advance width="981"/>
  <unicode hex="00C6"/>
  <outline>
    <contour>
      <point x="961" y="597" type="line"/>
      <point x="543" y="597" type="line"/>
      <point x="565" y="395" type="line"/>
      <point x="901" y="395" type="line"/>
      <point x="888" y="306" type="line"/>
      <point x="574" y="306" type="line"/>
      <point x="598" y="89" type="line"/>
      <point x="896" y="89" type="line"/>
      <point x="896" y="0" type="line"/>
      <point x="502" y="0" type="line"/>
      <point x="486" y="149" type="line"/>
      <point x="158" y="149" type="line"/>
      <point x="59" y="0" type="line"/>
      <point x="-33" y="0" type="line"/>
      <point x="426" y="686" type="line"/>
      <point x="987" y="686" type="line"/>
    </contour>
    <contour>
      <point x="438" y="568" type="line"/>
      <point x="219" y="238" type="line"/>
      <point x="478" y="238" type="line"/>
      <point x="444" y="568" type="line"/>
    </contour>
  </outline>
</glyph>
<glyph name="Edieresis" format="1">
  <advance width="592"/>
  <unicode hex="00CB"/>
  <outline>
    <contour>
      <point x="327" y="750" type="line"/>
      <point x="237" y="750" type="line"/>
      <point x="250" y="848" type="line"/>
      <point x="340" y="848" type="line"/>
    </contour>
    <contour>
      <point x="516" y="750" type="line"/>
      <point x="425" y="750" type="line"/>
      <point x="438" y="848" type="line"/>
      <point x="529" y="848" type="line"/>
    </contour>
    <contour>
      <point x="572" y="597" type="line"/>
      <point x="233" y="597" type="line"/>
      <point x="205" y="395" type="line"/>
      <point x="512" y="395" type="line"/>
      <point x="499" y="306" type="line"/>
      <point x="192" y="306" type="line"/>
      <point x="162" y="89" type="line"/>
      <point x="507" y="89" type="line"/>
      <point x="507" y="0" type="line"/>
      <point x="51" y="0" type="line"/>
      <point x="148" y="686" type="line"/>
      <point x="598" y="686" type="line"/>
    </contour>
  </outline>
</glyph>
<glyph name="Iacute" format="1">
  <advance width="365"/>
  <unicode hex="00CD"/>
  <outline>
    <contour>
      <point x="407" y="891" type="line"/>
      <point x="271" y="750" type="line"/>
      <point x="202" y="750" type="line"/>
      <point x="317" y="895" type="line"/>
      <point x="407" y="895" type="line"/>
    </contour>
    <contour>
      <point x="354" y="597" type="line"/>
      <point x="274" y="597" type="line"/>
      <point x="203" y="89" type="line"/>
      <point x="283" y="89" type="line"/>
      <point x="270" y="0" type="line"/>
      <point x="12" y="0" type="line"/>
      <point x="25" y="89" type="line"/>
      <point x="105" y="89" type="line"/>
      <point x="176" y="597" type="line"/>
      <point x="96" y="597" type="line"/>
      <point x="109" y="686" type="line"/>
      <point x="367" y="686" type="line"/>
    </contour>
  </outline>
</glyph>
<glyph name="Idieresis" format="1">
  <advance width="365"/>
  <unicode hex="00CF"/>
  <outline>
    <contour>
      <point x="197" y="750" type="line"/>
      <point x="107" y="750" type="line"/>
      <point x="120" y="848" type="line"/>
      <point x="210" y="848" type="line"/>
    </contour>
    <contour>
      <point x="386" y="750" type="line"/>
      <point x="295" y="750" type="line"/>
      <point x="308" y="848" type="line"/>
      <point x="399" y="848" type="line"/>
    </contour>
    <contour>
      <point x="354" y="597" type="line"/>
      <point x="274" y="597" type="line"/>
      <point x="203" y="89" type="line"/>
      <point x="283" y="89" type="line"/>
      <point x="270" y="0" type="line"/>
      <point x="12" y="0" type="line"/>
      <point x="25" y="89" type="line"/>
      <point x="105" y="89" type="line"/>
      <point x="176" y="597" type="line"/>
      <point x="96" y="597" type="line"/>
      <point x="109" y="686" type="line"/>
      <point x="367" y="686" type="line"/>
    </contour>
  </outline>
</glyph>
<glyph name="Otilde" format="1">
  <advance width="690"/>
  <unicode hex="00D5"/>
  <outline>
    <contour>
      <point x="577" y="854" type="curve"/>
      <point x="627" y="854" type="line"/>
      <point x="619" y="806"/>
      <point x="578" y="750"/>
      <point x="500" y="750" type="curve" smooth="yes"/>
      <point x="436" y="750"/>
      <point x="390" y="784"/>
      <point x="336" y="784" type="curve" smooth="yes"/>
      <point x="306" y="784"/>
      <point x="286" y="773"/>
      <point x="276" y="750" type="curve"/>
      <point x="228" y="750" type="line"/>
      <point x="236" y="795"/>
      <point x="276" y="854"/>
      <point x="354" y="854" type="curve" smooth="yes"/>
      <point x="418" y="854"/>
      <point x="464" y="819"/>
      <point x="517" y="819" type="curve" smooth="yes"/>
      <point x="547" y="819"/>
      <point x="567" y="831"/>
    </contour>
    <contour>
      <point x="402" y="696" type="curve" smooth="yes"/>
      <point x="542" y="696"/>
      <point x="647" y="616"/>
      <point x="647" y="450" type="curve" smooth="yes"/>
      <point x="647" y="431"/>
      <point x="646" y="410"/>
      <point x="630" y="298" type="curve" smooth="yes"/>
      <point x="601" y="90"/>
      <point x="474" y="-10"/>
      <point x="303" y="-10" type="curve" smooth="yes"/>
      <point x="162" y="-10"/>
      <point x="57" y="70"/>
      <point x="57" y="235" type="curve" smooth="yes"/>
      <point x="56" y="264"/>
      <point x="60" y="276"/>
      <point x="75" y="388" type="curve" smooth="yes"/>
      <point x="103" y="596"/>
      <point x="233" y="696"/>
    </contour>
    <contour>
      <point x="390" y="607" type="curve" smooth="yes"/>
      <point x="280" y="607"/>
      <point x="195" y="544"/>
      <point x="173" y="388" type="curve" smooth="yes"/>
      <point x="158" y="278"/>
      <point x="156" y="260"/>
      <point x="156" y="244" type="curve" smooth="yes"/>
      <point x="156" y="127"/>
      <point x="220" y="79"/>
      <point x="315" y="79" type="curve" smooth="yes"/>
      <point x="423" y="79"/>
      <point x="508" y="142"/>
      <point x="532" y="298" type="curve" smooth="yes"/>
      <point x="548" y="406"/>
      <point x="549" y="426"/>
      <point x="549" y="442" type="curve" smooth="yes"/>
      <point x="549" y="558"/>
      <point x="484" y="607"/>
    </contour>
  </outline>
</glyph>
<glyph name="multiply" format="1">
  <advance width="615"/>
  <unicode hex="00D7"/>
  <outline>
    <contour>
      <point x="311" y="314" type="line"/>
      <point x="485" y="466" type="line"/>
      <point x="501" y="446"/>
      <point x="517" y="427"/>
      <point x="532" y="407" type="curve"/>
      <point x="357" y="255" type="line"/>
      <point x="489" y="104" type="line"/>
      <point x="466" y="84"/>
      <point x="447" y="65"/>
      <point x="426" y="45" type="curve"/>
      <point x="382" y="96"/>
      <point x="337" y="144"/>
      <point x="294" y="195" type="curve"/>
      <point x="119" y="45" type="line"/>
      <point x="104" y="65"/>
      <point x="88" y="84"/>
      <point x="72" y="104" type="curve"/>
      <point x="246" y="255" type="line"/>
      <point x="115" y="407" type="line"/>
      <point x="138" y="427"/>
      <point x="157" y="446"/>
      <point x="178" y="466" type="curve"/>
    </contour>
  </outline>
</glyph>
<glyph name="Oslash" format="1">
  <advance width="690"/>
  <unicode hex="00D8"/>
  <outline>
    <contour>
      <point x="689" y="754" type="line"/>
      <point x="590" y="621" type="line"/>
      <point x="626" y="580"/>
      <point x="647" y="525"/>
      <point x="647" y="450" type="curve" smooth="yes"/>
      <point x="647" y="431"/>
      <point x="646" y="410"/>
      <point x="630" y="298" type="curve" smooth="yes"/>
      <point x="601" y="90"/>
      <point x="474" y="-10"/>
      <point x="303" y="-10" type="curve" smooth="yes"/>
      <point x="244" y="-10"/>
      <point x="195" y="3"/>
      <point x="154" y="30" type="curve"/>
      <point x="84" y="-65" type="line"/>
      <point x="20" y="-65" type="line"/>
      <point x="115" y="63" type="line"/>
      <point x="78" y="104"/>
      <point x="57" y="159"/>
      <point x="57" y="235" type="curve" smooth="yes"/>
      <point x="57" y="264"/>
      <point x="60" y="275"/>
      <point x="75" y="388" type="curve" smooth="yes"/>
      <point x="103" y="596"/>
      <point x="233" y="696"/>
      <point x="402" y="696" type="curve" smooth="yes"/>
      <point x="461" y="696"/>
      <point x="511" y="682"/>
      <point x="552" y="655" type="curve"/>
      <point x="625" y="754" type="line"/>
    </contour>
    <contour>
      <point x="390" y="607" type="curve" smooth="yes"/>
      <point x="280" y="607"/>
      <point x="195" y="544"/>
      <point x="173" y="388" type="curve" smooth="yes"/>
      <point x="158" y="278"/>
      <point x="156" y="260"/>
      <point x="156" y="244" type="curve" smooth="yes"/>
      <point x="156" y="204"/>
      <point x="163" y="172"/>
      <point x="177" y="147" type="curve"/>
      <point x="494" y="577" type="line"/>
      <point x="467" y="597"/>
      <point x="432" y="607"/>
    </contour>
    <contour>
      <point x="528" y="537" type="curve"/>
      <point x="211" y="107" type="line"/>
      <point x="238" y="88"/>
      <point x="272" y="79"/>
      <point x="315" y="79" type="curve" smooth="yes"/>
      <point x="423" y="79"/>
      <point x="508" y="142"/>
      <point x="532" y="298" type="curve" smooth="yes"/>
      <point x="548" y="406"/>
      <point x="549" y="426"/>
      <point x="549" y="442" type="curve" smooth="yes"/>
      <point x="549" y="481"/>
      <point x="541" y="512"/>
    </contour>
  </outline>
</glyph>
<glyph name="Yacute" format="1">
  <advance width="570"/>
  <unicode hex="00DD"/>
  <outline>
    <contour>
      <point x="510" y="891" type="line"/>
      <point x="374" y="750" type="line"/>
      <point x="305" y="750" type="line"/>
      <point x="420" y="895" type="line"/>
      <point x="510" y="895" type="line"/>
    </contour>
    <contour>
      <point x="329" y="265" type="line"/>
      <point x="291" y="0" type="line"/>
      <point x="193" y="0" type="line"/>
      <point x="231" y="265" type="line"/>
      <point x="49" y="686" type="line"/>
      <point x="160" y="686" type="line"/>
      <point x="298" y="367" type="line"/>
      <point x="302" y="367" type="line"/>
      <point x="528" y="686" type="line"/>
      <point x="629" y="686" type="line"/>
    </contour>
  </outline>
</glyph>
<glyph name="Thorn" format="1">
  <advance width="633"/>
  <unicode hex="00DE"/>
  <outline>
    <contour>
      <point x="228" y="562" type="line"/>
      <point x="426" y="562" type="line" smooth="yes"/>
      <point x="529" y="562"/>
      <point x="605" y="496"/>
      <point x="605" y="393" type="curve" smooth="yes"/>
      <point x="605" y="246"/>
      <point x="491" y="162"/>
      <point x="370" y="162" type="curve" smooth="yes"/>
      <point x="172" y="162" type="line"/>
      <point x="149" y="0" type="line"/>
      <point x="51" y="0" type="line"/>
      <point x="148" y="686" type="line"/>
      <point x="246" y="686" type="line"/>
    </contour>
    <contour>
      <point x="216" y="473" type="line"/>
      <point x="185" y="251" type="line"/>
      <point x="374" y="251" type="line" smooth="yes"/>
      <point x="443" y="251"/>
      <point x="506" y="310"/>
      <point x="506" y="378" type="curve" smooth="yes"/>
      <point x="506" y="431"/>
      <point x="465" y="473"/>
      <point x="405" y="473" type="curve" smooth="yes"/>
    </contour>
  </outline>
</glyph>
<glyph name="germandbls" format="1">
  <advance width="614"/>
  <unicode hex="00DF"/>
  <outline>
    <contour>
      <point x="392" y="728" type="curve" smooth="yes"/>
      <point x="497" y="728"/>
      <point x="579" y="670"/>
      <point x="579" y="571" type="curve" smooth="yes"/>
      <point x="579" y="482"/>
      <point x="528" y="418"/>
      <point x="456" y="391" type="curve"/>
      <point x="457" y="387" type="line"/>
      <point x="517" y="364"/>
      <point x="555" y="303"/>
      <point x="555" y="235" type="curve" smooth="yes"/>
      <point x="555" y="91"/>
      <point x="437" y="0"/>
      <point x="301" y="0" type="curve" smooth="yes"/>
      <point x="218" y="0" type="line"/>
      <point x="229" y="75" type="line"/>
      <point x="302" y="75" type="line" smooth="yes"/>
      <point x="384" y="75"/>
      <point x="461" y="145"/>
      <point x="461" y="232" type="curve" smooth="yes"/>
      <point x="461" y="296"/>
      <point x="411" y="346"/>
      <point x="340" y="346" type="curve" smooth="yes"/>
      <point x="267" y="346" type="line"/>
      <point x="277" y="420" type="line"/>
      <point x="342" y="420" type="line" smooth="yes"/>
      <point x="419" y="420"/>
      <point x="483" y="484"/>
      <point x="483" y="557" type="curve" smooth="yes"/>
      <point x="483" y="617"/>
      <point x="446" y="653"/>
      <point x="382" y="653" type="curve" smooth="yes"/>
      <point x="300" y="653"/>
      <point x="241" y="597"/>
      <point x="229" y="513" type="curve" smooth="yes"/>
      <point x="148" y="-66" type="line"/>
      <point x="54" y="-66" type="line"/>
      <point x="124" y="436" type="line"/>
      <point x="66" y="436" type="line"/>
      <point x="77" y="511" type="line"/>
      <point x="135" y="511" type="line"/>
      <point x="156" y="647"/>
      <point x="251" y="728"/>
    </contour>
  </outline>
</glyph>
<glyph name="atilde" format="1">
  <advance width="607"/>
  <unicode hex="00E3"/>
  <outline>
    <contour>
      <point x="478" y="720" type="curve"/>
      <point x="528" y="720" type="line"/>
      <point x="520" y="672"/>
      <point x="479" y="616"/>
      <point x="401" y="616" type="curve" smooth="yes"/>
      <point x="337" y="616"/>
      <point x="291" y="650"/>
      <point x="237" y="650" type="curve" smooth="yes"/>
      <point x="207" y="650"/>
      <point x="187" y="639"/>
      <point x="177" y="616" type="curve"/>
      <point x="129" y="616" type="line"/>
      <point x="137" y="661"/>
      <point x="177" y="720"/>
      <point x="255" y="720" type="curve" smooth="yes"/>
      <point x="319" y="720"/>
      <point x="365" y="685"/>
      <point x="418" y="685" type="curve" smooth="yes"/>
      <point x="448" y="685"/>
      <point x="468" y="697"/>
    </contour>
    <contour>
      <point x="284" y="521" type="curve" smooth="yes"/>
      <point x="353" y="521"/>
      <point x="403" y="490"/>
      <point x="427" y="446" type="curve"/>
      <point x="434" y="446" type="line"/>
      <point x="465" y="511" type="line"/>
      <point x="530" y="511" type="line"/>
      <point x="502" y="332"/>
      <point x="472" y="95"/>
      <point x="472" y="92" type="curve" smooth="yes"/>
      <point x="472" y="73"/>
      <point x="483" y="65"/>
      <point x="496" y="65" type="curve" smooth="yes"/>
      <point x="511" y="65"/>
      <point x="532" y="72"/>
      <point x="543" y="79" type="curve"/>
      <point x="534" y="10" type="line"/>
      <point x="521" y="2"/>
      <point x="493" y="-10"/>
      <point x="457" y="-10" type="curve" smooth="yes"/>
      <point x="398" y="-10"/>
      <point x="381" y="24"/>
      <point x="381" y="65" type="curve"/>
      <point x="338" y="18"/>
      <point x="285" y="-10"/>
      <point x="216" y="-10" type="curve" smooth="yes"/>
      <point x="116" y="-10"/>
      <point x="42" y="52"/>
      <point x="42" y="190" type="curve" smooth="yes"/>
      <point x="42" y="405"/>
      <point x="153" y="521"/>
    </contour>
    <contour>
      <point x="297" y="446" type="curve" smooth="yes"/>
      <point x="166" y="446"/>
      <point x="135" y="295"/>
      <point x="135" y="193" type="curve" smooth="yes"/>
      <point x="135" y="97"/>
      <point x="177" y="65"/>
      <point x="244" y="65" type="curve" smooth="yes"/>
      <point x="356" y="65"/>
      <point x="406" y="179"/>
      <point x="406" y="318" type="curve" smooth="yes"/>
      <point x="406" y="414"/>
      <point x="362" y="446"/>
    </contour>
  </outline>
</glyph>
<glyph name="adieresis" format="1">
  <advance width="607"/>
  <unicode hex="00E4"/>
  <outline>
    <contour>
      <point x="270" y="622" type="line"/>
      <point x="180" y="622" type="line"/>
      <point x="193" y="720" type="line"/>
      <point x="283" y="720" type="line"/>
    </contour>
    <contour>
      <point x="459" y="622" type="line"/>
      <point x="368" y="622" type="line"/>
      <point x="381" y="720" type="line"/>
      <point x="472" y="720" type="line"/>
    </contour>
    <contour>
      <point x="284" y="521" type="curve" smooth="yes"/>
      <point x="353" y="521"/>
      <point x="403" y="490"/>
      <point x="427" y="446" type="curve"/>
      <point x="434" y="446" type="line"/>
      <point x="465" y="511" type="line"/>
      <point x="530" y="511" type="line"/>
      <point x="502" y="332"/>
      <point x="472" y="95"/>
      <point x="472" y="92" type="curve" smooth="yes"/>
      <point x="472" y="73"/>
      <point x="483" y="65"/>
      <point x="496" y="65" type="curve" smooth="yes"/>
      <point x="511" y="65"/>
      <point x="532" y="72"/>
      <point x="543" y="79" type="curve"/>
      <point x="534" y="10" type="line"/>
      <point x="521" y="2"/>
      <point x="493" y="-10"/>
      <point x="457" y="-10" type="curve" smooth="yes"/>
      <point x="398" y="-10"/>
      <point x="381" y="24"/>
      <point x="381" y="65" type="curve"/>
      <point x="338" y="18"/>
      <point x="285" y="-10"/>
      <point x="216" y="-10" type="curve" smooth="yes"/>
      <point x="116" y="-10"/>
      <point x="42" y="52"/>
      <point x="42" y="190" type="curve" smooth="yes"/>
      <point x="42" y="405"/>
      <point x="153" y="521"/>
    </contour>
    <contour>
      <point x="297" y="446" type="curve" smooth="yes"/>
      <point x="166" y="446"/>
      <point x="135" y="295"/>
      <point x="135" y="193" type="curve" smooth="yes"/>
      <point x="135" y="97"/>
      <point x="177" y="65"/>
      <point x="244" y="65" type="curve" smooth="yes"/>
      <point x="356" y="65"/>
      <point x="406" y="179"/>
      <point x="406" y="318" type="curve" smooth="yes"/>
      <point x="406" y="414"/>
      <point x="362" y="446"/>
    </contour>
  </outline>
</glyph>
<glyph name="ecircumflex" format="1">
  <advance width="556"/>
  <unicode hex="00EA"/>
  <outline>
    <contour>
      <point x="491" y="575" type="line"/>
      <point x="411" y="575" type="line"/>
      <point x="330" y="664" type="line"/>
      <point x="222" y="575" type="line"/>
      <point x="142" y="575" type="line"/>
      <point x="299" y="720" type="line"/>
      <point x="377" y="720" type="line"/>
    </contour>
    <contour>
      <point x="314" y="521" type="curve" smooth="yes"/>
      <point x="321" y="521" type="line" smooth="yes"/>
      <point x="434" y="521"/>
      <point x="507" y="455"/>
      <point x="507" y="344" type="curve" smooth="yes"/>
      <point x="507" y="333" type="line" smooth="yes"/>
      <point x="507" y="321"/>
      <point x="504" y="294"/>
      <point x="494" y="234" type="curve"/>
      <point x="137" y="234" type="line"/>
      <point x="136" y="223"/>
      <point x="135" y="213"/>
      <point x="135" y="202" type="curve" smooth="yes"/>
      <point x="135" y="123"/>
      <point x="168" y="65"/>
      <point x="256" y="65" type="curve" smooth="yes"/>
      <point x="369" y="65"/>
      <point x="393" y="157"/>
      <point x="399" y="190" type="curve"/>
      <point x="488" y="190" type="line"/>
      <point x="471" y="66"/>
      <point x="383" y="-10"/>
      <point x="246" y="-10" type="curve" smooth="yes"/>
      <point x="242" y="-10" type="line" smooth="yes"/>
      <point x="121" y="-10"/>
      <point x="41" y="62"/>
      <point x="41" y="193" type="curve" smooth="yes"/>
      <point x="41" y="366"/>
      <point x="129" y="521"/>
    </contour>
    <contour>
      <point x="306" y="446" type="curve" smooth="yes"/>
      <point x="230" y="446"/>
      <point x="173" y="400"/>
      <point x="150" y="307" type="curve"/>
      <point x="412" y="307" type="line"/>
      <point x="415" y="327"/>
      <point x="415" y="335"/>
      <point x="415" y="343" type="curve" smooth="yes"/>
      <point x="415" y="411"/>
      <point x="369" y="446"/>
    </contour>
  </outline>
</glyph>
<glyph name="edieresis" format="1">
  <advance width="556"/>
  <unicode hex="00EB"/>
  <outline>
    <contour>
      <point x="273" y="622" type="line"/>
      <point x="183" y="622" type="line"/>
      <point x="196" y="720" type="line"/>
      <point x="286" y="720" type="line"/>
    </contour>
    <contour>
      <point x="462" y="622" type="line"/>
      <point x="371" y="622" type="line"/>
      <point x="384" y="720" type="line"/>
      <point x="475" y="720" type="line"/>
    </contour>
    <contour>
      <point x="314" y="521" type="curve" smooth="yes"/>
      <point x="321" y="521" type="line" smooth="yes"/>
      <point x="434" y="521"/>
      <point x="507" y="455"/>
      <point x="507" y="344" type="curve" smooth="yes"/>
      <point x="507" y="333" type="line" smooth="yes"/>
      <point x="507" y="321"/>
      <point x="504" y="294"/>
      <point x="494" y="234" type="curve"/>
      <point x="137" y="234" type="line"/>
      <point x="136" y="223"/>
      <point x="135" y="213"/>
      <point x="135" y="202" type="curve" smooth="yes"/>
      <point x="135" y="123"/>
      <point x="168" y="65"/>
      <point x="256" y="65" type="curve" smooth="yes"/>
      <point x="369" y="65"/>
      <point x="393" y="157"/>
      <point x="399" y="190" type="curve"/>
      <point x="488" y="190" type="line"/>
      <point x="471" y="66"/>
      <point x="383" y="-10"/>
      <point x="246" y="-10" type="curve" smooth="yes"/>
      <point x="242" y="-10" type="line" smooth="yes"/>
      <point x="121" y="-10"/>
      <point x="41" y="62"/>
      <point x="41" y="193" type="curve" smooth="yes"/>
      <point x="41" y="366"/>
      <point x="129" y="521"/>
    </contour>
    <contour>
      <point x="306" y="446" type="curve" smooth="yes"/>
      <point x="230" y="446"/>
      <point x="173" y="400"/>
      <point x="150" y="307" type="curve"/>
      <point x="412" y="307" type="line"/>
      <point x="415" y="327"/>
      <point x="415" y="335"/>
      <point x="415" y="343" type="curve" smooth="yes"/>
      <point x="415" y="411"/>
      <point x="369" y="446"/>
    </contour>
  </outline>
</glyph>
<glyph name="icircumflex" format="1">
  <advance width="261"/>
  <unicode hex="00EE"/>
  <outline>
    <contour>
      <point x="339" y="575" type="line"/>
      <point x="259" y="575" type="line"/>
      <point x="178" y="664" type="line"/>
      <point x="70" y="575" type="line"/>
      <point x="-10" y="575" type="line"/>
      <point x="147" y="720" type="line"/>
      <point x="225" y="720" type="line"/>
    </contour>
    <contour>
      <point x="137" y="0" type="line"/>
      <point x="43" y="0" type="line"/>
      <point x="114" y="511" type="line"/>
      <point x="208" y="511" type="line"/>
    </contour>
  </outline>
</glyph>
<glyph name="idieresis" format="1">
  <advance width="261"/>
  <unicode hex="00EF"/>
  <outline>
    <contour>
      <point x="123" y="621" type="line"/>
      <point x="33" y="621" type="line"/>
      <point x="46" y="719" type="line"/>
      <point x="136" y="719" type="line"/>
    </contour>
    <contour>
      <point x="312" y="621" type="line"/>
      <point x="221" y="621" type="line"/>
      <point x="234" y="719" type="line"/>
      <point x="325" y="719" type="line"/>
    </contour>
    <contour>
      <point x="137" y="0" type="line"/>
      <point x="43" y="0" type="line"/>
      <point x="114" y="511" type="line"/>
      <point x="208" y="511" type="line"/>
    </contour>
  </outline>
</glyph>
<glyph name="eth" format="1">
  <advance width="576"/>
  <unicode hex="00F0"/>
  <outline>
    <contour>
      <point x="234" y="729" type="curve"/>
      <point x="264" y="712"/>
      <point x="293" y="694"/>
      <point x="322" y="673" type="curve"/>
      <point x="422" y="717" type="line"/>
      <point x="431" y="705"/>
      <point x="441" y="695"/>
      <point x="449" y="683" type="curve"/>
      <point x="356" y="643" type="line"/>
      <point x="444" y="563"/>
      <point x="522" y="453"/>
      <point x="522" y="322" type="curve" smooth="yes"/>
      <point x="522" y="132"/>
      <point x="439" y="-10"/>
      <point x="245" y="-10" type="curve" smooth="yes"/>
      <point x="128" y="-10"/>
      <point x="40" y="54"/>
      <point x="40" y="188" type="curve" smooth="yes"/>
      <point x="40" y="352"/>
      <point x="123" y="521"/>
      <point x="319" y="521" type="curve" smooth="yes"/>
      <point x="329" y="521"/>
      <point x="340" y="520"/>
      <point x="351" y="518" type="curve"/>
      <point x="331" y="547"/>
      <point x="307" y="577"/>
      <point x="280" y="605" type="curve"/>
      <point x="248" y="590"/>
      <point x="215" y="577"/>
      <point x="183" y="562" type="curve"/>
      <point x="152" y="595" type="line"/>
      <point x="252" y="639" type="line"/>
      <point x="224" y="666"/>
      <point x="190" y="685"/>
      <point x="171" y="700" type="curve"/>
      <point x="194" y="711"/>
      <point x="214" y="718"/>
    </contour>
    <contour>
      <point x="309" y="446" type="curve" smooth="yes"/>
      <point x="181" y="446"/>
      <point x="136" y="310"/>
      <point x="136" y="198" type="curve" smooth="yes"/>
      <point x="136" y="103"/>
      <point x="187" y="65"/>
      <point x="255" y="65" type="curve" smooth="yes"/>
      <point x="379" y="65"/>
      <point x="427" y="195"/>
      <point x="427" y="311" type="curve" smooth="yes"/>
      <point x="427" y="407"/>
      <point x="377" y="446"/>
    </contour>
  </outline>
</glyph>
<glyph name="ograve" format="1">
  <advance width="576"/>
  <unicode hex="00F2"/>
  <outline>
    <contour>
      <point x="366" y="575" type="line"/>
      <point x="296" y="575" type="line"/>
      <point x="201" y="717" type="line"/>
      <point x="203" y="720" type="line"/>
      <point x="292" y="720" type="line"/>
    </contour>
    <contour>
      <point x="320" y="521" type="curve" smooth="yes"/>
      <point x="436" y="521"/>
      <point x="524" y="457"/>
      <point x="524" y="324" type="curve" smooth="yes"/>
      <point x="524" y="159"/>
      <point x="456" y="-10"/>
      <point x="245" y="-10" type="curve" smooth="yes"/>
      <point x="129" y="-10"/>
      <point x="41" y="54"/>
      <point x="41" y="187" type="curve" smooth="yes"/>
      <point x="41" y="351"/>
      <point x="109" y="521"/>
    </contour>
    <contour>
      <point x="309" y="446" type="curve" smooth="yes"/>
      <point x="173" y="446"/>
      <point x="136" y="309"/>
      <point x="136" y="200" type="curve" smooth="yes"/>
      <point x="136" y="105"/>
      <point x="188" y="65"/>
      <point x="256" y="65" type="curve" smooth="yes"/>
      <point x="387" y="65"/>
      <point x="428" y="201"/>
      <point x="428" y="310" type="curve" smooth="yes"/>
      <point x="428" y="406"/>
      <point x="377" y="446"/>
    </contour>
  </outline>
</glyph>
<glyph name="divide" format="1">
  <advance width="615"/>
  <unicode hex="00F7"/>
  <outline>
    <contour>
      <point x="360" y="369" type="line"/>
      <point x="277" y="369" type="line"/>
      <point x="290" y="460" type="line"/>
      <point x="373" y="460" type="line"/>
    </contour>
    <contour>
      <point x="553" y="213" type="line"/>
      <point x="41" y="213" type="line"/>
      <point x="52" y="297" type="line"/>
      <point x="564" y="297" type="line"/>
    </contour>
    <contour>
      <point x="316" y="51" type="line"/>
      <point x="233" y="51" type="line"/>
      <point x="245" y="141" type="line"/>
      <point x="328" y="141" type="line"/>
    </contour>
  </outline>
</glyph>
<glyph name="oslash" format="1">
  <advance width="576"/>
  <unicode hex="00F8"/>
  <outline>
    <contour>
      <point x="550" y="568" type="line"/>
      <point x="472" y="466" type="line"/>
      <point x="504" y="433"/>
      <point x="524" y="387"/>
      <point x="524" y="324" type="curve" smooth="yes"/>
      <point x="524" y="159"/>
      <point x="456" y="-10"/>
      <point x="245" y="-10" type="curve" smooth="yes"/>
      <point x="200" y="-10"/>
      <point x="161" y="-1"/>
      <point x="129" y="17" type="curve"/>
      <point x="74" y="-55" type="line"/>
      <point x="15" y="-55" type="line"/>
      <point x="92" y="45" type="line"/>
      <point x="60" y="78"/>
      <point x="41" y="123"/>
      <point x="41" y="187" type="curve" smooth="yes"/>
      <point x="41" y="351"/>
      <point x="109" y="521"/>
      <point x="320" y="521" type="curve" smooth="yes"/>
      <point x="364" y="521"/>
      <point x="402" y="512"/>
      <point x="434" y="494" type="curve"/>
      <point x="491" y="568" type="line"/>
    </contour>
    <contour>
      <point x="309" y="446" type="curve" smooth="yes"/>
      <point x="172" y="446"/>
      <point x="144" y="309"/>
      <point x="136" y="200" type="curve" smooth="yes"/>
      <point x="136" y="169"/>
      <point x="141" y="143"/>
      <point x="151" y="123" type="curve"/>
      <point x="381" y="425" type="line"/>
      <point x="361" y="439"/>
      <point x="337" y="446"/>
    </contour>
    <contour>
      <point x="412" y="388" type="curve"/>
      <point x="182" y="86" type="line"/>
      <point x="201" y="72"/>
      <point x="225" y="65"/>
      <point x="256" y="65" type="curve" smooth="yes"/>
      <point x="387" y="65"/>
      <point x="428" y="201"/>
      <point x="428" y="310" type="curve" smooth="yes"/>
      <point x="428" y="341"/>
      <point x="423" y="367"/>
    </contour>
  </outline>
</glyph>
<glyph name="thorn" format="1">
  <advance width="582"/>
  <unicode hex="00FE"/>
  <outline>
    <contour>
      <point x="238" y="720" type="line"/>
      <point x="201" y="455" type="line"/>
      <point x="241" y="498"/>
      <point x="293" y="521"/>
      <point x="357" y="521" type="curve" smooth="yes"/>
      <point x="456" y="521"/>
      <point x="531" y="459"/>
      <point x="531" y="320" type="curve" smooth="yes"/>
      <point x="531" y="184"/>
      <point x="469" y="-10"/>
      <point x="289" y="-10" type="curve" smooth="yes"/>
      <point x="217" y="-10"/>
      <point x="170" y="21"/>
      <point x="146" y="65" type="curve"/>
      <point x="111" y="-181" type="line"/>
      <point x="17" y="-181" type="line"/>
      <point x="144" y="720" type="line"/>
    </contour>
    <contour>
      <point x="329" y="446" type="curve" smooth="yes"/>
      <point x="241" y="446"/>
      <point x="167" y="376"/>
      <point x="167" y="193" type="curve" smooth="yes"/>
      <point x="167" y="97"/>
      <point x="209" y="65"/>
      <point x="276" y="65" type="curve" smooth="yes"/>
      <point x="402" y="65"/>
      <point x="438" y="210"/>
      <point x="438" y="317" type="curve" smooth="yes"/>
      <point x="438" y="414"/>
      <point x="394" y="446"/>
    </contour>
  </outline>
</glyph>
<glyph name="ydieresis" format="1">
  <advance width="510"/>
  <unicode hex="00FF"/>
  <outline>
    <contour>
      <point x="247" y="621" type="line"/>
      <point x="157" y="621" type="line"/>
      <point x="170" y="719" type="line"/>
      <point x="260" y="719" type="line"/>
    </contour>
    <contour>
      <point x="436" y="621" type="line"/>
      <point x="345" y="621" type="line"/>
      <point x="358" y="719" type="line"/>
      <point x="449" y="719" type="line"/>
    </contour>
    <contour>
      <point x="529" y="511" type="line"/>
      <point x="269" y="20" type="line" smooth="yes"/>
      <point x="210" y="-92"/>
      <point x="145" y="-186"/>
      <point x="52" y="-186" type="curve" smooth="yes"/>
      <point x="23" y="-186"/>
      <point x="0" y="-181"/>
      <point x="-19" y="-172" type="curve"/>
      <point x="-9" y="-95" type="line"/>
      <point x="4" y="-102"/>
      <point x="28" y="-109"/>
      <point x="49" y="-109" type="curve" smooth="yes"/>
      <point x="73" y="-109"/>
      <point x="124" y="-96"/>
      <point x="169" y="5" type="curve"/>
      <point x="42" y="511" type="line"/>
      <point x="141" y="511" type="line"/>
      <point x="235" y="134" type="line"/>
      <point x="239" y="134" type="line"/>
      <point x="437" y="511" type="line"/>
    </contour>
  </outline>
</glyph>
<glyph name="Amacron" format="1">
  <advance width="650"/>
  <unicode hex="0100"/>
  <outline>
    <contour>
      <point x="555" y="837" type="line"/>
      <point x="237" y="837" type="line"/>
      <point x="248" y="911" type="line"/>
      <point x="566" y="911" type="line"/>
    </contour>
    <contour>
      <point x="607" y="0" type="line"/>
      <point x="501" y="0" type="line"/>
      <point x="464" y="149" type="line"/>
      <point x="136" y="149" type="line"/>
      <point x="58" y="0" type="line"/>
      <point x="-36" y="0" type="line"/>
      <point x="328" y="686" type="line"/>
      <point x="436" y="686" type="line"/>
    </contour>
    <contour>
      <point x="357" y="568" type="line"/>
      <point x="184" y="238" type="line"/>
      <point x="443" y="238" type="line"/>
      <point x="363" y="568" type="line"/>
    </contour>
  </outline>
</glyph>
<glyph name="amacron" format="1">
  <advance width="607"/>
  <unicode hex="0101"/>
  <outline>
    <contour>
      <point x="477" y="662" type="line"/>
      <point x="159" y="662" type="line"/>
      <point x="170" y="736" type="line"/>
      <point x="488" y="736" type="line"/>
    </contour>
    <contour>
      <point x="284" y="521" type="curve" smooth="yes"/>
      <point x="353" y="521"/>
      <point x="403" y="490"/>
      <point x="427" y="446" type="curve"/>
      <point x="434" y="446" type="line"/>
      <point x="465" y="511" type="line"/>
      <point x="530" y="511" type="line"/>
      <point x="502" y="332"/>
      <point x="472" y="95"/>
      <point x="472" y="92" type="curve" smooth="yes"/>
      <point x="472" y="73"/>
      <point x="483" y="65"/>
      <point x="496" y="65" type="curve" smooth="yes"/>
      <point x="511" y="65"/>
      <point x="532" y="72"/>
      <point x="543" y="79" type="curve"/>
      <point x="534" y="10" type="line"/>
      <point x="521" y="2"/>
      <point x="493" y="-10"/>
      <point x="457" y="-10" type="curve" smooth="yes"/>
      <point x="398" y="-10"/>
      <point x="381" y="24"/>
      <point x="381" y="65" type="curve"/>
      <point x="338" y="18"/>
      <point x="285" y="-10"/>
      <point x="216" y="-10" type="curve" smooth="yes"/>
      <point x="116" y="-10"/>
      <point x="42" y="52"/>
      <point x="42" y="190" type="curve" smooth="yes"/>
      <point x="42" y="405"/>
      <point x="153" y="521"/>
    </contour>
    <contour>
      <point x="297" y="446" type="curve" smooth="yes"/>
      <point x="166" y="446"/>
      <point x="135" y="295"/>
      <point x="135" y="193" type="curve" smooth="yes"/>
      <point x="135" y="97"/>
      <point x="177" y="65"/>
      <point x="244" y="65" type="curve" smooth="yes"/>
      <point x="356" y="65"/>
      <point x="406" y="179"/>
      <point x="406" y="318" type="curve" smooth="yes"/>
      <point x="406" y="414"/>
      <point x="362" y="446"/>
    </contour>
  </outline>
</glyph>
<glyph name="Abreve" format="1">
  <advance width="650"/>
  <unicode hex="0102"/>
  <outline>
    <contour>
      <point x="527" y="912" type="curve"/>
      <point x="595" y="912" type="line"/>
      <point x="587" y="856"/>
      <point x="493" y="788"/>
      <point x="385" y="788" type="curve" smooth="yes"/>
      <point x="285" y="788"/>
      <point x="209" y="849"/>
      <point x="209" y="904" type="curve" smooth="yes"/>
      <point x="209" y="907"/>
      <point x="209" y="910"/>
      <point x="210" y="912" type="curve" smooth="yes"/>
      <point x="277" y="912" type="line"/>
      <point x="284" y="876"/>
      <point x="332" y="850"/>
      <point x="395" y="850" type="curve" smooth="yes"/>
      <point x="456" y="850"/>
      <point x="511" y="876"/>
    </contour>
    <contour>
      <point x="607" y="0" type="line"/>
      <point x="501" y="0" type="line"/>
      <point x="464" y="149" type="line"/>
      <point x="136" y="149" type="line"/>
      <point x="58" y="0" type="line"/>
      <point x="-36" y="0" type="line"/>
      <point x="328" y="686" type="line"/>
      <point x="436" y="686" type="line"/>
    </contour>
    <contour>
      <point x="357" y="568" type="line"/>
      <point x="184" y="238" type="line"/>
      <point x="443" y="238" type="line"/>
      <point x="363" y="568" type="line"/>
    </contour>
  </outline>
</glyph>
<glyph name="Aogonek" format="1">
  <advance width="650"/>
  <unicode hex="0104"/>
  <outline>
    <contour>
      <point x="636" y="-82" type="curve"/>
      <point x="644" y="-119" type="line"/>
      <point x="615" y="-135"/>
      <point x="584" y="-143"/>
      <point x="551" y="-143" type="curve" smooth="yes"/>
      <point x="508" y="-143"/>
      <point x="464" y="-128"/>
      <point x="464" y="-83" type="curve" smooth="yes"/>
      <point x="464" y="-44"/>
      <point x="497" y="-19"/>
      <point x="529" y="0" type="curve"/>
      <point x="501" y="0" type="line"/>
      <point x="464" y="149" type="line"/>
      <point x="136" y="149" type="line"/>
      <point x="58" y="0" type="line"/>
      <point x="-36" y="0" type="line"/>
      <point x="328" y="686" type="line"/>
      <point x="436" y="686" type="line"/>
      <point x="607" y="0" type="line"/>
      <point x="583" y="0" type="line"/>
      <point x="558" y="-11"/>
      <point x="527" y="-40"/>
      <point x="527" y="-65" type="curve" smooth="yes"/>
      <point x="527" y="-88"/>
      <point x="548" y="-96"/>
      <point x="567" y="-96" type="curve" smooth="yes"/>
      <point x="591" y="-96"/>
      <point x="613" y="-89"/>
    </contour>
    <contour>
      <point x="443" y="238" type="line"/>
      <point x="363" y="568" type="line"/>
      <point x="357" y="568" type="line"/>
      <point x="184" y="238" type="line"/>
    </contour>
  </outline>
</glyph>
<glyph name="aogonek" format="1">
  <advance width="607"/>
  <unicode hex="0105"/>
  <outline>
    <contour>
      <point x="557" y="-82" type="curve"/>
      <point x="565" y="-119" type="line"/>
      <point x="536" y="-135"/>
      <point x="505" y="-143"/>
      <point x="472" y="-143" type="curve" smooth="yes"/>
      <point x="429" y="-143"/>
      <point x="385" y="-128"/>
      <point x="385" y="-83" type="curve" smooth="yes"/>
      <point x="385" y="-49"/>
      <point x="409" y="-26"/>
      <point x="437" y="-8" type="curve"/>
      <point x="394" y="-1"/>
      <point x="381" y="29"/>
      <point x="381" y="65" type="curve"/>
      <point x="338" y="18"/>
      <point x="285" y="-10"/>
      <point x="216" y="-10" type="curve" smooth="yes"/>
      <point x="116" y="-10"/>
      <point x="42" y="52"/>
      <point x="42" y="190" type="curve" smooth="yes"/>
      <point x="42" y="405"/>
      <point x="153" y="521"/>
      <point x="284" y="521" type="curve" smooth="yes"/>
      <point x="353" y="521"/>
      <point x="403" y="490"/>
      <point x="427" y="446" type="curve"/>
      <point x="434" y="446" type="line"/>
      <point x="465" y="511" type="line"/>
      <point x="530" y="511" type="line"/>
      <point x="502" y="332"/>
      <point x="472" y="95"/>
      <point x="472" y="92" type="curve" smooth="yes"/>
      <point x="472" y="73"/>
      <point x="483" y="65"/>
      <point x="496" y="65" type="curve" smooth="yes"/>
      <point x="511" y="65"/>
      <point x="532" y="72"/>
      <point x="543" y="79" type="curve"/>
      <point x="534" y="10" type="line"/>
      <point x="526" y="5"/>
      <point x="511" y="-2"/>
      <point x="493" y="-6" type="curve"/>
      <point x="470" y="-20"/>
      <point x="448" y="-44"/>
      <point x="448" y="-65" type="curve" smooth="yes"/>
      <point x="448" y="-88"/>
      <point x="469" y="-96"/>
      <point x="488" y="-96" type="curve" smooth="yes"/>
      <point x="512" y="-96"/>
      <point x="534" y="-89"/>
    </contour>
    <contour>
      <point x="244" y="65" type="curve" smooth="yes"/>
      <point x="356" y="65"/>
      <point x="406" y="179"/>
      <point x="406" y="318" type="curve" smooth="yes"/>
      <point x="406" y="414"/>
      <point x="362" y="446"/>
      <point x="297" y="446" type="curve" smooth="yes"/>
      <point x="166" y="446"/>
      <point x="135" y="295"/>
      <point x="135" y="193" type="curve" smooth="yes"/>
      <point x="135" y="97"/>
      <point x="177" y="65"/>
    </contour>
  </outline>
</glyph>
<glyph name="Cacute" format="1">
  <advance width="662"/>
  <unicode hex="0106"/>
  <outline>
    <contour>
      <point x="523" y="891" type="line"/>
      <point x="387" y="750" type="line"/>
      <point x="318" y="750" type="line"/>
      <point x="433" y="895" type="line"/>
      <point x="523" y="895" type="line"/>
    </contour>
    <contour>
      <point x="400" y="696" type="curve" smooth="yes"/>
      <point x="533" y="696"/>
      <point x="631" y="624"/>
      <point x="631" y="477" type="curve" smooth="yes"/>
      <point x="631" y="460"/>
      <point x="630" y="442"/>
      <point x="627" y="423" type="curve"/>
      <point x="529" y="423" type="line"/>
      <point x="531" y="438"/>
      <point x="532" y="452"/>
      <point x="532" y="466" type="curve" smooth="yes"/>
      <point x="532" y="565"/>
      <point x="473" y="607"/>
      <point x="388" y="607" type="curve" smooth="yes"/>
      <point x="279" y="607"/>
      <point x="195" y="544"/>
      <point x="173" y="388" type="curve" smooth="yes"/>
      <point x="157" y="279"/>
      <point x="156" y="258"/>
      <point x="156" y="241" type="curve" smooth="yes"/>
      <point x="156" y="126"/>
      <point x="217" y="79"/>
      <point x="313" y="79" type="curve" smooth="yes"/>
      <point x="412" y="79"/>
      <point x="492" y="134"/>
      <point x="510" y="261" type="curve"/>
      <point x="604" y="261" type="line"/>
      <point x="577" y="74"/>
      <point x="459" y="-10"/>
      <point x="301" y="-10" type="curve" smooth="yes"/>
      <point x="156" y="-10"/>
      <point x="57" y="69"/>
      <point x="57" y="232" type="curve" smooth="yes"/>
      <point x="57" y="253"/>
      <point x="58" y="275"/>
      <point x="75" y="388" type="curve" smooth="yes"/>
      <point x="105" y="597"/>
      <point x="225" y="696"/>
    </contour>
    <contour>
      <point x="331" y="0" type="move" name="Bottom"/>
    </contour>
  </outline>
</glyph>
<glyph name="ccaron" format="1">
  <advance width="546"/>
  <unicode hex="010D"/>
  <outline>
    <contour>
      <point x="341" y="575" type="line"/>
      <point x="263" y="575" type="line"/>
      <point x="148" y="720" type="line"/>
      <point x="228" y="720" type="line"/>
      <point x="310" y="631" type="line"/>
      <point x="417" y="720" type="line"/>
      <point x="497" y="720" type="line"/>
    </contour>
    <contour>
      <point x="309" y="521" type="curve" smooth="yes"/>
      <point x="317" y="521" type="line" smooth="yes"/>
      <point x="429" y="521"/>
      <point x="502" y="454"/>
      <point x="502" y="346" type="curve" smooth="yes"/>
      <point x="502" y="335"/>
      <point x="501" y="323"/>
      <point x="499" y="310" type="curve"/>
      <point x="406" y="310" type="line"/>
      <point x="407" y="319"/>
      <point x="408" y="328"/>
      <point x="408" y="337" type="curve" smooth="yes"/>
      <point x="408" y="400"/>
      <point x="374" y="446"/>
      <point x="301" y="446" type="curve" smooth="yes"/>
      <point x="168" y="446"/>
      <point x="135" y="303"/>
      <point x="135" y="192" type="curve" smooth="yes"/>
      <point x="135" y="104"/>
      <point x="180" y="65"/>
      <point x="252" y="65" type="curve" smooth="yes"/>
      <point x="337" y="65"/>
      <point x="383" y="121"/>
      <point x="394" y="200" type="curve"/>
      <point x="484" y="200" type="line"/>
      <point x="465" y="64"/>
      <point x="376" y="-10"/>
      <point x="243" y="-10" type="curve" smooth="yes"/>
      <point x="235" y="-10" type="line" smooth="yes"/>
      <point x="120" y="-10"/>
      <point x="42" y="63"/>
      <point x="42" y="191" type="curve" smooth="yes"/>
      <point x="42" y="366"/>
      <point x="124" y="521"/>
    </contour>
    <contour>
      <point x="273" y="0" type="move" name="Bottom"/>
    </contour>
  </outline>
</glyph>
<glyph name="Dcaron" format="1">
  <advance width="677"/>
  <unicode hex="010E"/>
  <outline>
    <contour>
      <point x="377" y="750" type="line"/>
      <point x="299" y="750" type="line"/>
      <point x="184" y="895" type="line"/>
      <point x="264" y="895" type="line"/>
      <point x="346" y="806" type="line"/>
      <point x="453" y="895" type="line"/>
      <point x="533" y="895" type="line"/>
    </contour>
    <contour>
      <point x="148" y="686" type="line"/>
      <point x="386" y="686" type="line" smooth="yes"/>
      <point x="526" y="686"/>
      <point x="631" y="607"/>
      <point x="631" y="442" type="curve" smooth="yes"/>
      <point x="631" y="421"/>
      <point x="629" y="402"/>
      <point x="618" y="308" type="curve" smooth="yes"/>
      <point x="593" y="99"/>
      <point x="470" y="0"/>
      <point x="289" y="0" type="curve" smooth="yes"/>
      <point x="51" y="0" type="line"/>
    </contour>
    <contour>
      <point x="233" y="597" type="line"/>
      <point x="162" y="89" type="line"/>
      <point x="302" y="89" type="line" smooth="yes"/>
      <point x="408" y="89"/>
      <point x="498" y="152"/>
      <point x="519" y="308" type="curve" smooth="yes"/>
      <point x="530" y="397"/>
      <point x="532" y="415"/>
      <point x="532" y="432" type="curve" smooth="yes"/>
      <point x="532" y="548"/>
      <point x="467" y="597"/>
      <point x="373" y="597" type="curve" smooth="yes"/>
    </contour>
  </outline>
</glyph>
<glyph name="Dcroat" format="1">
  <advance width="682"/>
  <unicode hex="0110"/>
  <outline>
    <contour>
      <point x="153" y="686" type="line"/>
      <point x="391" y="686" type="line" smooth="yes"/>
      <point x="531" y="686"/>
      <point x="636" y="607"/>
      <point x="636" y="442" type="curve" smooth="yes"/>
      <point x="636" y="421"/>
      <point x="634" y="402"/>
      <point x="623" y="308" type="curve" smooth="yes"/>
      <point x="598" y="99"/>
      <point x="475" y="0"/>
      <point x="294" y="0" type="curve" smooth="yes"/>
      <point x="56" y="0" type="line"/>
      <point x="100" y="310" type="line"/>
      <point x="10" y="310" type="line"/>
      <point x="18" y="375" type="line"/>
      <point x="109" y="375" type="line"/>
    </contour>
    <contour>
      <point x="238" y="597" type="line"/>
      <point x="207" y="375" type="line"/>
      <point x="352" y="375" type="line"/>
      <point x="343" y="310" type="line"/>
      <point x="198" y="310" type="line"/>
      <point x="167" y="89" type="line"/>
      <point x="307" y="89" type="line" smooth="yes"/>
      <point x="413" y="89"/>
      <point x="503" y="152"/>
      <point x="524" y="308" type="curve" smooth="yes"/>
      <point x="535" y="397"/>
      <point x="537" y="415"/>
      <point x="537" y="432" type="curve" smooth="yes"/>
      <point x="537" y="548"/>
      <point x="472" y="597"/>
      <point x="378" y="597" type="curve" smooth="yes"/>
    </contour>
  </outline>
</glyph>
<glyph name="Edotaccent" format="1">
  <advance width="592"/>
  <unicode hex="0116"/>
  <outline>
    <contour>
      <point x="384" y="911" type="curve" smooth="yes"/>
      <point x="419" y="911"/>
      <point x="442" y="885"/>
      <point x="442" y="852" type="curve" smooth="yes"/>
      <point x="442" y="813"/>
      <point x="409" y="779"/>
      <point x="364" y="779" type="curve" smooth="yes"/>
      <point x="333" y="779"/>
      <point x="309" y="802"/>
      <point x="309" y="833" type="curve" smooth="yes"/>
      <point x="309" y="876"/>
      <point x="337" y="911"/>
    </contour>
    <contour>
      <point x="572" y="597" type="line"/>
      <point x="233" y="597" type="line"/>
      <point x="205" y="395" type="line"/>
      <point x="512" y="395" type="line"/>
      <point x="499" y="306" type="line"/>
      <point x="192" y="306" type="line"/>
      <point x="162" y="89" type="line"/>
      <point x="507" y="89" type="line"/>
      <point x="507" y="0" type="line"/>
      <point x="51" y="0" type="line"/>
      <point x="148" y="686" type="line"/>
      <point x="598" y="686" type="line"/>
    </contour>
    <contour>
      <point x="296" y="0" type="move" name="Bottom"/>
    </contour>
  </outline>
</glyph>
<glyph name="edotaccent" format="1">
  <advance width="556"/>
  <unicode hex="0117"/>
  <outline>
    <contour>
      <point x="336" y="736" type="curve" smooth="yes"/>
      <point x="371" y="736"/>
      <point x="394" y="710"/>
      <point x="394" y="677" type="curve" smooth="yes"/>
      <point x="394" y="638"/>
      <point x="361" y="604"/>
      <point x="316" y="604" type="curve" smooth="yes"/>
      <point x="285" y="604"/>
      <point x="261" y="627"/>
      <point x="261" y="658" type="curve" smooth="yes"/>
      <point x="261" y="701"/>
      <point x="289" y="736"/>
    </contour>
    <contour>
      <point x="314" y="521" type="curve" smooth="yes"/>
      <point x="321" y="521" type="line" smooth="yes"/>
      <point x="434" y="521"/>
      <point x="507" y="455"/>
      <point x="507" y="344" type="curve" smooth="yes"/>
      <point x="507" y="333" type="line" smooth="yes"/>
      <point x="507" y="321"/>
      <point x="504" y="294"/>
      <point x="494" y="234" type="curve"/>
      <point x="137" y="234" type="line"/>
      <point x="136" y="223"/>
      <point x="135" y="213"/>
      <point x="135" y="202" type="curve" smooth="yes"/>
      <point x="135" y="123"/>
      <point x="168" y="65"/>
      <point x="256" y="65" type="curve" smooth="yes"/>
      <point x="369" y="65"/>
      <point x="393" y="157"/>
      <point x="399" y="190" type="curve"/>
      <point x="488" y="190" type="line"/>
      <point x="471" y="66"/>
      <point x="383" y="-10"/>
      <point x="246" y="-10" type="curve" smooth="yes"/>
      <point x="242" y="-10" type="line" smooth="yes"/>
      <point x="121" y="-10"/>
      <point x="41" y="62"/>
      <point x="41" y="193" type="curve" smooth="yes"/>
      <point x="41" y="366"/>
      <point x="129" y="521"/>
    </contour>
    <contour>
      <point x="306" y="446" type="curve" smooth="yes"/>
      <point x="230" y="446"/>
      <point x="173" y="400"/>
      <point x="150" y="307" type="curve"/>
      <point x="412" y="307" type="line"/>
      <point x="415" y="327"/>
      <point x="415" y="335"/>
      <point x="415" y="343" type="curve" smooth="yes"/>
      <point x="415" y="411"/>
      <point x="369" y="446"/>
    </contour>
    <contour>
      <point x="278" y="0" type="move" name="Bottom"/>
    </contour>
  </outline>
</glyph>
<glyph name="Eogonek" format="1">
  <advance width="592"/>
  <unicode hex="0118"/>
  <outline>
    <contour>
      <point x="233" y="597" type="line"/>
      <point x="205" y="395" type="line"/>
      <point x="512" y="395" type="line"/>
      <point x="499" y="306" type="line"/>
      <point x="192" y="306" type="line"/>
      <point x="162" y="89" type="line"/>
      <point x="507" y="89" type="line"/>
      <point x="507" y="0" type="line"/>
      <point x="501" y="0" type="line"/>
      <point x="476" y="-11"/>
      <point x="445" y="-40"/>
      <point x="445" y="-65" type="curve" smooth="yes"/>
      <point x="445" y="-88"/>
      <point x="466" y="-96"/>
      <point x="485" y="-96" type="curve" smooth="yes"/>
      <point x="509" y="-96"/>
      <point x="531" y="-89"/>
      <point x="554" y="-82" type="curve"/>
      <point x="562" y="-119" type="line"/>
      <point x="533" y="-135"/>
      <point x="502" y="-143"/>
      <point x="469" y="-143" type="curve" smooth="yes"/>
      <point x="426" y="-143"/>
      <point x="382" y="-128"/>
      <point x="382" y="-83" type="curve" smooth="yes"/>
      <point x="382" y="-44"/>
      <point x="415" y="-19"/>
      <point x="447" y="0" type="curve"/>
      <point x="51" y="0" type="line"/>
      <point x="148" y="686" type="line"/>
      <point x="598" y="686" type="line"/>
      <point x="572" y="597" type="line"/>
    </contour>
    <contour>
      <point x="296" y="0" type="move" name="Bottom"/>
    </contour>
  </outline>
</glyph>
<glyph name="eogonek" format="1">
  <advance width="556"/>
  <unicode hex="0119"/>
  <outline>
    <contour>
      <point x="314" y="521" type="curve" smooth="yes"/>
      <point x="321" y="521" type="line" smooth="yes"/>
      <point x="434" y="521"/>
      <point x="507" y="455"/>
      <point x="507" y="344" type="curve" smooth="yes"/>
      <point x="507" y="333" type="line" smooth="yes"/>
      <point x="507" y="321"/>
      <point x="504" y="294"/>
      <point x="494" y="234" type="curve"/>
      <point x="137" y="234" type="line"/>
      <point x="136" y="223"/>
      <point x="135" y="213"/>
      <point x="135" y="202" type="curve" smooth="yes"/>
      <point x="135" y="123"/>
      <point x="168" y="65"/>
      <point x="256" y="65" type="curve" smooth="yes"/>
      <point x="369" y="65"/>
      <point x="393" y="157"/>
      <point x="399" y="190" type="curve"/>
      <point x="488" y="190" type="line"/>
      <point x="475" y="92"/>
      <point x="417" y="24"/>
      <point x="326" y="0" type="curve"/>
      <point x="348" y="0" type="line"/>
      <point x="323" y="-11"/>
      <point x="292" y="-40"/>
      <point x="292" y="-65" type="curve" smooth="yes"/>
      <point x="292" y="-88"/>
      <point x="313" y="-96"/>
      <point x="332" y="-96" type="curve" smooth="yes"/>
      <point x="356" y="-96"/>
      <point x="378" y="-89"/>
      <point x="401" y="-82" type="curve"/>
      <point x="409" y="-119" type="line"/>
      <point x="380" y="-135"/>
      <point x="349" y="-143"/>
      <point x="316" y="-143" type="curve" smooth="yes"/>
      <point x="273" y="-143"/>
      <point x="229" y="-128"/>
      <point x="229" y="-83" type="curve" smooth="yes"/>
      <point x="229" y="-49"/>
      <point x="253" y="-26"/>
      <point x="281" y="-8" type="curve"/>
      <point x="270" y="-9"/>
      <point x="258" y="-10"/>
      <point x="246" y="-10" type="curve" smooth="yes"/>
      <point x="242" y="-10" type="line" smooth="yes"/>
      <point x="121" y="-10"/>
      <point x="41" y="62"/>
      <point x="41" y="193" type="curve" smooth="yes"/>
      <point x="41" y="366"/>
      <point x="129" y="521"/>
    </contour>
    <contour>
      <point x="150" y="307" type="curve"/>
      <point x="412" y="307" type="line"/>
      <point x="415" y="327"/>
      <point x="415" y="335"/>
      <point x="415" y="343" type="curve" smooth="yes"/>
      <point x="415" y="411"/>
      <point x="369" y="446"/>
      <point x="306" y="446" type="curve" smooth="yes"/>
      <point x="230" y="446"/>
      <point x="173" y="400"/>
    </contour>
    <contour>
      <point x="278" y="0" type="move" name="Bottom"/>
    </contour>
  </outline>
</glyph>
<glyph name="Ecaron" format="1">
  <advance width="592"/>
  <unicode hex="011A"/>
  <outline>
    <contour>
      <point x="394" y="750" type="line"/>
      <point x="316" y="750" type="line"/>
      <point x="201" y="895" type="line"/>
      <point x="281" y="895" type="line"/>
      <point x="363" y="806" type="line"/>
      <point x="470" y="895" type="line"/>
      <point x="550" y="895" type="line"/>
    </contour>
    <contour>
      <point x="572" y="597" type="line"/>
      <point x="233" y="597" type="line"/>
      <point x="205" y="395" type="line"/>
      <point x="512" y="395" type="line"/>
      <point x="499" y="306" type="line"/>
      <point x="192" y="306" type="line"/>
      <point x="162" y="89" type="line"/>
      <point x="507" y="89" type="line"/>
      <point x="507" y="0" type="line"/>
      <point x="51" y="0" type="line"/>
      <point x="148" y="686" type="line"/>
      <point x="598" y="686" type="line"/>
    </contour>
    <contour>
      <point x="296" y="0" type="move" name="Bottom"/>
    </contour>
  </outline>
</glyph>
<glyph name="gcommaaccent" format="1">
  <advance width="583"/>
  <unicode hex="0123"/>
  <outline>
    <contour>
      <point x="280" y="666" type="line"/>
      <point x="327" y="791" type="line"/>
      <point x="380" y="791" type="line"/>
      <point x="344" y="692" type="line"/>
      <point x="385" y="692" type="line"/>
      <point x="369" y="581" type="line"/>
      <point x="268" y="581" type="line"/>
    </contour>
    <contour>
      <point x="292" y="521" type="curve" smooth="yes"/>
      <point x="369" y="521"/>
      <point x="422" y="491"/>
      <point x="451" y="430" type="curve"/>
      <point x="496" y="511" type="line"/>
      <point x="532" y="511" type="line"/>
      <point x="465" y="34" type="line" smooth="yes"/>
      <point x="449" y="-89"/>
      <point x="375" y="-186"/>
      <point x="213" y="-186" type="curve" smooth="yes"/>
      <point x="81" y="-186"/>
      <point x="21" y="-111"/>
      <point x="21" y="-19" type="curve"/>
      <point x="114" y="-19" type="line"/>
      <point x="114" y="-75"/>
      <point x="154" y="-111"/>
      <point x="223" y="-111" type="curve" smooth="yes"/>
      <point x="305" y="-111"/>
      <point x="358" y="-54"/>
      <point x="368" y="15" type="curve" smooth="yes"/>
      <point x="379" y="95" type="line"/>
      <point x="344" y="52"/>
      <point x="287" y="20"/>
      <point x="215" y="20" type="curve" smooth="yes"/>
      <point x="117" y="20"/>
      <point x="44" y="85"/>
      <point x="44" y="208" type="curve" smooth="yes"/>
      <point x="44" y="368"/>
      <point x="124" y="521"/>
    </contour>
    <contour>
      <point x="300" y="446" type="curve" smooth="yes"/>
      <point x="219" y="446"/>
      <point x="140" y="394"/>
      <point x="140" y="217" type="curve" smooth="yes"/>
      <point x="140" y="127"/>
      <point x="184" y="95"/>
      <point x="250" y="95" type="curve" smooth="yes"/>
      <point x="367" y="95"/>
      <point x="409" y="219"/>
      <point x="409" y="326" type="curve" smooth="yes"/>
      <point x="409" y="417"/>
      <point x="366" y="446"/>
    </contour>
  </outline>
</glyph>
<glyph name="Imacron" format="1">
  <advance width="365"/>
  <unicode hex="012A"/>
  <outline>
    <contour>
      <point x="411" y="837" type="line"/>
      <point x="93" y="837" type="line"/>
      <point x="104" y="911" type="line"/>
      <point x="422" y="911" type="line"/>
    </contour>
    <contour>
      <point x="354" y="597" type="line"/>
      <point x="274" y="597" type="line"/>
      <point x="203" y="89" type="line"/>
      <point x="283" y="89" type="line"/>
      <point x="270" y="0" type="line"/>
      <point x="12" y="0" type="line"/>
      <point x="25" y="89" type="line"/>
      <point x="105" y="89" type="line"/>
      <point x="176" y="597" type="line"/>
      <point x="96" y="597" type="line"/>
      <point x="109" y="686" type="line"/>
      <point x="367" y="686" type="line"/>
    </contour>
  </outline>
</glyph>
<glyph name="imacron" format="1">
  <advance width="261"/>
  <unicode hex="012B"/>
  <outline>
    <contour>
      <point x="334" y="662" type="line"/>
      <point x="16" y="662" type="line"/>
      <point x="27" y="736" type="line"/>
      <point x="345" y="736" type="line"/>
    </contour>
    <contour>
      <point x="137" y="0" type="line"/>
      <point x="43" y="0" type="line"/>
      <point x="114" y="511" type="line"/>
      <point x="208" y="511" type="line"/>
    </contour>
  </outline>
</glyph>
<glyph name="Iogonek" format="1">
  <advance width="365"/>
  <unicode hex="012E"/>
  <outline>
    <contour>
      <point x="274" y="597" type="line"/>
      <point x="203" y="89" type="line"/>
      <point x="283" y="89" type="line"/>
      <point x="270" y="0" type="line"/>
      <point x="256" y="0" type="line"/>
      <point x="231" y="-11"/>
      <point x="200" y="-40"/>
      <point x="200" y="-65" type="curve" smooth="yes"/>
      <point x="200" y="-88"/>
      <point x="221" y="-96"/>
      <point x="240" y="-96" type="curve" smooth="yes"/>
      <point x="264" y="-96"/>
      <point x="286" y="-89"/>
      <point x="309" y="-82" type="curve"/>
      <point x="317" y="-119" type="line"/>
      <point x="288" y="-135"/>
      <point x="257" y="-143"/>
      <point x="224" y="-143" type="curve" smooth="yes"/>
      <point x="181" y="-143"/>
      <point x="137" y="-128"/>
      <point x="137" y="-83" type="curve" smooth="yes"/>
      <point x="137" y="-44"/>
      <point x="170" y="-19"/>
      <point x="202" y="0" type="curve"/>
      <point x="12" y="0" type="line"/>
      <point x="25" y="89" type="line"/>
      <point x="105" y="89" type="line"/>
      <point x="176" y="597" type="line"/>
      <point x="96" y="597" type="line"/>
      <point x="109" y="686" type="line"/>
      <point x="367" y="686" type="line"/>
      <point x="354" y="597" type="line"/>
    </contour>
  </outline>
</glyph>
<glyph name="iogonek" format="1">
  <advance width="261"/>
  <unicode hex="012F"/>
  <outline>
    <contour>
      <point x="239" y="720" type="line"/>
      <point x="227" y="633" type="line"/>
      <point x="129" y="633" type="line"/>
      <point x="141" y="720" type="line"/>
    </contour>
    <contour>
      <point x="137" y="0" type="line"/>
      <point x="133" y="0" type="line"/>
      <point x="108" y="-11"/>
      <point x="77" y="-40"/>
      <point x="77" y="-65" type="curve" smooth="yes"/>
      <point x="77" y="-88"/>
      <point x="98" y="-96"/>
      <point x="117" y="-96" type="curve" smooth="yes"/>
      <point x="141" y="-96"/>
      <point x="163" y="-89"/>
      <point x="186" y="-82" type="curve"/>
      <point x="194" y="-119" type="line"/>
      <point x="165" y="-135"/>
      <point x="134" y="-143"/>
      <point x="101" y="-143" type="curve" smooth="yes"/>
      <point x="58" y="-143"/>
      <point x="14" y="-128"/>
      <point x="14" y="-83" type="curve" smooth="yes"/>
      <point x="14" y="-44"/>
      <point x="47" y="-19"/>
      <point x="79" y="0" type="curve"/>
      <point x="43" y="0" type="line"/>
      <point x="114" y="511" type="line"/>
      <point x="208" y="511" type="line"/>
    </contour>
  </outline>
</glyph>
<glyph name="Idotaccent" format="1">
  <advance width="365"/>
  <unicode hex="0130"/>
  <outline>
    <contour>
      <point x="266" y="911" type="curve" smooth="yes"/>
      <point x="301" y="911"/>
      <point x="324" y="885"/>
      <point x="324" y="852" type="curve" smooth="yes"/>
      <point x="324" y="813"/>
      <point x="291" y="779"/>
      <point x="246" y="779" type="curve" smooth="yes"/>
      <point x="215" y="779"/>
      <point x="191" y="802"/>
      <point x="191" y="833" type="curve" smooth="yes"/>
      <point x="191" y="876"/>
      <point x="219" y="911"/>
    </contour>
    <contour>
      <point x="354" y="597" type="line"/>
      <point x="274" y="597" type="line"/>
      <point x="203" y="89" type="line"/>
      <point x="283" y="89" type="line"/>
      <point x="270" y="0" type="line"/>
      <point x="12" y="0" type="line"/>
      <point x="25" y="89" type="line"/>
      <point x="105" y="89" type="line"/>
      <point x="176" y="597" type="line"/>
      <point x="96" y="597" type="line"/>
      <point x="109" y="686" type="line"/>
      <point x="367" y="686" type="line"/>
    </contour>
  </outline>
</glyph>
<glyph name="dotlessi" format="1">
  <advance width="261"/>
  <unicode hex="0131"/>
  <outline>
    <contour>
      <point x="137" y="0" type="line"/>
      <point x="43" y="0" type="line"/>
      <point x="114" y="511" type="line"/>
      <point x="208" y="511" type="line"/>
    </contour>
  </outline>
</glyph>
<glyph name="Kcommaaccent" format="1">
  <advance width="621"/>
  <unicode hex="0136"/>
  <outline>
    <contour>
      <point x="362" y="383" type="line"/>
      <point x="568" y="0" type="line"/>
      <point x="454" y="0" type="line"/>
      <point x="290" y="308" type="line"/>
      <point x="178" y="206" type="line"/>
      <point x="149" y="0" type="line"/>
      <point x="51" y="0" type="line"/>
      <point x="148" y="686" type="line"/>
      <point x="246" y="686" type="line"/>
      <point x="196" y="329" type="line"/>
      <point x="544" y="686" type="line"/>
      <point x="657" y="686" type="line"/>
    </contour>
    <contour>
      <point x="343" y="-125" type="line"/>
      <point x="296" y="-250" type="line"/>
      <point x="243" y="-250" type="line"/>
      <point x="279" y="-151" type="line"/>
      <point x="238" y="-151" type="line"/>
      <point x="254" y="-40" type="line"/>
      <point x="355" y="-40" type="line"/>
    </contour>
    <contour>
      <point x="311" y="0" type="move" name="Bottom"/>
    </contour>
  </outline>
</glyph>
<glyph name="Lacute" format="1">
  <advance width="532"/>
  <unicode hex="0139"/>
  <outline>
    <contour>
      <point x="339" y="891" type="line"/>
      <point x="203" y="750" type="line"/>
      <point x="134" y="750" type="line"/>
      <point x="249" y="895" type="line"/>
      <point x="339" y="895" type="line"/>
    </contour>
    <contour>
      <point x="162" y="89" type="line"/>
      <point x="477" y="89" type="line"/>
      <point x="477" y="0" type="line"/>
      <point x="51" y="0" type="line"/>
      <point x="148" y="686" type="line"/>
      <point x="246" y="686" type="line"/>
    </contour>
    <contour>
      <point x="266" y="0" type="move" name="Bottom"/>
    </contour>
  </outline>
</glyph>
<glyph name="lacute" format="1">
  <advance width="268"/>
  <unicode hex="013A"/>
  <outline>
    <contour>
      <point x="339" y="891" type="line"/>
      <point x="203" y="750" type="line"/>
      <point x="134" y="750" type="line"/>
      <point x="249" y="895" type="line"/>
      <point x="339" y="895" type="line"/>
    </contour>
    <contour>
      <point x="140" y="0" type="line"/>
      <point x="46" y="0" type="line"/>
      <point x="147" y="720" type="line"/>
      <point x="241" y="720" type="line"/>
    </contour>
    <contour>
      <point x="93" y="0" type="move" name="Bottom"/>
    </contour>
  </outline>
</glyph>
<glyph name="Lcommaaccent" format="1">
  <advance width="532"/>
  <unicode hex="013B"/>
  <outline>
    <contour>
      <point x="162" y="89" type="line"/>
      <point x="477" y="89" type="line"/>
      <point x="477" y="0" type="line"/>
      <point x="51" y="0" type="line"/>
      <point x="148" y="686" type="line"/>
      <point x="246" y="686" type="line"/>
    </contour>
    <contour>
      <point x="298" y="-125" type="line"/>
      <point x="251" y="-250" type="line"/>
      <point x="198" y="-250" type="line"/>
      <point x="234" y="-151" type="line"/>
      <point x="193" y="-151" type="line"/>
      <point x="209" y="-40" type="line"/>
      <point x="310" y="-40" type="line"/>
    </contour>
    <contour>
      <point x="266" y="0" type="move" name="Bottom"/>
    </contour>
  </outline>
</glyph>
<glyph name="lcommaaccent" format="1">
  <advance width="268"/>
  <unicode hex="013C"/>
  <outline>
    <contour>
      <point x="140" y="0" type="line"/>
      <point x="46" y="0" type="line"/>
      <point x="147" y="720" type="line"/>
      <point x="241" y="720" type="line"/>
    </contour>
    <contour>
      <point x="125" y="-125" type="line"/>
      <point x="78" y="-250" type="line"/>
      <point x="25" y="-250" type="line"/>
      <point x="61" y="-151" type="line"/>
      <point x="20" y="-151" type="line"/>
      <point x="36" y="-40" type="line"/>
      <point x="137" y="-40" type="line"/>
    </contour>
    <contour>
      <point x="93" y="0" type="move" name="Bottom"/>
    </contour>
  </outline>
</glyph>
<glyph name="Lcaron" format="1">
  <advance width="532"/>
  <unicode hex="013D"/>
  <outline>
    <contour>
      <point x="162" y="89" type="line"/>
      <point x="477" y="89" type="line"/>
      <point x="477" y="0" type="line"/>
      <point x="51" y="0" type="line"/>
      <point x="148" y="686" type="line"/>
      <point x="246" y="686" type="line"/>
    </contour>
    <contour>
      <point x="555" y="601" type="line"/>
      <point x="499" y="451" type="line"/>
      <point x="447" y="451" type="line"/>
      <point x="491" y="575" type="line"/>
      <point x="450" y="575" type="line"/>
      <point x="466" y="686" type="line"/>
      <point x="567" y="686" type="line"/>
    </contour>
    <contour>
      <point x="266" y="0" type="move" name="Bottom"/>
    </contour>
  </outline>
</glyph>
<glyph name="lcaron" format="1">
  <advance width="268"/>
  <unicode hex="013E"/>
  <outline>
    <contour>
      <point x="140" y="0" type="line"/>
      <point x="46" y="0" type="line"/>
      <point x="147" y="720" type="line"/>
      <point x="241" y="720" type="line"/>
    </contour>
    <contour>
      <point x="381" y="601" type="line"/>
      <point x="325" y="451" type="line"/>
      <point x="273" y="451" type="line"/>
      <point x="317" y="575" type="line"/>
      <point x="276" y="575" type="line"/>
      <point x="292" y="686" type="line"/>
      <point x="393" y="686" type="line"/>
    </contour>
    <contour>
      <point x="93" y="0" type="move" name="Bottom"/>
    </contour>
  </outline>
</glyph>
<glyph name="Lslash" format="1">
  <advance width="534"/>
  <unicode hex="0141"/>
  <outline>
    <contour>
      <point x="215" y="445" type="line"/>
      <point x="364" y="517" type="line"/>
      <point x="354" y="446" type="line"/>
      <point x="205" y="374" type="line"/>
      <point x="165" y="89" type="line"/>
      <point x="480" y="89" type="line"/>
      <point x="480" y="0" type="line"/>
      <point x="54" y="0" type="line"/>
      <point x="100" y="324" type="line"/>
      <point x="33" y="293" type="line"/>
      <point x="43" y="364" type="line"/>
      <point x="110" y="395" type="line"/>
      <point x="151" y="686" type="line"/>
      <point x="249" y="686" type="line"/>
    </contour>
  </outline>
</glyph>
<glyph name="lslash" format="1">
  <advance width="297"/>
  <unicode hex="0142"/>
  <outline>
    <contour>
      <point x="216" y="440" type="line"/>
      <point x="304" y="481" type="line"/>
      <point x="294" y="411" type="line"/>
      <point x="206" y="370" type="line"/>
      <point x="154" y="0" type="line"/>
      <point x="60" y="0" type="line"/>
      <point x="105" y="322" type="line"/>
      <point x="18" y="281" type="line"/>
      <point x="27" y="351" type="line"/>
      <point x="115" y="392" type="line"/>
      <point x="161" y="720" type="line"/>
      <point x="255" y="720" type="line"/>
    </contour>
  </outline>
</glyph>
<glyph name="Ncommaaccent" format="1">
  <advance width="694"/>
  <unicode hex="0145"/>
  <outline>
    <contour>
      <point x="561" y="0" type="line"/>
      <point x="478" y="0" type="line"/>
      <point x="214" y="502" type="line"/>
      <point x="211" y="501" type="line"/>
      <point x="140" y="0" type="line"/>
      <point x="51" y="0" type="line"/>
      <point x="148" y="686" type="line"/>
      <point x="234" y="686" type="line"/>
      <point x="496" y="190" type="line"/>
      <point x="499" y="191" type="line"/>
      <point x="569" y="686" type="line"/>
      <point x="658" y="686" type="line"/>
    </contour>
    <contour>
      <point x="379" y="-125" type="line"/>
      <point x="332" y="-250" type="line"/>
      <point x="279" y="-250" type="line"/>
      <point x="315" y="-151" type="line"/>
      <point x="274" y="-151" type="line"/>
      <point x="290" y="-40" type="line"/>
      <point x="391" y="-40" type="line"/>
    </contour>
    <contour>
      <point x="347" y="0" type="move" name="Bottom"/>
    </contour>
  </outline>
</glyph>
<glyph name="Ncaron" format="1">
  <advance width="694"/>
  <unicode hex="0147"/>
  <outline>
    <contour>
      <point x="455" y="750" type="line"/>
      <point x="377" y="750" type="line"/>
      <point x="262" y="895" type="line"/>
      <point x="342" y="895" type="line"/>
      <point x="424" y="806" type="line"/>
      <point x="531" y="895" type="line"/>
      <point x="611" y="895" type="line"/>
    </contour>
    <contour>
      <point x="561" y="0" type="line"/>
      <point x="478" y="0" type="line"/>
      <point x="214" y="502" type="line"/>
      <point x="211" y="501" type="line"/>
      <point x="140" y="0" type="line"/>
      <point x="51" y="0" type="line"/>
      <point x="148" y="686" type="line"/>
      <point x="234" y="686" type="line"/>
      <point x="496" y="190" type="line"/>
      <point x="499" y="191" type="line"/>
      <point x="569" y="686" type="line"/>
      <point x="658" y="686" type="line"/>
    </contour>
    <contour>
      <point x="347" y="0" type="move" name="Bottom"/>
    </contour>
  </outline>
</glyph>
<glyph name="oe" format="1">
  <advance width="933"/>
  <unicode hex="0153"/>
  <outline>
    <contour>
      <point x="691" y="521" type="curve" smooth="yes"/>
      <point x="698" y="521" type="line" smooth="yes"/>
      <point x="811" y="521"/>
      <point x="884" y="455"/>
      <point x="884" y="344" type="curve" smooth="yes"/>
      <point x="884" y="333" type="line" smooth="yes"/>
      <point x="884" y="321"/>
      <point x="881" y="294"/>
      <point x="871" y="234" type="curve"/>
      <point x="514" y="234" type="line"/>
      <point x="513" y="223"/>
      <point x="512" y="213"/>
      <point x="512" y="202" type="curve" smooth="yes"/>
      <point x="512" y="123"/>
      <point x="545" y="65"/>
      <point x="633" y="65" type="curve" smooth="yes"/>
      <point x="746" y="65"/>
      <point x="770" y="157"/>
      <point x="776" y="190" type="curve"/>
      <point x="865" y="190" type="line"/>
      <point x="848" y="66"/>
      <point x="760" y="-10"/>
      <point x="623" y="-10" type="curve" smooth="yes"/>
      <point x="619" y="-10" type="line" smooth="yes"/>
      <point x="540" y="-10"/>
      <point x="481" y="19"/>
      <point x="448" y="75" type="curve"/>
      <point x="404" y="23"/>
      <point x="338" y="-10"/>
      <point x="245" y="-10" type="curve" smooth="yes"/>
      <point x="129" y="-10"/>
      <point x="41" y="54"/>
      <point x="41" y="187" type="curve" smooth="yes"/>
      <point x="41" y="351"/>
      <point x="109" y="521"/>
      <point x="320" y="521" type="curve" smooth="yes"/>
      <point x="397" y="521"/>
      <point x="461" y="493"/>
      <point x="496" y="436" type="curve"/>
      <point x="541" y="488"/>
      <point x="606" y="521"/>
    </contour>
    <contour>
      <point x="309" y="446" type="curve" smooth="yes"/>
      <point x="172" y="446"/>
      <point x="144" y="309"/>
      <point x="136" y="200" type="curve"/>
      <point x="136" y="105"/>
      <point x="188" y="65"/>
      <point x="256" y="65" type="curve" smooth="yes"/>
      <point x="387" y="65"/>
      <point x="428" y="201"/>
      <point x="428" y="310" type="curve" smooth="yes"/>
      <point x="428" y="406"/>
      <point x="377" y="446"/>
    </contour>
    <contour>
      <point x="683" y="446" type="curve" smooth="yes"/>
      <point x="607" y="446"/>
      <point x="550" y="400"/>
      <point x="527" y="307" type="curve"/>
      <point x="789" y="307" type="line"/>
      <point x="792" y="327"/>
      <point x="792" y="335"/>
      <point x="792" y="343" type="curve" smooth="yes"/>
      <point x="792" y="411"/>
      <point x="746" y="446"/>
    </contour>
  </outline>
</glyph>
<glyph name="racute" format="1">
  <advance width="489"/>
  <unicode hex="0155"/>
  <outline>
    <contour>
      <point x="327" y="716" type="line"/>
      <point x="191" y="575" type="line"/>
      <point x="122" y="575" type="line"/>
      <point x="237" y="720" type="line"/>
      <point x="327" y="720" type="line"/>
    </contour>
    <contour>
      <point x="348" y="521" type="curve" smooth="yes"/>
      <point x="432" y="521"/>
      <point x="476" y="465"/>
      <point x="476" y="389" type="curve" smooth="yes"/>
      <point x="476" y="368"/>
      <point x="468" y="328"/>
      <point x="465" y="323" type="curve"/>
      <point x="382" y="323" type="line"/>
      <point x="386" y="350"/>
      <point x="386" y="353"/>
      <point x="386" y="358" type="curve" smooth="yes"/>
      <point x="386" y="395"/>
      <point x="363" y="446"/>
      <point x="301" y="446" type="curve" smooth="yes"/>
      <point x="223" y="446"/>
      <point x="188" y="369"/>
      <point x="179" y="305" type="curve" smooth="yes"/>
      <point x="136" y="0" type="line"/>
      <point x="42" y="0" type="line"/>
      <point x="114" y="511" type="line"/>
      <point x="184" y="511" type="line"/>
      <point x="184" y="435" type="line" smooth="yes"/>
      <point x="187" y="443"/>
      <point x="232" y="521"/>
    </contour>
    <contour>
      <point x="89" y="0" type="move" name="Bottom"/>
    </contour>
  </outline>
</glyph>
<glyph name="rcommaaccent" format="1">
  <advance width="489"/>
  <unicode hex="0157"/>
  <outline>
    <contour>
      <point x="348" y="521" type="curve" smooth="yes"/>
      <point x="432" y="521"/>
      <point x="476" y="465"/>
      <point x="476" y="389" type="curve" smooth="yes"/>
      <point x="476" y="368"/>
      <point x="468" y="328"/>
      <point x="465" y="323" type="curve"/>
      <point x="382" y="323" type="line"/>
      <point x="386" y="350"/>
      <point x="386" y="353"/>
      <point x="386" y="358" type="curve" smooth="yes"/>
      <point x="386" y="395"/>
      <point x="363" y="446"/>
      <point x="301" y="446" type="curve" smooth="yes"/>
      <point x="223" y="446"/>
      <point x="188" y="369"/>
      <point x="179" y="305" type="curve" smooth="yes"/>
      <point x="136" y="0" type="line"/>
      <point x="42" y="0" type="line"/>
      <point x="114" y="511" type="line"/>
      <point x="184" y="511" type="line"/>
      <point x="184" y="435" type="line" smooth="yes"/>
      <point x="187" y="443"/>
      <point x="232" y="521"/>
    </contour>
    <contour>
      <point x="121" y="-125" type="line"/>
      <point x="74" y="-250" type="line"/>
      <point x="21" y="-250" type="line"/>
      <point x="57" y="-151" type="line"/>
      <point x="16" y="-151" type="line"/>
      <point x="32" y="-40" type="line"/>
      <point x="133" y="-40" type="line"/>
    </contour>
    <contour>
      <point x="89" y="0" type="move" name="Bottom"/>
    </contour>
  </outline>
</glyph>
<glyph name="Tcedilla" format="1">
  <advance width="575"/>
  <unicode hex="0162"/>
  <outline>
    <contour>
      <point x="594" y="597" type="line"/>
      <point x="379" y="597" type="line"/>
      <point x="295" y="0" type="line"/>
      <point x="197" y="0" type="line"/>
      <point x="281" y="597" type="line"/>
      <point x="67" y="597" type="line"/>
      <point x="80" y="686" type="line"/>
      <point x="607" y="686" type="line"/>
    </contour>
    <contour>
      <point x="233" y="-17" type="line"/>
      <point x="257" y="-17" type="line" smooth="yes"/>
      <point x="308" y="-17"/>
      <point x="357" y="-32"/>
      <point x="357" y="-90" type="curve" smooth="yes"/>
      <point x="357" y="-176"/>
      <point x="274" y="-197"/>
      <point x="228" y="-197" type="curve" smooth="yes"/>
      <point x="196" y="-197"/>
      <point x="161" y="-190"/>
      <point x="136" y="-175" type="curve"/>
      <point x="152" y="-126" type="line"/>
      <point x="161" y="-131"/>
      <point x="188" y="-146"/>
      <point x="231" y="-146" type="curve" smooth="yes"/>
      <point x="263" y="-146"/>
      <point x="294" y="-131"/>
      <point x="294" y="-95" type="curve" smooth="yes"/>
      <point x="294" y="-72"/>
      <point x="275" y="-60"/>
      <point x="248" y="-60" type="curve" smooth="yes"/>
      <point x="227" y="-60" type="line"/>
    </contour>
    <contour>
      <point x="246" y="0" type="move" name="Bottom"/>
    </contour>
  </outline>
</glyph>
<glyph name="tcedilla" format="1">
  <advance width="344"/>
  <unicode hex="0163"/>
  <outline>
    <contour>
      <point x="223" y="511" type="line"/>
      <point x="342" y="511" type="line"/>
      <point x="331" y="436" type="line"/>
      <point x="212" y="436" type="line"/>
      <point x="203" y="380"/>
      <point x="195" y="329"/>
      <point x="189" y="283" type="curve" smooth="yes"/>
      <point x="181" y="225" type="line" smooth="yes"/>
      <point x="173" y="169"/>
      <point x="167" y="120"/>
      <point x="167" y="112" type="curve" smooth="yes"/>
      <point x="167" y="69"/>
      <point x="193" y="63"/>
      <point x="217" y="63" type="curve" smooth="yes"/>
      <point x="232" y="63"/>
      <point x="264" y="71"/>
      <point x="281" y="78" type="curve"/>
      <point x="271" y="8" type="line"/>
      <point x="248" y="-3"/>
      <point x="212" y="-10"/>
      <point x="183" y="-10" type="curve" smooth="yes"/>
      <point x="108" y="-10"/>
      <point x="73" y="20"/>
      <point x="73" y="93" type="curve" smooth="yes"/>
      <point x="73" y="109"/>
      <point x="79" y="162"/>
      <point x="87" y="221" type="curve" smooth="yes"/>
      <point x="95" y="281" type="line" smooth="yes"/>
      <point x="101" y="328"/>
      <point x="109" y="379"/>
      <point x="118" y="436" type="curve"/>
      <point x="62" y="436" type="line"/>
      <point x="73" y="511" type="line"/>
      <point x="128" y="511" type="line"/>
      <point x="150" y="674" type="line"/>
      <point x="253" y="674" type="line"/>
    </contour>
    <contour>
      <point x="159" y="-17" type="line"/>
      <point x="183" y="-17" type="line" smooth="yes"/>
      <point x="234" y="-17"/>
      <point x="283" y="-32"/>
      <point x="283" y="-90" type="curve" smooth="yes"/>
      <point x="283" y="-176"/>
      <point x="200" y="-197"/>
      <point x="154" y="-197" type="curve" smooth="yes"/>
      <point x="122" y="-197"/>
      <point x="87" y="-190"/>
      <point x="62" y="-175" type="curve"/>
      <point x="78" y="-126" type="line"/>
      <point x="87" y="-131"/>
      <point x="114" y="-146"/>
      <point x="157" y="-146" type="curve" smooth="yes"/>
      <point x="189" y="-146"/>
      <point x="220" y="-131"/>
      <point x="220" y="-95" type="curve" smooth="yes"/>
      <point x="220" y="-72"/>
      <point x="201" y="-60"/>
      <point x="174" y="-60" type="curve" smooth="yes"/>
      <point x="153" y="-60" type="line"/>
    </contour>
    <contour>
      <point x="172" y="0" type="move" name="Bottom"/>
    </contour>
  </outline>
</glyph>
<glyph name="Uring" format="1">
  <advance width="682"/>
  <unicode hex="016E"/>
  <outline>
    <contour>
      <point x="403" y="922" type="curve" smooth="yes"/>
      <point x="459" y="922"/>
      <point x="499" y="883"/>
      <point x="499" y="828" type="curve" smooth="yes"/>
      <point x="499" y="768"/>
      <point x="446" y="720"/>
      <point x="390" y="720" type="curve" smooth="yes"/>
      <point x="334" y="720"/>
      <point x="294" y="758"/>
      <point x="294" y="814" type="curve" smooth="yes"/>
      <point x="294" y="878"/>
      <point x="348" y="922"/>
    </contour>
    <contour>
      <point x="400" y="881" type="curve" smooth="yes"/>
      <point x="368" y="881"/>
      <point x="339" y="854"/>
      <point x="339" y="817" type="curve" smooth="yes"/>
      <point x="339" y="786"/>
      <point x="361" y="761"/>
      <point x="393" y="761" type="curve" smooth="yes"/>
      <point x="424" y="761"/>
      <point x="454" y="789"/>
      <point x="454" y="825" type="curve" smooth="yes"/>
      <point x="454" y="856"/>
      <point x="432" y="881"/>
    </contour>
    <contour>
      <point x="650" y="686" type="line"/>
      <point x="585" y="219" type="line" smooth="yes"/>
      <point x="565" y="79"/>
      <point x="467" y="-10"/>
      <point x="305" y="-10" type="curve" smooth="yes"/>
      <point x="292" y="-10" type="line" smooth="yes"/>
      <point x="156" y="-10"/>
      <point x="74" y="63"/>
      <point x="74" y="180" type="curve" smooth="yes"/>
      <point x="74" y="201"/>
      <point x="78" y="218"/>
      <point x="142" y="686" type="curve"/>
      <point x="240" y="686" type="line"/>
      <point x="208" y="450"/>
      <point x="190" y="333"/>
      <point x="182" y="272" type="curve" smooth="yes"/>
      <point x="176" y="228" type="line" smooth="yes"/>
      <point x="173" y="209"/>
      <point x="173" y="205"/>
      <point x="173" y="200" type="curve" smooth="yes"/>
      <point x="173" y="129"/>
      <point x="223" y="79"/>
      <point x="311" y="79" type="curve" smooth="yes"/>
      <point x="408" y="79"/>
      <point x="475" y="137"/>
      <point x="487" y="221" type="curve" smooth="yes"/>
      <point x="552" y="686" type="line"/>
    </contour>
  </outline>
</glyph>
<glyph name="uring" format="1">
  <advance width="617"/>
  <unicode hex="016F"/>
  <outline>
    <contour>
      <point x="356" y="747" type="curve" smooth="yes"/>
      <point x="412" y="747"/>
      <point x="452" y="708"/>
      <point x="452" y="653" type="curve" smooth="yes"/>
      <point x="452" y="593"/>
      <point x="399" y="545"/>
      <point x="343" y="545" type="curve" smooth="yes"/>
      <point x="287" y="545"/>
      <point x="247" y="583"/>
      <point x="247" y="639" type="curve" smooth="yes"/>
      <point x="247" y="703"/>
      <point x="301" y="747"/>
    </contour>
    <contour>
      <point x="353" y="706" type="curve" smooth="yes"/>
      <point x="321" y="706"/>
      <point x="292" y="679"/>
      <point x="292" y="642" type="curve" smooth="yes"/>
      <point x="292" y="611"/>
      <point x="314" y="586"/>
      <point x="346" y="586" type="curve" smooth="yes"/>
      <point x="377" y="586"/>
      <point x="407" y="614"/>
      <point x="407" y="650" type="curve" smooth="yes"/>
      <point x="407" y="681"/>
      <point x="385" y="706"/>
    </contour>
    <contour>
      <point x="541" y="511" type="line"/>
      <point x="511" y="304" type="line" smooth="yes"/>
      <point x="496" y="200"/>
      <point x="481" y="95"/>
      <point x="482" y="92" type="curve" smooth="yes"/>
      <point x="482" y="73"/>
      <point x="493" y="65"/>
      <point x="506" y="65" type="curve" smooth="yes"/>
      <point x="521" y="65"/>
      <point x="542" y="72"/>
      <point x="553" y="79" type="curve"/>
      <point x="544" y="10" type="line"/>
      <point x="531" y="2"/>
      <point x="503" y="-10"/>
      <point x="467" y="-10" type="curve" smooth="yes"/>
      <point x="408" y="-10"/>
      <point x="391" y="24"/>
      <point x="391" y="64" type="curve" smooth="yes"/>
      <point x="391" y="74" type="line"/>
      <point x="354" y="32"/>
      <point x="290" y="-10"/>
      <point x="217" y="-10" type="curve" smooth="yes"/>
      <point x="125" y="-10"/>
      <point x="58" y="32"/>
      <point x="58" y="131" type="curve" smooth="yes"/>
      <point x="58" y="165"/>
      <point x="83" y="337"/>
      <point x="109" y="511" type="curve"/>
      <point x="203" y="511" type="line"/>
      <point x="179" y="346" type="line" smooth="yes"/>
      <point x="166" y="261"/>
      <point x="154" y="172"/>
      <point x="155" y="155" type="curve" smooth="yes"/>
      <point x="155" y="90"/>
      <point x="192" y="65"/>
      <point x="248" y="65" type="curve" smooth="yes"/>
      <point x="318" y="65"/>
      <point x="391" y="127"/>
      <point x="404" y="207" type="curve" smooth="yes"/>
      <point x="447" y="511" type="line"/>
    </contour>
  </outline>
</glyph>
<glyph name="Uhungarumlaut" format="1">
  <advance width="682"/>
  <unicode hex="0170"/>
  <outline>
    <contour>
      <point x="471" y="890" type="line"/>
      <point x="336" y="750" type="line"/>
      <point x="266" y="750" type="line"/>
      <point x="382" y="895" type="line"/>
      <point x="471" y="895" type="line"/>
    </contour>
    <contour>
      <point x="626" y="890" type="line"/>
      <point x="491" y="750" type="line"/>
      <point x="421" y="750" type="line"/>
      <point x="536" y="895" type="line"/>
      <point x="626" y="895" type="line"/>
    </contour>
    <contour>
      <point x="650" y="686" type="line"/>
      <point x="585" y="219" type="line" smooth="yes"/>
      <point x="565" y="79"/>
      <point x="467" y="-10"/>
      <point x="305" y="-10" type="curve" smooth="yes"/>
      <point x="292" y="-10" type="line" smooth="yes"/>
      <point x="156" y="-10"/>
      <point x="74" y="63"/>
      <point x="74" y="180" type="curve" smooth="yes"/>
      <point x="74" y="201"/>
      <point x="78" y="218"/>
      <point x="142" y="686" type="curve"/>
      <point x="240" y="686" type="line"/>
      <point x="208" y="450"/>
      <point x="190" y="333"/>
      <point x="182" y="272" type="curve" smooth="yes"/>
      <point x="176" y="228" type="line" smooth="yes"/>
      <point x="173" y="209"/>
      <point x="173" y="205"/>
      <point x="173" y="200" type="curve" smooth="yes"/>
      <point x="173" y="129"/>
      <point x="223" y="79"/>
      <point x="311" y="79" type="curve" smooth="yes"/>
      <point x="408" y="79"/>
      <point x="475" y="137"/>
      <point x="487" y="221" type="curve" smooth="yes"/>
      <point x="552" y="686" type="line"/>
    </contour>
  </outline>
</glyph>
<glyph name="uhungarumlaut" format="1">
  <advance width="617"/>
  <unicode hex="0171"/>
  <outline>
    <contour>
      <point x="424" y="715" type="line"/>
      <point x="289" y="575" type="line"/>
      <point x="219" y="575" type="line"/>
      <point x="335" y="720" type="line"/>
      <point x="424" y="720" type="line"/>
    </contour>
    <contour>
      <point x="579" y="715" type="line"/>
      <point x="444" y="575" type="line"/>
      <point x="374" y="575" type="line"/>
      <point x="489" y="720" type="line"/>
      <point x="579" y="720" type="line"/>
    </contour>
    <contour>
      <point x="541" y="511" type="line"/>
      <point x="511" y="304" type="line" smooth="yes"/>
      <point x="496" y="200"/>
      <point x="481" y="95"/>
      <point x="482" y="92" type="curve" smooth="yes"/>
      <point x="482" y="73"/>
      <point x="493" y="65"/>
      <point x="506" y="65" type="curve" smooth="yes"/>
      <point x="521" y="65"/>
      <point x="542" y="72"/>
      <point x="553" y="79" type="curve"/>
      <point x="544" y="10" type="line"/>
      <point x="531" y="2"/>
      <point x="503" y="-10"/>
      <point x="467" y="-10" type="curve" smooth="yes"/>
      <point x="408" y="-10"/>
      <point x="391" y="24"/>
      <point x="391" y="64" type="curve" smooth="yes"/>
      <point x="391" y="74" type="line"/>
      <point x="354" y="32"/>
      <point x="290" y="-10"/>
      <point x="217" y="-10" type="curve" smooth="yes"/>
      <point x="125" y="-10"/>
      <point x="58" y="32"/>
      <point x="58" y="131" type="curve" smooth="yes"/>
      <point x="58" y="165"/>
      <point x="83" y="337"/>
      <point x="109" y="511" type="curve"/>
      <point x="203" y="511" type="line"/>
      <point x="179" y="346" type="line" smooth="yes"/>
      <point x="166" y="261"/>
      <point x="154" y="172"/>
      <point x="155" y="155" type="curve" smooth="yes"/>
      <point x="155" y="90"/>
      <point x="192" y="65"/>
      <point x="248" y="65" type="curve" smooth="yes"/>
      <point x="318" y="65"/>
      <point x="391" y="127"/>
      <point x="404" y="207" type="curve" smooth="yes"/>
      <point x="447" y="511" type="line"/>
    </contour>
  </outline>
</glyph>
<glyph name="Uogonek" format="1">
  <advance width="682"/>
  <unicode hex="0172"/>
  <outline>
    <contour>
      <point x="650" y="686" type="line"/>
      <point x="585" y="219" type="line" smooth="yes"/>
      <point x="569" y="106"/>
      <point x="502" y="27"/>
      <point x="393" y="0" type="curve"/>
      <point x="422" y="0" type="line"/>
      <point x="397" y="-11"/>
      <point x="366" y="-40"/>
      <point x="366" y="-65" type="curve" smooth="yes"/>
      <point x="366" y="-88"/>
      <point x="387" y="-96"/>
      <point x="406" y="-96" type="curve" smooth="yes"/>
      <point x="430" y="-96"/>
      <point x="452" y="-89"/>
      <point x="475" y="-82" type="curve"/>
      <point x="483" y="-119" type="line"/>
      <point x="454" y="-135"/>
      <point x="423" y="-143"/>
      <point x="390" y="-143" type="curve" smooth="yes"/>
      <point x="347" y="-143"/>
      <point x="303" y="-128"/>
      <point x="303" y="-83" type="curve" smooth="yes"/>
      <point x="303" y="-48"/>
      <point x="329" y="-25"/>
      <point x="357" y="-7" type="curve"/>
      <point x="341" y="-9"/>
      <point x="323" y="-10"/>
      <point x="305" y="-10" type="curve" smooth="yes"/>
      <point x="292" y="-10" type="line" smooth="yes"/>
      <point x="156" y="-10"/>
      <point x="74" y="63"/>
      <point x="74" y="180" type="curve" smooth="yes"/>
      <point x="74" y="201"/>
      <point x="78" y="218"/>
      <point x="142" y="686" type="curve"/>
      <point x="240" y="686" type="line"/>
      <point x="208" y="450"/>
      <point x="190" y="333"/>
      <point x="182" y="272" type="curve" smooth="yes"/>
      <point x="176" y="228" type="line" smooth="yes"/>
      <point x="173" y="209"/>
      <point x="173" y="205"/>
      <point x="173" y="200" type="curve" smooth="yes"/>
      <point x="173" y="129"/>
      <point x="223" y="79"/>
      <point x="311" y="79" type="curve" smooth="yes"/>
      <point x="408" y="79"/>
      <point x="475" y="137"/>
      <point x="487" y="221" type="curve" smooth="yes"/>
      <point x="552" y="686" type="line"/>
    </contour>
  </outline>
</glyph>
<glyph name="uogonek" format="1">
  <advance width="617"/>
  <unicode hex="0173"/>
  <outline>
    <contour>
      <point x="576" y="-82" type="curve"/>
      <point x="584" y="-119" type="line"/>
      <point x="555" y="-135"/>
      <point x="524" y="-143"/>
      <point x="491" y="-143" type="curve" smooth="yes"/>
      <point x="448" y="-143"/>
      <point x="404" y="-128"/>
      <point x="404" y="-83" type="curve" smooth="yes"/>
      <point x="404" y="-50"/>
      <point x="427" y="-27"/>
      <point x="454" y="-9" type="curve"/>
      <point x="405" y="-5"/>
      <point x="391" y="27"/>
      <point x="391" y="64" type="curve" smooth="yes"/>
      <point x="391" y="74" type="line"/>
      <point x="354" y="32"/>
      <point x="290" y="-10"/>
      <point x="217" y="-10" type="curve" smooth="yes"/>
      <point x="125" y="-10"/>
      <point x="58" y="32"/>
      <point x="58" y="131" type="curve" smooth="yes"/>
      <point x="58" y="165"/>
      <point x="83" y="337"/>
      <point x="109" y="511" type="curve"/>
      <point x="203" y="511" type="line"/>
      <point x="179" y="346" type="line" smooth="yes"/>
      <point x="166" y="261"/>
      <point x="154" y="172"/>
      <point x="155" y="155" type="curve" smooth="yes"/>
      <point x="155" y="90"/>
      <point x="192" y="65"/>
      <point x="248" y="65" type="curve" smooth="yes"/>
      <point x="318" y="65"/>
      <point x="391" y="127"/>
      <point x="404" y="207" type="curve" smooth="yes"/>
      <point x="447" y="511" type="line"/>
      <point x="541" y="511" type="line"/>
      <point x="511" y="304" type="line" smooth="yes"/>
      <point x="496" y="200"/>
      <point x="481" y="95"/>
      <point x="482" y="92" type="curve" smooth="yes"/>
      <point x="482" y="73"/>
      <point x="493" y="65"/>
      <point x="506" y="65" type="curve" smooth="yes"/>
      <point x="521" y="65"/>
      <point x="542" y="72"/>
      <point x="553" y="79" type="curve"/>
      <point x="544" y="10" type="line"/>
      <point x="539" y="7"/>
      <point x="532" y="3"/>
      <point x="523" y="0" type="curve" smooth="yes"/>
      <point x="498" y="-11"/>
      <point x="467" y="-40"/>
      <point x="467" y="-65" type="curve" smooth="yes"/>
      <point x="467" y="-88"/>
      <point x="488" y="-96"/>
      <point x="507" y="-96" type="curve" smooth="yes"/>
      <point x="531" y="-96"/>
      <point x="553" y="-89"/>
    </contour>
  </outline>
</glyph>
